<svg width="33" height="33" viewBox="0 0 33 33" fill="none" xmlns="http://www.w3.org/2000/svg">
<g clip-path="url(#clip0_357_577)">
<path d="M29.5442 27.4573C27.5062 23.9355 24.3068 21.4644 20.5891 20.4164C22.3966 19.4976 23.8419 17.9969 24.6921 16.1562C25.5422 14.3154 25.7477 12.242 25.2753 10.2703C24.8029 8.29848 23.6802 6.54326 22.0882 5.28763C20.4962 4.03199 18.5278 3.34912 16.5002 3.34912C14.4726 3.34912 12.5041 4.03199 10.9122 5.28763C9.32017 6.54326 8.19746 8.29848 7.72507 10.2703C7.25269 12.242 7.45814 14.3154 8.30832 16.1562C9.15849 17.9969 10.6038 19.4976 12.4113 20.4164C8.69363 21.4631 5.49418 23.9342 3.45617 27.4573C3.40021 27.5453 3.36263 27.6437 3.3457 27.7467C3.32877 27.8496 3.33284 27.9549 3.35766 28.0562C3.38247 28.1575 3.42753 28.2528 3.49011 28.3362C3.5527 28.4197 3.63151 28.4896 3.72182 28.5418C3.81213 28.594 3.91207 28.6274 4.01562 28.64C4.11917 28.6526 4.2242 28.6441 4.32438 28.615C4.42456 28.5859 4.51783 28.5369 4.59857 28.4709C4.67932 28.4048 4.74587 28.3231 4.79422 28.2307C7.27051 23.9523 11.6456 21.3987 16.5002 21.3987C21.3548 21.3987 25.7299 23.9523 28.2062 28.2307C28.2545 28.3231 28.3211 28.4048 28.4018 28.4709C28.4826 28.5369 28.5758 28.5859 28.676 28.615C28.7762 28.6441 28.8812 28.6526 28.9848 28.64C29.0883 28.6274 29.1883 28.594 29.2786 28.5418C29.3689 28.4896 29.4477 28.4197 29.5103 28.3362C29.5729 28.2528 29.6179 28.1575 29.6427 28.0562C29.6675 27.9549 29.6716 27.8496 29.6547 27.7467C29.6378 27.6437 29.6002 27.5453 29.5442 27.4573ZM9.02363 12.3752C9.02363 10.8965 9.46212 9.45098 10.2837 8.22147C11.1052 6.99195 12.2729 6.03366 13.639 5.46778C15.0052 4.90189 16.5085 4.75383 17.9588 5.04232C19.4091 5.3308 20.7413 6.04288 21.7869 7.08849C22.8325 8.13411 23.5446 9.4663 23.8331 10.9166C24.1216 12.3669 23.9735 13.8702 23.4076 15.2364C22.8418 16.6025 21.8835 17.7702 20.6539 18.5918C19.4244 19.4133 17.9789 19.8518 16.5002 19.8518C14.518 19.8494 12.6177 19.0609 11.2161 17.6593C9.81449 16.2577 9.02602 14.3574 9.02363 12.3752Z" fill="#0D4929"/>
</g>
<defs>
<clipPath id="clip0_357_577">
<rect width="33" height="33" fill="white"/>
</clipPath>
</defs>
</svg>
