<svg width="13" height="8" viewBox="0 0 13 8" fill="none" xmlns="http://www.w3.org/2000/svg">
<g clip-path="url(#clip0_344_566)">
<path d="M12.039 0.897359C12.133 0.991057 12.1858 1.11823 12.186 1.25091C12.1862 1.38358 12.1337 1.5109 12.04 1.60487L6.5711 7.09281C6.51996 7.14425 6.45914 7.18507 6.39216 7.21292C6.32519 7.24078 6.25336 7.25512 6.18082 7.25512C6.10828 7.25512 6.03646 7.24078 5.96948 7.21292C5.9025 7.18507 5.84169 7.14425 5.79054 7.09281L0.323611 1.60487C0.275891 1.55864 0.237855 1.50338 0.211722 1.4423C0.185588 1.38121 0.171881 1.31554 0.1714 1.2491C0.170918 1.18267 0.183672 1.1168 0.208918 1.05535C0.234163 0.993892 0.271395 0.938081 0.318439 0.891169C0.365484 0.844257 0.421401 0.807184 0.482926 0.782112C0.544451 0.757041 0.610353 0.744473 0.676787 0.745143C0.743222 0.745812 0.808857 0.759705 0.869865 0.786011C0.930873 0.812317 0.986031 0.850509 1.03212 0.898359L6.18082 6.06708L11.3315 0.898359C11.4252 0.804424 11.5524 0.751548 11.6851 0.75136C11.8178 0.751173 11.9451 0.803688 12.039 0.897359Z" fill="black"/>
</g>
<defs>
<clipPath id="clip0_344_566">
<rect width="12.0146" height="6.51" fill="white" transform="translate(0.171387 0.745117)"/>
</clipPath>
</defs>
</svg>
