<svg width="14" height="15" viewBox="0 0 14 15" fill="none" xmlns="http://www.w3.org/2000/svg">
<g clip-path="url(#clip0_369_21854)">
<path d="M13.3452 7.10432L13.3454 7.10443C13.4172 7.17961 13.4685 7.27815 13.4895 7.38871C13.5106 7.49935 13.4996 7.61381 13.4589 7.71671L13.9239 7.90059L13.4585 7.71782C13.4318 7.78581 13.3931 7.8462 13.3458 7.89611C13.3457 7.89626 13.3456 7.89641 13.3454 7.89656L9.34599 12.085L9.34594 12.0849L9.34006 12.0913C9.29271 12.1426 9.23734 12.1822 9.17787 12.209C9.11846 12.2357 9.05549 12.2494 8.99242 12.25C8.92935 12.2506 8.86623 12.238 8.80651 12.2124C8.74673 12.1868 8.69083 12.1483 8.64275 12.0979C8.59461 12.0475 8.55537 11.9863 8.52841 11.9173C8.50144 11.8483 8.48761 11.7736 8.48824 11.6977C8.48887 11.6219 8.50393 11.5475 8.532 11.4791C8.56006 11.4107 8.60024 11.3503 8.64909 11.3009L8.64914 11.3009L8.65514 11.2947L10.9483 8.89315L11.7554 8.04784H10.5867H1.00006C0.875083 8.04784 0.750279 7.99606 0.65453 7.89579C0.558031 7.79473 0.5 7.65294 0.5 7.50052C0.5 7.34811 0.558031 7.20632 0.65453 7.10526C0.750279 7.00498 0.875083 6.9532 1.00006 6.9532H10.5867H11.7554L10.9483 6.1079L8.65414 3.70535L8.6542 3.70529L8.64809 3.69912C8.59924 3.64971 8.55906 3.58935 8.531 3.52094C8.50293 3.4525 8.48787 3.37811 8.48724 3.30227C8.48661 3.22644 8.50044 3.15172 8.52741 3.08268C8.55437 3.01367 8.59361 2.95246 8.64175 2.90205C8.68983 2.8517 8.74572 2.8132 8.80551 2.78758C8.86523 2.76199 8.92835 2.74944 8.99142 2.75002C9.05449 2.75059 9.11746 2.76429 9.17687 2.79101C9.23633 2.81777 9.29171 2.85736 9.33906 2.90871L9.33901 2.90876L9.345 2.91504L13.3452 7.10432Z" fill="white" stroke="white"/>
</g>
<defs>
<clipPath id="clip0_369_21854">
<rect width="14" height="14" fill="white" transform="translate(0 0.5)"/>
</clipPath>
</defs>
</svg>
