<svg width="114" height="21" viewBox="0 0 114 21" fill="none" xmlns="http://www.w3.org/2000/svg">
<g clip-path="url(#clip0_359_595)">
<path d="M28.002 15.098C27.0967 15.098 26.2707 14.888 25.524 14.468C24.7773 14.0387 24.1847 13.446 23.746 12.69C23.3167 11.9247 23.102 11.066 23.102 10.114C23.102 9.162 23.3167 8.308 23.746 7.552C24.1847 6.78667 24.7773 6.194 25.524 5.774C26.2707 5.34467 27.0967 5.13 28.002 5.13C28.9167 5.13 29.7473 5.34467 30.494 5.774C31.2407 6.194 31.8287 6.782 32.258 7.538C32.6873 8.294 32.902 9.15267 32.902 10.114C32.902 11.0753 32.6873 11.934 32.258 12.69C31.8287 13.446 31.2407 14.0387 30.494 14.468C29.7473 14.888 28.9167 15.098 28.002 15.098ZM28.002 13.992C28.6833 13.992 29.2947 13.8333 29.836 13.516C30.3867 13.1987 30.816 12.746 31.124 12.158C31.4413 11.57 31.6 10.8887 31.6 10.114C31.6 9.33 31.4413 8.64867 31.124 8.07C30.816 7.482 30.3913 7.02933 29.85 6.712C29.3087 6.39467 28.6927 6.236 28.002 6.236C27.3113 6.236 26.6953 6.39467 26.154 6.712C25.6127 7.02933 25.1833 7.482 24.866 8.07C24.558 8.64867 24.404 9.33 24.404 10.114C24.404 10.8887 24.558 11.57 24.866 12.158C25.1833 12.746 25.6127 13.1987 26.154 13.516C26.7047 13.8333 27.3207 13.992 28.002 13.992ZM41.3879 7.328V15H40.1139V13.866C39.8712 14.258 39.5305 14.566 39.0919 14.79C38.6625 15.0047 38.1865 15.112 37.6639 15.112C37.0665 15.112 36.5299 14.9907 36.0539 14.748C35.5779 14.496 35.1999 14.1227 34.9199 13.628C34.6492 13.1333 34.5139 12.5313 34.5139 11.822V7.328H35.7739V11.654C35.7739 12.41 35.9652 12.9933 36.3479 13.404C36.7305 13.8053 37.2532 14.006 37.9159 14.006C38.5972 14.006 39.1339 13.796 39.5259 13.376C39.9179 12.956 40.1139 12.3447 40.1139 11.542V7.328H41.3879ZM44.8129 8.574C45.0369 8.13533 45.3543 7.79467 45.7649 7.552C46.1849 7.30933 46.6936 7.188 47.2909 7.188V8.504H46.9549C45.5269 8.504 44.8129 9.27867 44.8129 10.828V15H43.5389V7.328H44.8129V8.574ZM59.018 8.098C59.018 8.91 58.738 9.58667 58.178 10.128C57.6273 10.66 56.7827 10.926 55.644 10.926H53.768V15H52.494V5.242H55.644C56.7453 5.242 57.5807 5.508 58.15 6.04C58.7287 6.572 59.018 7.258 59.018 8.098ZM55.644 9.876C56.3533 9.876 56.876 9.722 57.212 9.414C57.548 9.106 57.716 8.66733 57.716 8.098C57.716 6.894 57.0253 6.292 55.644 6.292H53.768V9.876H55.644ZM61.8754 8.574C62.0994 8.13533 62.4168 7.79467 62.8274 7.552C63.2474 7.30933 63.7561 7.188 64.3534 7.188V8.504H64.0174C62.5894 8.504 61.8754 9.27867 61.8754 10.828V15H60.6014V7.328H61.8754V8.574ZM69.1701 15.126C68.4514 15.126 67.7981 14.9627 67.2101 14.636C66.6314 14.3093 66.1741 13.8473 65.8381 13.25C65.5114 12.6433 65.3481 11.9433 65.3481 11.15C65.3481 10.366 65.5161 9.67533 65.8521 9.078C66.1974 8.47133 66.6641 8.00933 67.2521 7.692C67.8401 7.36533 68.4981 7.202 69.2261 7.202C69.9541 7.202 70.6121 7.36533 71.2001 7.692C71.7881 8.00933 72.2501 8.46667 72.5861 9.064C72.9314 9.66133 73.1041 10.3567 73.1041 11.15C73.1041 11.9433 72.9268 12.6433 72.5721 13.25C72.2268 13.8473 71.7554 14.3093 71.1581 14.636C70.5608 14.9627 69.8981 15.126 69.1701 15.126ZM69.1701 14.006C69.6274 14.006 70.0568 13.8987 70.4581 13.684C70.8594 13.4693 71.1814 13.1473 71.4241 12.718C71.6761 12.2887 71.8021 11.766 71.8021 11.15C71.8021 10.534 71.6808 10.0113 71.4381 9.582C71.1954 9.15267 70.8781 8.83533 70.4861 8.63C70.0941 8.41533 69.6694 8.308 69.2121 8.308C68.7454 8.308 68.3161 8.41533 67.9241 8.63C67.5414 8.83533 67.2334 9.15267 67.0001 9.582C66.7668 10.0113 66.6501 10.534 66.6501 11.15C66.6501 11.7753 66.7621 12.3027 66.9861 12.732C67.2194 13.1613 67.5274 13.4833 67.9101 13.698C68.2928 13.9033 68.7128 14.006 69.1701 14.006ZM74.3032 11.136C74.3032 10.352 74.4618 9.666 74.7792 9.078C75.0965 8.48067 75.5305 8.01867 76.0812 7.692C76.6412 7.36533 77.2665 7.202 77.9572 7.202C78.5545 7.202 79.1098 7.342 79.6232 7.622C80.1365 7.89267 80.5285 8.252 80.7992 8.7V4.64H82.0872V15H80.7992V13.558C80.5472 14.0153 80.1738 14.3933 79.6792 14.692C79.1845 14.9813 78.6058 15.126 77.9432 15.126C77.2618 15.126 76.6412 14.958 76.0812 14.622C75.5305 14.286 75.0965 13.8147 74.7792 13.208C74.4618 12.6013 74.3032 11.9107 74.3032 11.136ZM80.7992 11.15C80.7992 10.5713 80.6825 10.0673 80.4492 9.638C80.2158 9.20867 79.8985 8.882 79.4972 8.658C79.1052 8.42467 78.6712 8.308 78.1952 8.308C77.7192 8.308 77.2852 8.42 76.8932 8.644C76.5012 8.868 76.1885 9.19467 75.9552 9.624C75.7218 10.0533 75.6052 10.5573 75.6052 11.136C75.6052 11.724 75.7218 12.2373 75.9552 12.676C76.1885 13.1053 76.5012 13.4367 76.8932 13.67C77.2852 13.894 77.7192 14.006 78.1952 14.006C78.6712 14.006 79.1052 13.894 79.4972 13.67C79.8985 13.4367 80.2158 13.1053 80.4492 12.676C80.6825 12.2373 80.7992 11.7287 80.7992 11.15ZM91.0441 7.328V15H89.7701V13.866C89.5274 14.258 89.1868 14.566 88.7481 14.79C88.3188 15.0047 87.8428 15.112 87.3201 15.112C86.7228 15.112 86.1861 14.9907 85.7101 14.748C85.2341 14.496 84.8561 14.1227 84.5761 13.628C84.3054 13.1333 84.1701 12.5313 84.1701 11.822V7.328H85.4301V11.654C85.4301 12.41 85.6214 12.9933 86.0041 13.404C86.3868 13.8053 86.9094 14.006 87.5721 14.006C88.2534 14.006 88.7901 13.796 89.1821 13.376C89.5741 12.956 89.7701 12.3447 89.7701 11.542V7.328H91.0441ZM92.7192 11.15C92.7192 10.3567 92.8779 9.666 93.1952 9.078C93.5125 8.48067 93.9512 8.01867 94.5112 7.692C95.0805 7.36533 95.7292 7.202 96.4572 7.202C97.3999 7.202 98.1745 7.43067 98.7812 7.888C99.3972 8.34533 99.8032 8.98 99.9992 9.792H98.6272C98.4965 9.32533 98.2399 8.95667 97.8572 8.686C97.4839 8.41533 97.0172 8.28 96.4572 8.28C95.7292 8.28 95.1412 8.532 94.6932 9.036C94.2452 9.53067 94.0212 10.2353 94.0212 11.15C94.0212 12.074 94.2452 12.788 94.6932 13.292C95.1412 13.796 95.7292 14.048 96.4572 14.048C97.0172 14.048 97.4839 13.9173 97.8572 13.656C98.2305 13.3947 98.4872 13.0213 98.6272 12.536H99.9992C99.7939 13.32 99.3832 13.95 98.7672 14.426C98.1512 14.8927 97.3812 15.126 96.4572 15.126C95.7292 15.126 95.0805 14.9627 94.5112 14.636C93.9512 14.3093 93.5125 13.8473 93.1952 13.25C92.8779 12.6527 92.7192 11.9527 92.7192 11.15ZM103.253 8.378V12.9C103.253 13.2733 103.332 13.5393 103.491 13.698C103.65 13.8473 103.925 13.922 104.317 13.922H105.255V15H104.107C103.398 15 102.866 14.8367 102.511 14.51C102.156 14.1833 101.979 13.6467 101.979 12.9V8.378H100.985V7.328H101.979V5.396H103.253V7.328H105.255V8.378H103.253ZM109.515 15.126C108.927 15.126 108.399 15.028 107.933 14.832C107.466 14.6267 107.097 14.3467 106.827 13.992C106.556 13.628 106.407 13.2127 106.379 12.746H107.695C107.732 13.1287 107.909 13.4413 108.227 13.684C108.553 13.9267 108.978 14.048 109.501 14.048C109.986 14.048 110.369 13.9407 110.649 13.726C110.929 13.5113 111.069 13.2407 111.069 12.914C111.069 12.578 110.919 12.3307 110.621 12.172C110.322 12.004 109.86 11.8407 109.235 11.682C108.665 11.5327 108.199 11.3833 107.835 11.234C107.48 11.0753 107.172 10.8467 106.911 10.548C106.659 10.24 106.533 9.83867 106.533 9.344C106.533 8.952 106.649 8.59267 106.883 8.266C107.116 7.93933 107.447 7.68267 107.877 7.496C108.306 7.3 108.796 7.202 109.347 7.202C110.196 7.202 110.882 7.41667 111.405 7.846C111.927 8.27533 112.207 8.86333 112.245 9.61H110.971C110.943 9.20867 110.779 8.88667 110.481 8.644C110.191 8.40133 109.799 8.28 109.305 8.28C108.847 8.28 108.483 8.378 108.213 8.574C107.942 8.77 107.807 9.02667 107.807 9.344C107.807 9.596 107.886 9.806 108.045 9.974C108.213 10.1327 108.418 10.2633 108.661 10.366C108.913 10.4593 109.258 10.5667 109.697 10.688C110.247 10.8373 110.695 10.9867 111.041 11.136C111.386 11.276 111.68 11.4907 111.923 11.78C112.175 12.0693 112.305 12.4473 112.315 12.914C112.315 13.334 112.198 13.712 111.965 14.048C111.731 14.384 111.4 14.65 110.971 14.846C110.551 15.0327 110.065 15.126 109.515 15.126Z" fill="#FAFAFA"/>
<path d="M11.5679 9.70113L6.81577 5.31428C6.73648 5.24105 6.63113 5.2002 6.52158 5.2002C6.41204 5.2002 6.30669 5.24105 6.2274 5.31428L6.22228 5.31924C6.18371 5.35474 6.153 5.39748 6.13201 5.44484C6.11102 5.49221 6.1002 5.54321 6.1002 5.59476C6.1002 5.64631 6.11102 5.69731 6.13201 5.74468C6.153 5.79204 6.18371 5.83478 6.22228 5.87028L10.6973 10.001L6.22228 14.1301C6.18371 14.1656 6.153 14.2083 6.13201 14.2557C6.11102 14.3031 6.1002 14.3541 6.1002 14.4056C6.1002 14.4572 6.11102 14.5082 6.13201 14.5556C6.153 14.6029 6.18371 14.6457 6.22228 14.6812L6.2274 14.6861C6.30669 14.7593 6.41204 14.8002 6.52158 14.8002C6.63113 14.8002 6.73648 14.7593 6.81577 14.6861L11.5679 10.2993C11.6097 10.2607 11.643 10.2143 11.6657 10.1629C11.6885 10.1115 11.7002 10.0561 11.7002 10.0002C11.7002 9.94427 11.6885 9.88892 11.6657 9.83752C11.643 9.78611 11.6097 9.73971 11.5679 9.70113Z" fill="#FAFAFA"/>
</g>
<defs>
<clipPath id="clip0_359_595">
<rect width="113" height="21" fill="white" transform="translate(0.5)"/>
</clipPath>
</defs>
</svg>
