<svg width="14" height="8" viewBox="0 0 14 8" fill="none" xmlns="http://www.w3.org/2000/svg">
<g clip-path="url(#clip0_344_569)">
<path d="M12.873 0.897359C12.9742 0.991057 13.0312 1.11823 13.0314 1.25091C13.0316 1.38358 12.975 1.5109 12.8741 1.60487L6.98009 7.09281C6.92497 7.14425 6.85943 7.18507 6.78724 7.21292C6.71506 7.24078 6.63766 7.25512 6.55948 7.25512C6.4813 7.25512 6.4039 7.24078 6.33171 7.21292C6.25953 7.18507 6.19399 7.14425 6.13887 7.09281L0.247063 1.60487C0.195634 1.55864 0.154642 1.50338 0.126478 1.4423C0.0983132 1.38121 0.0835408 1.31554 0.083022 1.2491C0.0825031 1.18267 0.0962484 1.1168 0.123456 1.05535C0.150663 0.993892 0.190788 0.938081 0.241489 0.891169C0.29219 0.844257 0.352452 0.807184 0.418759 0.782112C0.485066 0.757041 0.55609 0.744473 0.627687 0.745143C0.699284 0.745812 0.770021 0.759705 0.83577 0.786011C0.901519 0.812317 0.960963 0.850509 1.01064 0.898359L6.55948 6.06708L12.1105 0.898359C12.2115 0.804424 12.3485 0.751548 12.4915 0.75136C12.6345 0.751173 12.7717 0.803688 12.873 0.897359Z" fill="black"/>
</g>
<defs>
<clipPath id="clip0_344_569">
<rect width="12.9484" height="6.51" fill="white" transform="translate(0.0830078 0.745117)"/>
</clipPath>
</defs>
</svg>
