<svg width="21" height="20" viewBox="0 0 21 20" fill="none" xmlns="http://www.w3.org/2000/svg">
<g clip-path="url(#clip0_359_603)">
<rect x="1" y="0.5" width="19" height="19" rx="9.5" stroke="white"/>
<path d="M9.78877 10.8927L11.7675 9.70437L9.78877 8.51606V10.8927ZM14.196 7.79119C14.2456 7.97735 14.2799 8.2269 14.3028 8.54378C14.3295 8.86067 14.3409 9.13398 14.3409 9.37164L14.3638 9.70437C14.3638 10.5718 14.3028 11.2096 14.196 11.6175C14.1007 11.974 13.8796 12.2038 13.5365 12.3028C13.3573 12.3543 13.0294 12.39 12.5261 12.4137C12.0305 12.4414 11.5768 12.4533 11.1575 12.4533L10.5513 12.4771C8.95383 12.4771 7.95877 12.4137 7.56608 12.3028C7.22296 12.2038 7.00183 11.974 6.90652 11.6175C6.85696 11.4314 6.82264 11.1818 6.79977 10.865C6.77308 10.5481 6.76164 10.2748 6.76164 10.0371L6.73877 9.70437C6.73877 8.8369 6.79977 8.19917 6.90652 7.79119C7.00183 7.43469 7.22296 7.20495 7.56608 7.10593C7.74527 7.05443 8.07314 7.01878 8.57639 6.99502C9.07202 6.96729 9.52571 6.95541 9.94508 6.95541L10.5513 6.93164C12.1487 6.93164 13.1438 6.99502 13.5365 7.10593C13.8796 7.20495 14.1007 7.43469 14.196 7.79119Z" fill="white"/>
</g>
<defs>
<clipPath id="clip0_359_603">
<rect width="20" height="20" fill="white" transform="translate(0.5)"/>
</clipPath>
</defs>
</svg>
