<svg width="18" height="18" viewBox="0 0 18 18" fill="none" xmlns="http://www.w3.org/2000/svg">
<g clip-path="url(#clip0_342_564)">
<rect x="0.5" y="0.5" width="17" height="17" rx="8.5" stroke="white"/>
<path d="M8.1 10.8L10.4355 9.45005L8.1 8.10005V10.8ZM13.302 7.27655C13.3605 7.48805 13.401 7.77155 13.428 8.13155C13.4595 8.49155 13.473 8.80205 13.473 9.07205L13.5 9.45005C13.5 10.4355 13.428 11.16 13.302 11.6235C13.1895 12.0285 12.9285 12.2895 12.5235 12.402C12.312 12.4605 11.925 12.501 11.331 12.528C10.746 12.5595 10.2105 12.573 9.7155 12.573L9 12.6C7.1145 12.6 5.94 12.528 5.4765 12.402C5.0715 12.2895 4.8105 12.0285 4.698 11.6235C4.6395 11.412 4.599 11.1285 4.572 10.7685C4.5405 10.4085 4.527 10.098 4.527 9.82805L4.5 9.45005C4.5 8.46455 4.572 7.74005 4.698 7.27655C4.8105 6.87155 5.0715 6.61055 5.4765 6.49805C5.688 6.43955 6.075 6.39905 6.669 6.37205C7.254 6.34055 7.7895 6.32705 8.2845 6.32705L9 6.30005C10.8855 6.30005 12.06 6.37205 12.5235 6.49805C12.9285 6.61055 13.1895 6.87155 13.302 7.27655Z" fill="white"/>
</g>
<defs>
<clipPath id="clip0_342_564">
<rect width="18" height="18" fill="white"/>
</clipPath>
</defs>
</svg>
