<svg width="18" height="18" viewBox="0 0 18 18" fill="none" xmlns="http://www.w3.org/2000/svg">
<g clip-path="url(#clip0_344_572)">
<path d="M8.99316 0C4.04316 0 -0.00683594 4.05 -0.00683594 9C-0.00683594 13.95 4.04316 18 8.99316 18C13.9432 18 17.9932 13.95 17.9932 9C17.9932 4.05 13.9432 0 8.99316 0ZM8.99316 4.5C10.5232 4.5 11.6932 5.67 11.6932 7.2C11.6932 8.73 10.5232 9.9 8.99316 9.9C7.46316 9.9 6.29316 8.73 6.29316 7.2C6.29316 5.67 7.46316 4.5 8.99316 4.5ZM8.99316 16.2C7.01316 16.2 5.12316 15.39 3.77316 13.95C5.75316 11.07 9.62316 10.35 12.5032 12.33C13.1332 12.78 13.6732 13.32 14.1232 13.95C12.8632 15.39 10.9732 16.2 8.99316 16.2Z" fill="#0D4929"/>
</g>
<defs>
<clipPath id="clip0_344_572">
<rect width="18" height="18" fill="white" transform="translate(-0.00683594)"/>
</clipPath>
</defs>
</svg>
