<svg width="85" height="21" viewBox="0 0 85 21" fill="none" xmlns="http://www.w3.org/2000/svg">
<g clip-path="url(#clip0_359_594)">
<path d="M29.346 12.83H25.09L24.306 15H22.962L26.49 5.298H27.96L31.474 15H30.13L29.346 12.83ZM28.982 11.794L27.218 6.866L25.454 11.794H28.982ZM34.2856 8.756C34.5469 8.29867 34.9296 7.92533 35.4336 7.636C35.9376 7.34667 36.5116 7.202 37.1556 7.202C37.8463 7.202 38.4669 7.36533 39.0176 7.692C39.5683 8.01867 40.0023 8.48067 40.3196 9.078C40.6369 9.666 40.7956 10.352 40.7956 11.136C40.7956 11.9107 40.6369 12.6013 40.3196 13.208C40.0023 13.8147 39.5636 14.286 39.0036 14.622C38.4529 14.958 37.8369 15.126 37.1556 15.126C36.4929 15.126 35.9096 14.9813 35.4056 14.692C34.9109 14.4027 34.5376 14.034 34.2856 13.586V15H33.0116V4.64H34.2856V8.756ZM39.4936 11.136C39.4936 10.5573 39.3769 10.0533 39.1436 9.624C38.9103 9.19467 38.5929 8.868 38.1916 8.644C37.7996 8.42 37.3656 8.308 36.8896 8.308C36.4229 8.308 35.9889 8.42467 35.5876 8.658C35.1956 8.882 34.8783 9.21333 34.6356 9.652C34.4023 10.0813 34.2856 10.5807 34.2856 11.15C34.2856 11.7287 34.4023 12.2373 34.6356 12.676C34.8783 13.1053 35.1956 13.4367 35.5876 13.67C35.9889 13.894 36.4229 14.006 36.8896 14.006C37.3656 14.006 37.7996 13.894 38.1916 13.67C38.5929 13.4367 38.9103 13.1053 39.1436 12.676C39.3769 12.2373 39.4936 11.724 39.4936 11.136ZM45.8185 15.126C45.0999 15.126 44.4465 14.9627 43.8585 14.636C43.2799 14.3093 42.8225 13.8473 42.4865 13.25C42.1599 12.6433 41.9965 11.9433 41.9965 11.15C41.9965 10.366 42.1645 9.67533 42.5005 9.078C42.8459 8.47133 43.3125 8.00933 43.9005 7.692C44.4885 7.36533 45.1465 7.202 45.8745 7.202C46.6025 7.202 47.2605 7.36533 47.8485 7.692C48.4365 8.00933 48.8985 8.46667 49.2345 9.064C49.5799 9.66133 49.7525 10.3567 49.7525 11.15C49.7525 11.9433 49.5752 12.6433 49.2205 13.25C48.8752 13.8473 48.4039 14.3093 47.8065 14.636C47.2092 14.9627 46.5465 15.126 45.8185 15.126ZM45.8185 14.006C46.2759 14.006 46.7052 13.8987 47.1065 13.684C47.5079 13.4693 47.8299 13.1473 48.0725 12.718C48.3245 12.2887 48.4505 11.766 48.4505 11.15C48.4505 10.534 48.3292 10.0113 48.0865 9.582C47.8439 9.15267 47.5265 8.83533 47.1345 8.63C46.7425 8.41533 46.3179 8.308 45.8605 8.308C45.3939 8.308 44.9645 8.41533 44.5725 8.63C44.1899 8.83533 43.8819 9.15267 43.6485 9.582C43.4152 10.0113 43.2985 10.534 43.2985 11.15C43.2985 11.7753 43.4105 12.3027 43.6345 12.732C43.8679 13.1613 44.1759 13.4833 44.5585 13.698C44.9412 13.9033 45.3612 14.006 45.8185 14.006ZM58.2316 7.328V15H56.9576V13.866C56.7149 14.258 56.3743 14.566 55.9356 14.79C55.5063 15.0047 55.0303 15.112 54.5076 15.112C53.9103 15.112 53.3736 14.9907 52.8976 14.748C52.4216 14.496 52.0436 14.1227 51.7636 13.628C51.4929 13.1333 51.3576 12.5313 51.3576 11.822V7.328H52.6176V11.654C52.6176 12.41 52.8089 12.9933 53.1916 13.404C53.5743 13.8053 54.0969 14.006 54.7596 14.006C55.4409 14.006 55.9776 13.796 56.3696 13.376C56.7616 12.956 56.9576 12.3447 56.9576 11.542V7.328H58.2316ZM61.9367 8.378V12.9C61.9367 13.2733 62.016 13.5393 62.1747 13.698C62.3334 13.8473 62.6087 13.922 63.0007 13.922H63.9387V15H62.7907C62.0814 15 61.5494 14.8367 61.1947 14.51C60.84 14.1833 60.6627 13.6467 60.6627 12.9V8.378H59.6687V7.328H60.6627V5.396H61.9367V7.328H63.9387V8.378H61.9367ZM76.0187 7.328V15H74.7447V13.866C74.5021 14.258 74.1614 14.566 73.7227 14.79C73.2934 15.0047 72.8174 15.112 72.2947 15.112C71.6974 15.112 71.1607 14.9907 70.6847 14.748C70.2087 14.496 69.8307 14.1227 69.5507 13.628C69.2801 13.1333 69.1447 12.5313 69.1447 11.822V7.328H70.4047V11.654C70.4047 12.41 70.5961 12.9933 70.9787 13.404C71.3614 13.8053 71.8841 14.006 72.5467 14.006C73.2281 14.006 73.7647 13.796 74.1567 13.376C74.5487 12.956 74.7447 12.3447 74.7447 11.542V7.328H76.0187ZM80.8858 15.126C80.2978 15.126 79.7705 15.028 79.3038 14.832C78.8371 14.6267 78.4685 14.3467 78.1978 13.992C77.9271 13.628 77.7778 13.2127 77.7498 12.746H79.0658C79.1031 13.1287 79.2805 13.4413 79.5978 13.684C79.9245 13.9267 80.3491 14.048 80.8718 14.048C81.3571 14.048 81.7398 13.9407 82.0198 13.726C82.2998 13.5113 82.4398 13.2407 82.4398 12.914C82.4398 12.578 82.2905 12.3307 81.9918 12.172C81.6931 12.004 81.2311 11.8407 80.6058 11.682C80.0365 11.5327 79.5698 11.3833 79.2058 11.234C78.8511 11.0753 78.5431 10.8467 78.2818 10.548C78.0298 10.24 77.9038 9.83867 77.9038 9.344C77.9038 8.952 78.0205 8.59267 78.2538 8.266C78.4871 7.93933 78.8185 7.68267 79.2478 7.496C79.6771 7.3 80.1671 7.202 80.7178 7.202C81.5671 7.202 82.2531 7.41667 82.7758 7.846C83.2985 8.27533 83.5785 8.86333 83.6158 9.61H82.3418C82.3138 9.20867 82.1505 8.88667 81.8518 8.644C81.5625 8.40133 81.1705 8.28 80.6758 8.28C80.2185 8.28 79.8545 8.378 79.5838 8.574C79.3131 8.77 79.1778 9.02667 79.1778 9.344C79.1778 9.596 79.2571 9.806 79.4158 9.974C79.5838 10.1327 79.7891 10.2633 80.0318 10.366C80.2838 10.4593 80.6291 10.5667 81.0678 10.688C81.6185 10.8373 82.0665 10.9867 82.4118 11.136C82.7571 11.276 83.0511 11.4907 83.2938 11.78C83.5458 12.0693 83.6765 12.4473 83.6858 12.914C83.6858 13.334 83.5691 13.712 83.3358 14.048C83.1025 14.384 82.7711 14.65 82.3418 14.846C81.9218 15.0327 81.4365 15.126 80.8858 15.126Z" fill="#FAFAFA"/>
<path d="M11.5679 9.70113L6.81577 5.31428C6.73648 5.24105 6.63113 5.2002 6.52158 5.2002C6.41204 5.2002 6.30669 5.24105 6.2274 5.31428L6.22228 5.31924C6.18371 5.35474 6.153 5.39748 6.13201 5.44484C6.11102 5.49221 6.1002 5.54321 6.1002 5.59476C6.1002 5.64631 6.11102 5.69731 6.13201 5.74468C6.153 5.79204 6.18371 5.83478 6.22228 5.87028L10.6973 10.001L6.22228 14.1301C6.18371 14.1656 6.153 14.2083 6.13201 14.2557C6.11102 14.3031 6.1002 14.3541 6.1002 14.4056C6.1002 14.4572 6.11102 14.5082 6.13201 14.5556C6.153 14.6029 6.18371 14.6457 6.22228 14.6812L6.2274 14.6861C6.30669 14.7593 6.41204 14.8002 6.52158 14.8002C6.63113 14.8002 6.73648 14.7593 6.81577 14.6861L11.5679 10.2993C11.6097 10.2607 11.643 10.2143 11.6657 10.1629C11.6885 10.1115 11.7002 10.0561 11.7002 10.0002C11.7002 9.94427 11.6885 9.88892 11.6657 9.83752C11.643 9.78611 11.6097 9.73971 11.5679 9.70113Z" fill="#FAFAFA"/>
</g>
<defs>
<clipPath id="clip0_359_594">
<rect width="84" height="21" fill="white" transform="translate(0.5)"/>
</clipPath>
</defs>
</svg>
