<svg width="32" height="32" viewBox="0 0 32 32" fill="none" xmlns="http://www.w3.org/2000/svg">
<g clip-path="url(#clip0_357_580)">
<path d="M26.9998 16.7599V15.2299L28.9198 13.5499C29.2737 13.238 29.5059 12.8109 29.5755 12.3443C29.645 11.8777 29.5474 11.4015 29.2998 10.9999L26.9398 6.99992C26.7644 6.69618 26.5122 6.4439 26.2086 6.26838C25.905 6.09286 25.5605 6.00028 25.2098 5.99992C24.9924 5.99825 24.7762 6.03203 24.5698 6.09992L22.1398 6.91992C21.7208 6.64022 21.2831 6.38963 20.8298 6.16992L20.3198 3.64992C20.2283 3.18952 19.9779 2.77596 19.6122 2.48162C19.2466 2.18728 18.7891 2.03092 18.3198 2.03992H13.6398C13.1705 2.03092 12.7129 2.18728 12.3473 2.48162C11.9817 2.77596 11.7312 3.18952 11.6398 3.64992L11.1298 6.16992C10.6737 6.39057 10.2328 6.64112 9.80976 6.91992L7.42976 6.05992C7.22106 6.00554 7.00494 5.98528 6.78976 5.99992C6.43904 6.00028 6.09457 6.09286 5.79093 6.26838C5.48728 6.4439 5.23513 6.69618 5.05976 6.99992L2.69976 10.9999C2.46635 11.4009 2.37962 11.8706 2.45441 12.3285C2.52921 12.7864 2.76089 13.204 3.10976 13.5099L4.99976 15.2399V16.7699L3.10976 18.4499C2.75103 18.7579 2.51302 19.183 2.43796 19.6499C2.36291 20.1167 2.45566 20.595 2.69976 20.9999L5.05976 24.9999C5.23513 25.3037 5.48728 25.5559 5.79093 25.7315C6.09457 25.907 6.43904 25.9996 6.78976 25.9999C7.00711 26.0016 7.22328 25.9678 7.42976 25.8999L9.85976 25.0799C10.2787 25.3596 10.7164 25.6102 11.1698 25.8299L11.6798 28.3499C11.7712 28.8103 12.0217 29.2239 12.3873 29.5182C12.7529 29.8126 13.2105 29.9689 13.6798 29.9599H18.3998C18.8691 29.9689 19.3266 29.8126 19.6922 29.5182C20.0579 29.2239 20.3083 28.8103 20.3998 28.3499L20.9098 25.8299C21.3658 25.6093 21.8068 25.3587 22.2298 25.0799L24.6498 25.8999C24.8562 25.9678 25.0724 26.0016 25.2898 25.9999C25.6405 25.9996 25.985 25.907 26.2886 25.7315C26.5922 25.5559 26.8444 25.3037 27.0198 24.9999L29.2998 20.9999C29.5332 20.5989 29.6199 20.1293 29.5451 19.6714C29.4703 19.2134 29.2386 18.7958 28.8898 18.4899L26.9998 16.7599ZM25.2098 23.9999L21.7798 22.8399C20.9763 23.5193 20.0588 24.0509 19.0698 24.4099L18.3598 27.9999H13.6398L12.9298 24.4499C11.9485 24.0808 11.0359 23.5502 10.2298 22.8799L6.78976 23.9999L4.42976 19.9999L7.14976 17.5999C6.96486 16.5648 6.96486 15.5051 7.14976 14.4699L4.42976 11.9999L6.78976 7.99992L10.2198 9.15992C11.0232 8.48051 11.9407 7.94895 12.9298 7.58992L13.6398 3.99992H18.3598L19.0698 7.54992C20.051 7.91903 20.9636 8.44968 21.7698 9.11992L25.2098 7.99992L27.5698 11.9999L24.8498 14.3999C25.0347 15.4351 25.0347 16.4948 24.8498 17.5299L27.5698 19.9999L25.2098 23.9999Z" fill="#0D4929"/>
<path d="M16 22C14.8133 22 13.6533 21.6481 12.6666 20.9888C11.6799 20.3295 10.9109 19.3925 10.4567 18.2961C10.0026 17.1997 9.88378 15.9933 10.1153 14.8295C10.3468 13.6656 10.9182 12.5965 11.7574 11.7574C12.5965 10.9182 13.6656 10.3468 14.8295 10.1153C15.9933 9.88378 17.1997 10.0026 18.2961 10.4567C19.3925 10.9109 20.3295 11.6799 20.9888 12.6666C21.6481 13.6533 22 14.8133 22 16C22.008 16.7902 21.8583 17.574 21.5596 18.3056C21.2609 19.0371 20.8193 19.7018 20.2605 20.2605C19.7018 20.8193 19.0371 21.2609 18.3056 21.5596C17.574 21.8583 16.7902 22.008 16 22ZM16 12C15.4713 11.9877 14.9457 12.0827 14.4548 12.2794C13.9639 12.4761 13.5181 12.7702 13.1442 13.1442C12.7702 13.5181 12.4761 13.9639 12.2794 14.4548C12.0827 14.9457 11.9877 15.4713 12 16C11.9877 16.5287 12.0827 17.0543 12.2794 17.5452C12.4761 18.0361 12.7702 18.4819 13.1442 18.8559C13.5181 19.2298 13.9639 19.524 14.4548 19.7206C14.9457 19.9173 15.4713 20.0123 16 20C16.5287 20.0123 17.0543 19.9173 17.5452 19.7206C18.0361 19.524 18.4819 19.2298 18.8559 18.8559C19.2298 18.4819 19.524 18.0361 19.7206 17.5452C19.9173 17.0543 20.0123 16.5287 20 16C20.0123 15.4713 19.9173 14.9457 19.7206 14.4548C19.524 13.9639 19.2298 13.5181 18.8559 13.1442C18.4819 12.7702 18.0361 12.4761 17.5452 12.2794C17.0543 12.0827 16.5287 11.9877 16 12Z" fill="#0D4929"/>
</g>
<defs>
<clipPath id="clip0_357_580">
<rect width="32" height="32" fill="white"/>
</clipPath>
</defs>
</svg>
