<svg width="12" height="12" viewBox="0 0 12 12" fill="none" xmlns="http://www.w3.org/2000/svg">
<g clip-path="url(#clip0_342_559)">
<path d="M9.375 4.875C9.375 3.97989 9.01942 3.12145 8.38649 2.48851C7.75355 1.85558 6.89511 1.5 6 1.5C5.10489 1.5 4.24645 1.85558 3.61351 2.48851C2.98058 3.12145 2.625 3.97989 2.625 4.875C2.625 6.2595 3.73275 8.064 6 10.2255C8.26725 8.064 9.375 6.2595 9.375 4.875ZM6 11.25C3.24975 8.75025 1.875 6.62475 1.875 4.875C1.875 3.78098 2.3096 2.73177 3.08318 1.95818C3.85677 1.1846 4.90598 0.75 6 0.75C7.09402 0.75 8.14323 1.1846 8.91682 1.95818C9.6904 2.73177 10.125 3.78098 10.125 4.875C10.125 6.62475 8.75025 8.75025 6 11.25Z" fill="white"/>
<path d="M6 6C6.29837 6 6.58452 5.88147 6.7955 5.6705C7.00647 5.45952 7.125 5.17337 7.125 4.875C7.125 4.57663 7.00647 4.29048 6.7955 4.0795C6.58452 3.86853 6.29837 3.75 6 3.75C5.70163 3.75 5.41548 3.86853 5.2045 4.0795C4.99353 4.29048 4.875 4.57663 4.875 4.875C4.875 5.17337 4.99353 5.45952 5.2045 5.6705C5.41548 5.88147 5.70163 6 6 6ZM6 6.75C5.50272 6.75 5.02581 6.55246 4.67417 6.20083C4.32254 5.84919 4.125 5.37228 4.125 4.875C4.125 4.37772 4.32254 3.90081 4.67417 3.54917C5.02581 3.19754 5.50272 3 6 3C6.49728 3 6.97419 3.19754 7.32583 3.54917C7.67746 3.90081 7.875 4.37772 7.875 4.875C7.875 5.37228 7.67746 5.84919 7.32583 6.20083C6.97419 6.55246 6.49728 6.75 6 6.75Z" fill="white"/>
</g>
<defs>
<clipPath id="clip0_342_559">
<rect width="12" height="12" fill="white"/>
</clipPath>
</defs>
</svg>
