<svg width="1208" height="116" viewBox="0 0 1208 116" fill="none" xmlns="http://www.w3.org/2000/svg">
<g clip-path="url(#clip0_358_592)">
<path d="M91.7709 44.5H88.6109V25.54L84.0109 27.7L82.6109 25.18L89.6509 21.86H91.7709V44.5ZM95.9919 33.02C95.9919 30.7533 96.4452 28.7533 97.3519 27.02C98.2585 25.26 99.4985 23.8733 101.072 22.86C102.672 21.8467 104.499 21.34 106.552 21.34C108.605 21.34 110.419 21.8467 111.992 22.86C113.592 23.8467 114.832 25.22 115.712 26.98C116.619 28.7133 117.072 30.7 117.072 32.94C117.072 35.2867 116.619 37.3667 115.712 39.18C114.832 40.9933 113.592 42.42 111.992 43.46C110.392 44.5 108.579 45.02 106.552 45.02C104.499 45.02 102.672 44.5133 101.072 43.5C99.4985 42.46 98.2585 41.0333 97.3519 39.22C96.4452 37.4067 95.9919 35.34 95.9919 33.02ZM99.1119 32.9C99.1119 34.7133 99.4319 36.3267 100.072 37.74C100.712 39.1533 101.592 40.2733 102.712 41.1C103.832 41.9 105.112 42.3 106.552 42.3C107.992 42.3 109.259 41.9133 110.352 41.14C111.472 40.34 112.352 39.2467 112.992 37.86C113.632 36.4733 113.952 34.8867 113.952 33.1C113.952 31.34 113.632 29.78 112.992 28.42C112.352 27.06 111.472 25.9933 110.352 25.22C109.259 24.42 107.992 24.02 106.552 24.02C105.112 24.02 103.832 24.4067 102.712 25.18C101.592 25.9533 100.712 27.0067 100.072 28.34C99.4319 29.6467 99.1119 31.1667 99.1119 32.9ZM138.184 32.3L138.584 34.82H130.544V44.34L127.624 44.18V34.82H119.864L119.544 32.3H127.624V23.14L130.544 23.26V32.3H138.184Z" fill="#010101"/>
<path d="M0.535156 82.5H3.27734L7.45703 89.7734H7.62891L11.8086 82.5H14.5508L8.74609 92.2187V98.5H6.33984V92.2187L0.535156 82.5ZM17.9301 98.5V82.5H27.9613V84.5781H20.3441V89.4531H27.4379V91.5234H20.3441V96.4219H28.0551V98.5H17.9301ZM33.6375 98.5H31.075L36.8328 82.5H39.6219L45.3797 98.5H42.8172L38.2938 85.4062H38.1688L33.6375 98.5ZM34.0672 92.2344H42.3797V94.2656H34.0672V92.2344ZM48.7902 98.5V82.5H54.4934C55.7329 82.5 56.7616 82.7135 57.5793 83.1406C58.4022 83.5677 59.0168 84.1589 59.423 84.9141C59.8293 85.6641 60.0324 86.5312 60.0324 87.5156C60.0324 88.4948 59.8267 89.3568 59.4152 90.1016C59.009 90.8411 58.3944 91.4167 57.5715 91.8281C56.7538 92.2396 55.7251 92.4453 54.4855 92.4453H50.1652V90.3672H54.2668C55.048 90.3672 55.6835 90.2552 56.173 90.0312C56.6678 89.8073 57.0298 89.4818 57.259 89.0547C57.4882 88.6276 57.6027 88.1146 57.6027 87.5156C57.6027 86.9115 57.4855 86.388 57.2512 85.9453C57.022 85.5026 56.66 85.1641 56.1652 84.9297C55.6757 84.6901 55.0324 84.5703 54.2355 84.5703H51.2043V98.5H48.7902ZM56.6887 91.2812L60.6418 98.5H57.8918L54.0168 91.2812H56.6887ZM72.7965 86.7031C72.7132 85.9635 72.3694 85.3906 71.7652 84.9844C71.1611 84.5729 70.4007 84.3672 69.484 84.3672C68.8277 84.3672 68.26 84.4714 67.7809 84.6797C67.3017 84.8828 66.9293 85.1641 66.6637 85.5234C66.4033 85.8776 66.273 86.2812 66.273 86.7344C66.273 87.1146 66.3616 87.4427 66.5387 87.7187C66.721 87.9948 66.9579 88.2266 67.2496 88.4141C67.5465 88.5964 67.8642 88.75 68.2027 88.875C68.5413 88.9948 68.8668 89.0937 69.1793 89.1719L70.7418 89.5781C71.2522 89.7031 71.7757 89.8724 72.3121 90.0859C72.8486 90.2995 73.346 90.5807 73.8043 90.9297C74.2626 91.2786 74.6324 91.7109 74.9137 92.2266C75.2001 92.7422 75.3434 93.3594 75.3434 94.0781C75.3434 94.9844 75.109 95.7891 74.6402 96.4922C74.1767 97.1953 73.5022 97.75 72.6168 98.1562C71.7366 98.5625 70.6715 98.7656 69.4215 98.7656C68.2236 98.7656 67.1871 98.5755 66.3121 98.1953C65.4371 97.8151 64.7522 97.276 64.2574 96.5781C63.7626 95.875 63.4892 95.0417 63.4371 94.0781H65.859C65.9059 94.6562 66.0934 95.138 66.4215 95.5234C66.7548 95.9036 67.1793 96.1875 67.6949 96.375C68.2158 96.5573 68.7861 96.6484 69.4059 96.6484C70.0882 96.6484 70.6949 96.5417 71.2262 96.3281C71.7626 96.1094 72.1845 95.8073 72.4918 95.4219C72.7991 95.0312 72.9527 94.5755 72.9527 94.0547C72.9527 93.5807 72.8173 93.1927 72.5465 92.8906C72.2809 92.5885 71.9189 92.3385 71.4605 92.1406C71.0074 91.9427 70.4944 91.7682 69.9215 91.6172L68.0309 91.1016C66.7496 90.7526 65.734 90.2396 64.984 89.5625C64.2392 88.8854 63.8668 87.9896 63.8668 86.875C63.8668 85.9531 64.1168 85.1484 64.6168 84.4609C65.1168 83.7734 65.7939 83.2396 66.648 82.8594C67.5022 82.474 68.4658 82.2812 69.5387 82.2812C70.622 82.2812 71.5777 82.4714 72.4059 82.8516C73.2392 83.2318 73.8954 83.7552 74.3746 84.4219C74.8538 85.0833 75.1038 85.8437 75.1246 86.7031H72.7965ZM100.149 90.5C100.149 92.2083 99.8363 93.6771 99.2113 94.9062C98.5863 96.1302 97.7296 97.0729 96.641 97.7344C95.5577 98.3906 94.3259 98.7187 92.9457 98.7187C91.5603 98.7187 90.3233 98.3906 89.2348 97.7344C88.1514 97.0729 87.2973 96.1276 86.6723 94.8984C86.0473 93.6693 85.7348 92.2031 85.7348 90.5C85.7348 88.7917 86.0473 87.3255 86.6723 86.1016C87.2973 84.8724 88.1514 83.9297 89.2348 83.2734C90.3233 82.612 91.5603 82.2812 92.9457 82.2812C94.3259 82.2812 95.5577 82.612 96.641 83.2734C97.7296 83.9297 98.5863 84.8724 99.2113 86.1016C99.8363 87.3255 100.149 88.7917 100.149 90.5ZM97.7582 90.5C97.7582 89.1979 97.5473 88.1016 97.1254 87.2109C96.7087 86.3151 96.1358 85.638 95.4066 85.1797C94.6827 84.7161 93.8624 84.4844 92.9457 84.4844C92.0238 84.4844 91.2009 84.7161 90.477 85.1797C89.753 85.638 89.1801 86.3151 88.7582 87.2109C88.3415 88.1016 88.1332 89.1979 88.1332 90.5C88.1332 91.8021 88.3415 92.901 88.7582 93.7969C89.1801 94.6875 89.753 95.3646 90.477 95.8281C91.2009 96.2865 92.0238 96.5156 92.9457 96.5156C93.8624 96.5156 94.6827 96.2865 95.4066 95.8281C96.1358 95.3646 96.7087 94.6875 97.1254 93.7969C97.5473 92.901 97.7582 91.8021 97.7582 90.5ZM104.259 98.5V82.5H114.18V84.5781H106.673V89.4531H113.47V91.5234H106.673V98.5H104.259ZM133.898 86.7031C133.815 85.9635 133.471 85.3906 132.867 84.9844C132.263 84.5729 131.502 84.3672 130.586 84.3672C129.929 84.3672 129.362 84.4714 128.882 84.6797C128.403 84.8828 128.031 85.1641 127.765 85.5234C127.505 85.8776 127.375 86.2812 127.375 86.7344C127.375 87.1146 127.463 87.4427 127.64 87.7187C127.823 87.9948 128.06 88.2266 128.351 88.4141C128.648 88.5964 128.966 88.75 129.304 88.875C129.643 88.9948 129.968 89.0937 130.281 89.1719L131.843 89.5781C132.354 89.7031 132.877 89.8724 133.414 90.0859C133.95 90.2995 134.448 90.5807 134.906 90.9297C135.364 91.2786 135.734 91.7109 136.015 92.2266C136.302 92.7422 136.445 93.3594 136.445 94.0781C136.445 94.9844 136.211 95.7891 135.742 96.4922C135.278 97.1953 134.604 97.75 133.718 98.1562C132.838 98.5625 131.773 98.7656 130.523 98.7656C129.325 98.7656 128.289 98.5755 127.414 98.1953C126.539 97.8151 125.854 97.276 125.359 96.5781C124.864 95.875 124.591 95.0417 124.539 94.0781H126.961C127.007 94.6562 127.195 95.138 127.523 95.5234C127.856 95.9036 128.281 96.1875 128.796 96.375C129.317 96.5573 129.888 96.6484 130.507 96.6484C131.19 96.6484 131.796 96.5417 132.328 96.3281C132.864 96.1094 133.286 95.8073 133.593 95.4219C133.901 95.0312 134.054 94.5755 134.054 94.0547C134.054 93.5807 133.919 93.1927 133.648 92.8906C133.382 92.5885 133.02 92.3385 132.562 92.1406C132.109 91.9427 131.596 91.7682 131.023 91.6172L129.132 91.1016C127.851 90.7526 126.836 90.2396 126.086 89.5625C125.341 88.8854 124.968 87.9896 124.968 86.875C124.968 85.9531 125.218 85.1484 125.718 84.4609C126.218 83.7734 126.895 83.2396 127.75 82.8594C128.604 82.474 129.567 82.2812 130.64 82.2812C131.724 82.2812 132.679 82.4714 133.507 82.8516C134.341 83.2318 134.997 83.7552 135.476 84.4219C135.955 85.0833 136.205 85.8437 136.226 86.7031H133.898ZM140.43 98.5V82.5H150.461V84.5781H142.844V89.4531H149.938V91.5234H142.844V96.4219H150.555V98.5H140.43ZM154.786 98.5V82.5H160.489C161.728 82.5 162.757 82.7135 163.575 83.1406C164.398 83.5677 165.012 84.1589 165.418 84.9141C165.825 85.6641 166.028 86.5312 166.028 87.5156C166.028 88.4948 165.822 89.3568 165.411 90.1016C165.004 90.8411 164.39 91.4167 163.567 91.8281C162.749 92.2396 161.72 92.4453 160.481 92.4453H156.161V90.3672H160.262C161.043 90.3672 161.679 90.2552 162.168 90.0312C162.663 89.8073 163.025 89.4818 163.254 89.0547C163.483 88.6276 163.598 88.1146 163.598 87.5156C163.598 86.9115 163.481 86.388 163.246 85.9453C163.017 85.5026 162.655 85.1641 162.161 84.9297C161.671 84.6901 161.028 84.5703 160.231 84.5703H157.2V98.5H154.786ZM162.684 91.2812L166.637 98.5H163.887L160.012 91.2812H162.684ZM171.077 82.5L175.53 95.5312H175.71L180.163 82.5H182.772L177.014 98.5H174.225L168.468 82.5H171.077ZM188.597 82.5V98.5H186.183V82.5H188.597ZM206.502 87.7031H204.064C203.97 87.1823 203.796 86.724 203.541 86.3281C203.285 85.9323 202.973 85.5964 202.603 85.3203C202.233 85.0443 201.819 84.8359 201.361 84.6953C200.908 84.5547 200.426 84.4844 199.916 84.4844C198.994 84.4844 198.168 84.7161 197.439 85.1797C196.715 85.6432 196.142 86.3229 195.72 87.2187C195.304 88.1146 195.095 89.2083 195.095 90.5C195.095 91.8021 195.304 92.901 195.72 93.7969C196.142 94.6927 196.718 95.3698 197.447 95.8281C198.176 96.2865 198.996 96.5156 199.908 96.5156C200.413 96.5156 200.892 96.4479 201.345 96.3125C201.804 96.1719 202.218 95.9661 202.587 95.6953C202.957 95.4245 203.27 95.0937 203.525 94.7031C203.785 94.3073 203.965 93.8542 204.064 93.3438L206.502 93.3516C206.371 94.138 206.119 94.862 205.744 95.5234C205.374 96.1797 204.897 96.7474 204.314 97.2266C203.736 97.7005 203.074 98.0677 202.33 98.3281C201.585 98.5885 200.772 98.7187 199.892 98.7187C198.507 98.7187 197.272 98.3906 196.189 97.7344C195.106 97.0729 194.252 96.1276 193.627 94.8984C193.007 93.6693 192.697 92.2031 192.697 90.5C192.697 88.7917 193.009 87.3255 193.634 86.1016C194.259 84.8724 195.114 83.9297 196.197 83.2734C197.28 82.612 198.512 82.2812 199.892 82.2812C200.741 82.2812 201.533 82.4036 202.267 82.6484C203.007 82.888 203.671 83.2422 204.259 83.7109C204.848 84.1745 205.335 84.7422 205.72 85.4141C206.106 86.0807 206.366 86.8437 206.502 87.7031ZM210.49 98.5V82.5H220.521V84.5781H212.904V89.4531H219.998V91.5234H212.904V96.4219H220.615V98.5H210.49Z" fill="#454545"/>
<rect opacity="0.2" x="315" width="1" height="116" fill="#035946"/>
<path d="M425.806 44.5H422.646V25.54L418.046 27.7L416.646 25.18L423.686 21.86H425.806V44.5ZM438.267 44.5H435.107V25.54L430.507 27.7L429.107 25.18L436.147 21.86H438.267V44.5ZM449.928 21.34C451.635 21.34 453.101 21.6067 454.328 22.14C455.581 22.6467 456.555 23.38 457.248 24.34C457.941 25.3 458.288 26.4467 458.288 27.78C458.288 28.7667 458.088 29.74 457.688 30.7C457.288 31.66 456.648 32.6467 455.768 33.66C454.915 34.6733 453.768 35.7933 452.328 37.02L446.368 42.02H459.008L459.528 44.5H442.168V42.22L450.608 34.86C451.675 33.9533 452.541 33.14 453.208 32.42C453.875 31.7 454.368 30.9933 454.688 30.3C455.035 29.6067 455.208 28.8733 455.208 28.1C455.208 26.74 454.715 25.7133 453.728 25.02C452.768 24.3 451.488 23.94 449.888 23.94C448.928 23.94 448.061 24.06 447.288 24.3C446.515 24.5133 445.821 24.78 445.208 25.1C444.621 25.42 444.088 25.7133 443.608 25.98L442.688 23.42C443.435 22.9667 444.381 22.5133 445.528 22.06C446.701 21.58 448.168 21.34 449.928 21.34ZM480.149 32.3L480.549 34.82H472.509V44.34L469.589 44.18V34.82H461.829L461.509 32.3H469.589V23.14L472.509 23.26V32.3H480.149Z" fill="#010101"/>
<path d="M424.099 87.7031H421.661C421.568 87.1823 421.393 86.724 421.138 86.3281C420.883 85.9323 420.57 85.5964 420.2 85.3203C419.831 85.0443 419.417 84.8359 418.958 84.6953C418.505 84.5547 418.023 84.4844 417.513 84.4844C416.591 84.4844 415.765 84.7161 415.036 85.1797C414.312 85.6432 413.739 86.3229 413.318 87.2187C412.901 88.1146 412.693 89.2083 412.693 90.5C412.693 91.8021 412.901 92.901 413.318 93.7969C413.739 94.6927 414.315 95.3698 415.044 95.8281C415.773 96.2865 416.594 96.5156 417.505 96.5156C418.01 96.5156 418.489 96.4479 418.943 96.3125C419.401 96.1719 419.815 95.9661 420.185 95.6953C420.555 95.4245 420.867 95.0937 421.122 94.7031C421.383 94.3073 421.562 93.8542 421.661 93.3438L424.099 93.3516C423.969 94.138 423.716 94.862 423.341 95.5234C422.971 96.1797 422.495 96.7474 421.911 97.2266C421.333 97.7005 420.672 98.0677 419.927 98.3281C419.182 98.5885 418.37 98.7187 417.489 98.7187C416.104 98.7187 414.87 98.3906 413.786 97.7344C412.703 97.0729 411.849 96.1276 411.224 94.8984C410.604 93.6693 410.294 92.2031 410.294 90.5C410.294 88.7917 410.607 87.3255 411.232 86.1016C411.857 84.8724 412.711 83.9297 413.794 83.2734C414.877 82.612 416.109 82.2812 417.489 82.2812C418.338 82.2812 419.13 82.4036 419.864 82.6484C420.604 82.888 421.268 83.2422 421.857 83.7109C422.445 84.1745 422.932 84.7422 423.318 85.4141C423.703 86.0807 423.963 86.8437 424.099 87.7031ZM428.087 98.5V82.5H433.791C435.03 82.5 436.059 82.7135 436.877 83.1406C437.699 83.5677 438.314 84.1589 438.72 84.9141C439.127 85.6641 439.33 86.5312 439.33 87.5156C439.33 88.4948 439.124 89.3568 438.712 90.1016C438.306 90.8411 437.692 91.4167 436.869 91.8281C436.051 92.2396 435.022 92.4453 433.783 92.4453H429.462V90.3672H433.564C434.345 90.3672 434.981 90.2552 435.47 90.0312C435.965 89.8073 436.327 89.4818 436.556 89.0547C436.785 88.6276 436.9 88.1146 436.9 87.5156C436.9 86.9115 436.783 86.388 436.548 85.9453C436.319 85.5026 435.957 85.1641 435.462 84.9297C434.973 84.6901 434.33 84.5703 433.533 84.5703H430.502V98.5H428.087ZM435.986 91.2812L439.939 98.5H437.189L433.314 91.2812H435.986ZM457.266 90.5C457.266 92.2083 456.953 93.6771 456.328 94.9062C455.703 96.1302 454.846 97.0729 453.758 97.7344C452.674 98.3906 451.443 98.7187 450.063 98.7187C448.677 98.7187 447.44 98.3906 446.352 97.7344C445.268 97.0729 444.414 96.1276 443.789 94.8984C443.164 93.6693 442.852 92.2031 442.852 90.5C442.852 88.7917 443.164 87.3255 443.789 86.1016C444.414 84.8724 445.268 83.9297 446.352 83.2734C447.44 82.612 448.677 82.2812 450.063 82.2812C451.443 82.2812 452.674 82.612 453.758 83.2734C454.846 83.9297 455.703 84.8724 456.328 86.1016C456.953 87.3255 457.266 88.7917 457.266 90.5ZM454.875 90.5C454.875 89.1979 454.664 88.1016 454.242 87.2109C453.826 86.3151 453.253 85.638 452.523 85.1797C451.799 84.7161 450.979 84.4844 450.063 84.4844C449.141 84.4844 448.318 84.7161 447.594 85.1797C446.87 85.638 446.297 86.3151 445.875 87.2109C445.458 88.1016 445.25 89.1979 445.25 90.5C445.25 91.8021 445.458 92.901 445.875 93.7969C446.297 94.6875 446.87 95.3646 447.594 95.8281C448.318 96.2865 449.141 96.5156 450.063 96.5156C450.979 96.5156 451.799 96.2865 452.523 95.8281C453.253 95.3646 453.826 94.6875 454.242 93.7969C454.664 92.901 454.875 91.8021 454.875 90.5ZM461.375 98.5V82.5H467.079C468.323 82.5 469.355 82.7266 470.172 83.1797C470.99 83.6328 471.602 84.2526 472.008 85.0391C472.414 85.8203 472.618 86.7005 472.618 87.6797C472.618 88.6641 472.412 89.5495 472 90.3359C471.594 91.1172 470.98 91.737 470.157 92.1953C469.339 92.6484 468.31 92.875 467.071 92.875H463.149V90.8281H466.852C467.638 90.8281 468.276 90.6927 468.766 90.4219C469.256 90.1458 469.615 89.7708 469.844 89.2969C470.073 88.8229 470.188 88.2839 470.188 87.6797C470.188 87.0755 470.073 86.5391 469.844 86.0703C469.615 85.6016 469.253 85.2344 468.758 84.9688C468.269 84.7031 467.623 84.5703 466.821 84.5703H463.789V98.5H461.375ZM485.274 86.7031C485.191 85.9635 484.847 85.3906 484.243 84.9844C483.639 84.5729 482.878 84.3672 481.962 84.3672C481.305 84.3672 480.738 84.4714 480.259 84.6797C479.779 84.8828 479.407 85.1641 479.141 85.5234C478.881 85.8776 478.751 86.2812 478.751 86.7344C478.751 87.1146 478.839 87.4427 479.016 87.7187C479.199 87.9948 479.436 88.2266 479.727 88.4141C480.024 88.5964 480.342 88.75 480.68 88.875C481.019 88.9948 481.345 89.0937 481.657 89.1719L483.22 89.5781C483.73 89.7031 484.253 89.8724 484.79 90.0859C485.326 90.2995 485.824 90.5807 486.282 90.9297C486.74 91.2786 487.11 91.7109 487.391 92.2266C487.678 92.7422 487.821 93.3594 487.821 94.0781C487.821 94.9844 487.587 95.7891 487.118 96.4922C486.654 97.1953 485.98 97.75 485.095 98.1562C484.214 98.5625 483.149 98.7656 481.899 98.7656C480.701 98.7656 479.665 98.5755 478.79 98.1953C477.915 97.8151 477.23 97.276 476.735 96.5781C476.24 95.875 475.967 95.0417 475.915 94.0781H478.337C478.384 94.6562 478.571 95.138 478.899 95.5234C479.233 95.9036 479.657 96.1875 480.173 96.375C480.693 96.5573 481.264 96.6484 481.884 96.6484C482.566 96.6484 483.173 96.5417 483.704 96.3281C484.24 96.1094 484.662 95.8073 484.97 95.4219C485.277 95.0312 485.43 94.5755 485.43 94.0547C485.43 93.5807 485.295 93.1927 485.024 92.8906C484.759 92.5885 484.397 92.3385 483.938 92.1406C483.485 91.9427 482.972 91.7682 482.399 91.6172L480.509 91.1016C479.227 90.7526 478.212 90.2396 477.462 89.5625C476.717 88.8854 476.345 87.9896 476.345 86.875C476.345 85.9531 476.595 85.1484 477.095 84.4609C477.595 83.7734 478.272 83.2396 479.126 82.8594C479.98 82.474 480.943 82.2812 482.016 82.2812C483.1 82.2812 484.055 82.4714 484.884 82.8516C485.717 83.2318 486.373 83.7552 486.852 84.4219C487.332 85.0833 487.582 85.8437 487.602 86.7031H485.274Z" fill="#454545"/>
<rect opacity="0.2" x="582" width="1" height="116" fill="#035946"/>
<path d="M761.83 21.34C763.537 21.34 765.004 21.6067 766.23 22.14C767.484 22.6467 768.457 23.38 769.15 24.34C769.844 25.3 770.19 26.4467 770.19 27.78C770.19 28.7667 769.99 29.74 769.59 30.7C769.19 31.66 768.55 32.6467 767.67 33.66C766.817 34.6733 765.67 35.7933 764.23 37.02L758.27 42.02H770.91L771.43 44.5H754.07V42.22L762.51 34.86C763.577 33.9533 764.444 33.14 765.11 32.42C765.777 31.7 766.27 30.9933 766.59 30.3C766.937 29.6067 767.11 28.8733 767.11 28.1C767.11 26.74 766.617 25.7133 765.63 25.02C764.67 24.3 763.39 23.94 761.79 23.94C760.83 23.94 759.964 24.06 759.19 24.3C758.417 24.5133 757.724 24.78 757.11 25.1C756.524 25.42 755.99 25.7133 755.51 25.98L754.59 23.42C755.337 22.9667 756.284 22.5133 757.43 22.06C758.604 21.58 760.07 21.34 761.83 21.34ZM777.971 35.54H774.931L775.571 21.86H789.211L788.851 24.5H778.451L778.091 32.3C778.731 31.9 779.411 31.5933 780.131 31.38C780.851 31.14 781.558 31.02 782.251 31.02C784.224 31.02 785.824 31.3933 787.051 32.14C788.304 32.8867 789.224 33.8733 789.811 35.1C790.424 36.3267 790.731 37.6733 790.731 39.14C790.731 40.66 790.358 42.06 789.611 43.34C788.891 44.62 787.838 45.6333 786.451 46.38C785.064 47.1533 783.358 47.54 781.331 47.54C780.371 47.54 779.411 47.4333 778.451 47.22C777.518 47.0067 776.624 46.7267 775.771 46.38C774.944 46.0333 774.198 45.6867 773.531 45.34L775.131 43.14C776.091 43.7 777.038 44.14 777.971 44.46C778.931 44.7533 780.104 44.9 781.491 44.9C783.304 44.9 784.771 44.3933 785.891 43.38C787.011 42.34 787.571 40.9267 787.571 39.14C787.571 37.38 787.091 36.02 786.131 35.06C785.171 34.1 783.931 33.62 782.411 33.62C781.371 33.62 780.451 33.86 779.651 34.34C778.878 34.7933 778.318 35.1933 777.971 35.54ZM794.815 33.1C795.401 32.46 796.068 31.8333 796.815 31.22C797.561 30.6067 798.401 30.0867 799.335 29.66C800.295 29.2333 801.388 29.02 802.615 29.02C804.428 29.02 805.975 29.38 807.255 30.1C808.535 30.7933 809.508 31.74 810.175 32.94C810.841 34.1133 811.175 35.4333 811.175 36.9C811.175 38.4467 810.815 39.8333 810.095 41.06C809.375 42.2867 808.361 43.26 807.055 43.98C805.775 44.6733 804.321 45.02 802.695 45.02C800.935 45.02 799.348 44.6067 797.935 43.78C796.521 42.9533 795.401 41.74 794.575 40.14C793.775 38.54 793.375 36.58 793.375 34.26C793.375 32.42 793.655 30.7533 794.215 29.26C794.775 27.74 795.548 26.3933 796.535 25.22C797.548 24.0467 798.668 23.0333 799.895 22.18C801.148 21.3267 802.441 20.6467 803.775 20.14C805.135 19.6333 806.455 19.3 807.735 19.14L808.455 21.62C807.415 21.7267 806.335 21.9933 805.215 22.42C804.121 22.82 803.041 23.3533 801.975 24.02C800.935 24.66 800.001 25.4733 799.175 26.46C798.348 27.42 797.681 28.5133 797.175 29.74C796.695 30.9667 796.455 32.3533 796.455 33.9C796.455 35.7667 796.708 37.3267 797.215 38.58C797.721 39.8333 798.428 40.78 799.335 41.42C800.268 42.06 801.348 42.38 802.575 42.38C803.748 42.38 804.748 42.14 805.575 41.66C806.401 41.1533 807.041 40.5133 807.495 39.74C807.948 38.94 808.175 38.06 808.175 37.1C808.175 36.0067 807.948 35.0467 807.495 34.22C807.041 33.3667 806.401 32.7133 805.575 32.26C804.748 31.8067 803.748 31.58 802.575 31.58C801.641 31.58 800.735 31.7667 799.855 32.14C799.001 32.4867 798.215 32.9533 797.495 33.54C796.801 34.1267 796.188 34.74 795.655 35.38L794.815 33.1ZM832.324 32.3L832.724 34.82H824.684V44.34L821.764 44.18V34.82H814.004L813.684 32.3H821.764V23.14L824.684 23.26V32.3H832.324Z" fill="#010101"/>
<path d="M677.955 98.5V82.5H680.369V89.4531H688.346V82.5H690.768V98.5H688.346V91.5234H680.369V98.5H677.955ZM696.735 98.5H694.172L699.93 82.5H702.719L708.477 98.5H705.915L701.391 85.4062H701.266L696.735 98.5ZM697.165 92.2344H705.477V94.2656H697.165V92.2344ZM711.888 98.5V82.5H717.591C718.836 82.5 719.867 82.7266 720.685 83.1797C721.502 83.6328 722.114 84.2526 722.521 85.0391C722.927 85.8203 723.13 86.7005 723.13 87.6797C723.13 88.6641 722.924 89.5495 722.513 90.3359C722.106 91.1172 721.492 91.737 720.669 92.1953C719.851 92.6484 718.823 92.875 717.583 92.875H713.661V90.8281H717.364C718.151 90.8281 718.789 90.6927 719.278 90.4219C719.768 90.1458 720.127 89.7708 720.356 89.2969C720.586 88.8229 720.7 88.2839 720.7 87.6797C720.7 87.0755 720.586 86.5391 720.356 86.0703C720.127 85.6016 719.765 85.2344 719.271 84.9688C718.781 84.7031 718.135 84.5703 717.333 84.5703H714.302V98.5H711.888ZM727.06 98.5V82.5H732.763C734.008 82.5 735.039 82.7266 735.857 83.1797C736.675 83.6328 737.287 84.2526 737.693 85.0391C738.099 85.8203 738.302 86.7005 738.302 87.6797C738.302 88.6641 738.096 89.5495 737.685 90.3359C737.279 91.1172 736.664 91.737 735.841 92.1953C735.024 92.6484 733.995 92.875 732.755 92.875H728.833V90.8281H732.537C733.323 90.8281 733.961 90.6927 734.451 90.4219C734.94 90.1458 735.3 89.7708 735.529 89.2969C735.758 88.8229 735.872 88.2839 735.872 87.6797C735.872 87.0755 735.758 86.5391 735.529 86.0703C735.3 85.6016 734.938 85.2344 734.443 84.9688C733.953 84.7031 733.307 84.5703 732.505 84.5703H729.474V98.5H727.06ZM740.998 82.5H743.74L747.92 89.7734H748.092L752.271 82.5H755.013L749.209 92.2187V98.5H746.803V92.2187L740.998 82.5ZM778.604 87.7031H776.167C776.073 87.1823 775.898 86.724 775.643 86.3281C775.388 85.9323 775.075 85.5964 774.706 85.3203C774.336 85.0443 773.922 84.8359 773.463 84.6953C773.01 84.5547 772.529 84.4844 772.018 84.4844C771.096 84.4844 770.271 84.7161 769.542 85.1797C768.818 85.6432 768.245 86.3229 767.823 87.2187C767.406 88.1146 767.198 89.2083 767.198 90.5C767.198 91.8021 767.406 92.901 767.823 93.7969C768.245 94.6927 768.82 95.3698 769.549 95.8281C770.279 96.2865 771.099 96.5156 772.01 96.5156C772.516 96.5156 772.995 96.4479 773.448 96.3125C773.906 96.1719 774.32 95.9661 774.69 95.6953C775.06 95.4245 775.372 95.0937 775.628 94.7031C775.888 94.3073 776.068 93.8542 776.167 93.3438L778.604 93.3516C778.474 94.138 778.221 94.862 777.846 95.5234C777.476 96.1797 777 96.7474 776.417 97.2266C775.838 97.7005 775.177 98.0677 774.432 98.3281C773.687 98.5885 772.875 98.7187 771.995 98.7187C770.609 98.7187 769.375 98.3906 768.292 97.7344C767.208 97.0729 766.354 96.1276 765.729 94.8984C765.109 93.6693 764.799 92.2031 764.799 90.5C764.799 88.7917 765.112 87.3255 765.737 86.1016C766.362 84.8724 767.216 83.9297 768.299 83.2734C769.383 82.612 770.615 82.2812 771.995 82.2812C772.844 82.2812 773.635 82.4036 774.37 82.6484C775.109 82.888 775.773 83.2422 776.362 83.7109C776.95 84.1745 777.437 84.7422 777.823 85.4141C778.208 86.0807 778.469 86.8437 778.604 87.7031ZM792.882 82.5H795.304V93.0234C795.304 94.1432 795.041 95.1354 794.515 96C793.989 96.8594 793.249 97.5365 792.296 98.0312C791.343 98.5208 790.226 98.7656 788.944 98.7656C787.668 98.7656 786.554 98.5208 785.601 98.0312C784.647 97.5365 783.908 96.8594 783.382 96C782.856 95.1354 782.593 94.1432 782.593 93.0234V82.5H785.007V92.8281C785.007 93.5521 785.166 94.1953 785.483 94.7578C785.806 95.3203 786.262 95.763 786.851 96.0859C787.439 96.4036 788.137 96.5625 788.944 96.5625C789.757 96.5625 790.457 96.4036 791.046 96.0859C791.64 95.763 792.093 95.3203 792.405 94.7578C792.723 94.1953 792.882 93.5521 792.882 92.8281V82.5ZM808.64 86.7031C808.557 85.9635 808.213 85.3906 807.609 84.9844C807.005 84.5729 806.244 84.3672 805.328 84.3672C804.671 84.3672 804.104 84.4714 803.624 84.6797C803.145 84.8828 802.773 85.1641 802.507 85.5234C802.247 85.8776 802.117 86.2812 802.117 86.7344C802.117 87.1146 802.205 87.4427 802.382 87.7187C802.565 87.9948 802.802 88.2266 803.093 88.4141C803.39 88.5964 803.708 88.75 804.046 88.875C804.385 88.9948 804.71 89.0937 805.023 89.1719L806.585 89.5781C807.096 89.7031 807.619 89.8724 808.156 90.0859C808.692 90.2995 809.19 90.5807 809.648 90.9297C810.106 91.2786 810.476 91.7109 810.757 92.2266C811.044 92.7422 811.187 93.3594 811.187 94.0781C811.187 94.9844 810.953 95.7891 810.484 96.4922C810.02 97.1953 809.346 97.75 808.46 98.1562C807.58 98.5625 806.515 98.7656 805.265 98.7656C804.067 98.7656 803.031 98.5755 802.156 98.1953C801.281 97.8151 800.596 97.276 800.101 96.5781C799.606 95.875 799.333 95.0417 799.281 94.0781H801.703C801.749 94.6562 801.937 95.138 802.265 95.5234C802.598 95.9036 803.023 96.1875 803.538 96.375C804.059 96.5573 804.63 96.6484 805.249 96.6484C805.932 96.6484 806.538 96.5417 807.07 96.3281C807.606 96.1094 808.028 95.8073 808.335 95.4219C808.643 95.0312 808.796 94.5755 808.796 94.0547C808.796 93.5807 808.661 93.1927 808.39 92.8906C808.124 92.5885 807.762 92.3385 807.304 92.1406C806.851 91.9427 806.338 91.7682 805.765 91.6172L803.874 91.1016C802.593 90.7526 801.578 90.2396 800.828 89.5625C800.083 88.8854 799.71 87.9896 799.71 86.875C799.71 85.9531 799.96 85.1484 800.46 84.4609C800.96 83.7734 801.637 83.2396 802.492 82.8594C803.346 82.474 804.309 82.2812 805.382 82.2812C806.466 82.2812 807.421 82.4714 808.249 82.8516C809.083 83.2318 809.739 83.7552 810.218 84.4219C810.697 85.0833 810.947 85.8437 810.968 86.7031H808.64ZM814.383 84.5781V82.5H826.765V84.5781H821.773V98.5H819.367V84.5781H814.383ZM843.813 90.5C843.813 92.2083 843.5 93.6771 842.875 94.9062C842.25 96.1302 841.393 97.0729 840.305 97.7344C839.222 98.3906 837.99 98.7187 836.61 98.7187C835.224 98.7187 833.987 98.3906 832.899 97.7344C831.815 97.0729 830.961 96.1276 830.336 94.8984C829.711 93.6693 829.399 92.2031 829.399 90.5C829.399 88.7917 829.711 87.3255 830.336 86.1016C830.961 84.8724 831.815 83.9297 832.899 83.2734C833.987 82.612 835.224 82.2812 836.61 82.2812C837.99 82.2812 839.222 82.612 840.305 83.2734C841.393 83.9297 842.25 84.8724 842.875 86.1016C843.5 87.3255 843.813 88.7917 843.813 90.5ZM841.422 90.5C841.422 89.1979 841.211 88.1016 840.789 87.2109C840.373 86.3151 839.8 85.638 839.071 85.1797C838.347 84.7161 837.526 84.4844 836.61 84.4844C835.688 84.4844 834.865 84.7161 834.141 85.1797C833.417 85.638 832.844 86.3151 832.422 87.2109C832.005 88.1016 831.797 89.1979 831.797 90.5C831.797 91.8021 832.005 92.901 832.422 93.7969C832.844 94.6875 833.417 95.3646 834.141 95.8281C834.865 96.2865 835.688 96.5156 836.61 96.5156C837.526 96.5156 838.347 96.2865 839.071 95.8281C839.8 95.3646 840.373 94.6875 840.789 93.7969C841.211 92.901 841.422 91.8021 841.422 90.5ZM847.922 82.5H850.852L855.946 94.9375H856.133L861.227 82.5H864.157V98.5H861.86V86.9219H861.712L856.993 98.4766H855.087L850.368 86.9141H850.219V98.5H847.922V82.5ZM868.767 98.5V82.5H878.798V84.5781H871.181V89.4531H878.274V91.5234H871.181V96.4219H878.892V98.5H868.767ZM883.122 98.5V82.5H888.826C890.065 82.5 891.094 82.7135 891.912 83.1406C892.734 83.5677 893.349 84.1589 893.755 84.9141C894.162 85.6641 894.365 86.5312 894.365 87.5156C894.365 88.4948 894.159 89.3568 893.747 90.1016C893.341 90.8411 892.727 91.4167 891.904 91.8281C891.086 92.2396 890.057 92.4453 888.818 92.4453H884.497V90.3672H888.599C889.38 90.3672 890.016 90.2552 890.505 90.0312C891 89.8073 891.362 89.4818 891.591 89.0547C891.82 88.6276 891.935 88.1146 891.935 87.5156C891.935 86.9115 891.818 86.388 891.583 85.9453C891.354 85.5026 890.992 85.1641 890.497 84.9297C890.008 84.6901 889.365 84.5703 888.568 84.5703H885.537V98.5H883.122ZM891.021 91.2812L894.974 98.5H892.224L888.349 91.2812H891.021ZM907.129 86.7031C907.045 85.9635 906.702 85.3906 906.097 84.9844C905.493 84.5729 904.733 84.3672 903.816 84.3672C903.16 84.3672 902.592 84.4714 902.113 84.6797C901.634 84.8828 901.262 85.1641 900.996 85.5234C900.735 85.8776 900.605 86.2812 900.605 86.7344C900.605 87.1146 900.694 87.4427 900.871 87.7187C901.053 87.9948 901.29 88.2266 901.582 88.4141C901.879 88.5964 902.196 88.75 902.535 88.875C902.873 88.9948 903.199 89.0937 903.512 89.1719L905.074 89.5781C905.584 89.7031 906.108 89.8724 906.644 90.0859C907.181 90.2995 907.678 90.5807 908.137 90.9297C908.595 91.2786 908.965 91.7109 909.246 92.2266C909.532 92.7422 909.676 93.3594 909.676 94.0781C909.676 94.9844 909.441 95.7891 908.972 96.4922C908.509 97.1953 907.834 97.75 906.949 98.1562C906.069 98.5625 905.004 98.7656 903.754 98.7656C902.556 98.7656 901.519 98.5755 900.644 98.1953C899.769 97.8151 899.084 97.276 898.59 96.5781C898.095 95.875 897.821 95.0417 897.769 94.0781H900.191C900.238 94.6562 900.426 95.138 900.754 95.5234C901.087 95.9036 901.512 96.1875 902.027 96.375C902.548 96.5573 903.118 96.6484 903.738 96.6484C904.42 96.6484 905.027 96.5417 905.558 96.3281C906.095 96.1094 906.517 95.8073 906.824 95.4219C907.131 95.0312 907.285 94.5755 907.285 94.0547C907.285 93.5807 907.15 93.1927 906.879 92.8906C906.613 92.5885 906.251 92.3385 905.793 92.1406C905.34 91.9427 904.827 91.7682 904.254 91.6172L902.363 91.1016C901.082 90.7526 900.066 90.2396 899.316 89.5625C898.571 88.8854 898.199 87.9896 898.199 86.875C898.199 85.9531 898.449 85.1484 898.949 84.4609C899.449 83.7734 900.126 83.2396 900.98 82.8594C901.834 82.474 902.798 82.2812 903.871 82.2812C904.954 82.2812 905.91 82.4714 906.738 82.8516C907.571 83.2318 908.228 83.7552 908.707 84.4219C909.186 85.0833 909.436 85.8437 909.457 86.7031H907.129Z" fill="#454545"/>
<rect opacity="0.2" x="1004" width="1" height="116" fill="#035946"/>
<path d="M1129.81 44.5H1126.65V25.54L1122.05 27.7L1120.65 25.18L1127.69 21.86H1129.81V44.5ZM1142.27 44.5H1139.11V25.54L1134.51 27.7L1133.11 25.18L1140.15 21.86H1142.27V44.5ZM1153.93 21.34C1155.63 21.34 1157.1 21.6067 1158.33 22.14C1159.58 22.6467 1160.55 23.38 1161.25 24.34C1161.94 25.3 1162.29 26.4467 1162.29 27.78C1162.29 28.7667 1162.09 29.74 1161.69 30.7C1161.29 31.66 1160.65 32.6467 1159.77 33.66C1158.91 34.6733 1157.77 35.7933 1156.33 37.02L1150.37 42.02H1163.01L1163.53 44.5H1146.17V42.22L1154.61 34.86C1155.67 33.9533 1156.54 33.14 1157.21 32.42C1157.87 31.7 1158.37 30.9933 1158.69 30.3C1159.03 29.6067 1159.21 28.8733 1159.21 28.1C1159.21 26.74 1158.71 25.7133 1157.73 25.02C1156.77 24.3 1155.49 23.94 1153.89 23.94C1152.93 23.94 1152.06 24.06 1151.29 24.3C1150.51 24.5133 1149.82 24.78 1149.21 25.1C1148.62 25.42 1148.09 25.7133 1147.61 25.98L1146.69 23.42C1147.43 22.9667 1148.38 22.5133 1149.53 22.06C1150.7 21.58 1152.17 21.34 1153.93 21.34ZM1184.15 32.3L1184.55 34.82H1176.51V44.34L1173.59 44.18V34.82H1165.83L1165.51 32.3H1173.59V23.14L1176.51 23.26V32.3H1184.15Z" fill="#010101"/>
<path d="M1100 98.5V82.5H1109.92V84.5781H1102.41V89.4531H1109.21V91.5234H1102.41V98.5H1100ZM1113.34 98.5H1110.78L1116.54 82.5H1119.33L1125.09 98.5H1122.52L1118 85.4062H1117.88L1113.34 98.5ZM1113.77 92.2344H1122.09V94.2656H1113.77V92.2344ZM1128.5 98.5V82.5H1134.2C1135.44 82.5 1136.47 82.7135 1137.29 83.1406C1138.11 83.5677 1138.72 84.1589 1139.13 84.9141C1139.54 85.6641 1139.74 86.5312 1139.74 87.5156C1139.74 88.4948 1139.53 89.3568 1139.12 90.1016C1138.72 90.8411 1138.1 91.4167 1137.28 91.8281C1136.46 92.2396 1135.43 92.4453 1134.19 92.4453H1129.87V90.3672H1133.97C1134.76 90.3672 1135.39 90.2552 1135.88 90.0312C1136.38 89.8073 1136.74 89.4818 1136.97 89.0547C1137.2 88.6276 1137.31 88.1146 1137.31 87.5156C1137.31 86.9115 1137.19 86.388 1136.96 85.9453C1136.73 85.5026 1136.37 85.1641 1135.87 84.9297C1135.38 84.6901 1134.74 84.5703 1133.94 84.5703H1130.91V98.5H1128.5ZM1136.4 91.2812L1140.35 98.5H1137.6L1133.72 91.2812H1136.4ZM1143.78 82.5H1146.71L1151.8 94.9375H1151.99L1157.08 82.5H1160.01V98.5H1157.71V86.9219H1157.57L1152.85 98.4766H1150.94L1146.22 86.9141H1146.07V98.5H1143.78V82.5ZM1164.62 98.5V82.5H1174.65V84.5781H1167.04V89.4531H1174.13V91.5234H1167.04V96.4219H1174.75V98.5H1164.62ZM1178.98 98.5V82.5H1184.68C1185.92 82.5 1186.95 82.7135 1187.77 83.1406C1188.59 83.5677 1189.2 84.1589 1189.61 84.9141C1190.02 85.6641 1190.22 86.5312 1190.22 87.5156C1190.22 88.4948 1190.01 89.3568 1189.6 90.1016C1189.2 90.8411 1188.58 91.4167 1187.76 91.8281C1186.94 92.2396 1185.91 92.4453 1184.67 92.4453H1180.35V90.3672H1184.45C1185.23 90.3672 1185.87 90.2552 1186.36 90.0312C1186.85 89.8073 1187.22 89.4818 1187.45 89.0547C1187.68 88.6276 1187.79 88.1146 1187.79 87.5156C1187.79 86.9115 1187.67 86.388 1187.44 85.9453C1187.21 85.5026 1186.85 85.1641 1186.35 84.9297C1185.86 84.6901 1185.22 84.5703 1184.42 84.5703H1181.39V98.5H1178.98ZM1186.88 91.2812L1190.83 98.5H1188.08L1184.2 91.2812H1186.88ZM1202.98 86.7031C1202.9 85.9635 1202.56 85.3906 1201.95 84.9844C1201.35 84.5729 1200.59 84.3672 1199.67 84.3672C1199.01 84.3672 1198.45 84.4714 1197.97 84.6797C1197.49 84.8828 1197.12 85.1641 1196.85 85.5234C1196.59 85.8776 1196.46 86.2812 1196.46 86.7344C1196.46 87.1146 1196.55 87.4427 1196.73 87.7187C1196.91 87.9948 1197.14 88.2266 1197.44 88.4141C1197.73 88.5964 1198.05 88.75 1198.39 88.875C1198.73 88.9948 1199.05 89.0937 1199.37 89.1719L1200.93 89.5781C1201.44 89.7031 1201.96 89.8724 1202.5 90.0859C1203.04 90.2995 1203.53 90.5807 1203.99 90.9297C1204.45 91.2786 1204.82 91.7109 1205.1 92.2266C1205.39 92.7422 1205.53 93.3594 1205.53 94.0781C1205.53 94.9844 1205.3 95.7891 1204.83 96.4922C1204.36 97.1953 1203.69 97.75 1202.8 98.1562C1201.92 98.5625 1200.86 98.7656 1199.61 98.7656C1198.41 98.7656 1197.37 98.5755 1196.5 98.1953C1195.62 97.8151 1194.94 97.276 1194.44 96.5781C1193.95 95.875 1193.68 95.0417 1193.62 94.0781H1196.05C1196.09 94.6562 1196.28 95.138 1196.61 95.5234C1196.94 95.9036 1197.37 96.1875 1197.88 96.375C1198.4 96.5573 1198.97 96.6484 1199.59 96.6484C1200.28 96.6484 1200.88 96.5417 1201.41 96.3281C1201.95 96.1094 1202.37 95.8073 1202.68 95.4219C1202.99 95.0312 1203.14 94.5755 1203.14 94.0547C1203.14 93.5807 1203 93.1927 1202.73 92.8906C1202.47 92.5885 1202.11 92.3385 1201.65 92.1406C1201.19 91.9427 1200.68 91.7682 1200.11 91.6172L1198.22 91.1016C1196.94 90.7526 1195.92 90.2396 1195.17 89.5625C1194.43 88.8854 1194.05 87.9896 1194.05 86.875C1194.05 85.9531 1194.3 85.1484 1194.8 84.4609C1195.3 83.7734 1195.98 83.2396 1196.83 82.8594C1197.69 82.474 1198.65 82.2812 1199.73 82.2812C1200.81 82.2812 1201.76 82.4714 1202.59 82.8516C1203.43 83.2318 1204.08 83.7552 1204.56 84.4219C1205.04 85.0833 1205.29 85.8437 1205.31 86.7031H1202.98Z" fill="#454545"/>
</g>
<defs>
<clipPath id="clip0_358_592">
<rect width="1208" height="116" fill="white"/>
</clipPath>
</defs>
</svg>
