<svg width="10" height="10" viewBox="0 0 10 10" fill="none" xmlns="http://www.w3.org/2000/svg">
<g clip-path="url(#clip0_362_7781)">
<path d="M4.71409 6.88911L4.71414 6.88916C4.78662 6.95614 4.89278 6.99993 5.01096 7L4.71409 6.88911ZM4.71409 6.88911L1.11409 3.56259L1.11414 3.56253M4.71409 6.88911L1.11414 3.56253M1.11414 3.56253L1.10769 3.55677M1.11414 3.56253L1.10769 3.55677M1.10769 3.55677C1.07097 3.524 1.04408 3.48698 1.02647 3.44909C1.00892 3.41134 1.00037 3.37239 1.00001 3.33415C0.999652 3.29593 1.00746 3.25697 1.02421 3.21915C1.04101 3.1812 1.06704 3.14397 1.10293 3.11081C1.13891 3.07757 1.18383 3.04935 1.23601 3.02962C1.28823 3.00988 1.34539 2.99955 1.40381 3.00002C1.46223 3.00048 1.51908 3.01173 1.57076 3.03225C1.62239 3.05274 1.66657 3.08155 1.70171 3.11517L1.70166 3.11523M1.10769 3.55677L1.70166 3.11523M1.70166 3.11523L1.70803 3.12111M1.70166 3.11523L1.70803 3.12111M1.70803 3.12111L4.67173 5.85967L5.01106 6.17322M1.70803 3.12111L5.01106 6.17322M5.01106 6.17322L5.35039 5.85967M5.01106 6.17322L5.35039 5.85967M5.35039 5.85967L8.31024 3.12467M5.35039 5.85967L8.31024 3.12467M8.31024 3.12467C8.3835 3.06049 8.48827 3.01953 8.6038 3.02045C8.72068 3.02139 8.82538 3.065 8.89707 3.13124C8.96748 3.19631 8.99929 3.27568 8.99999 3.34954C9.00067 3.42246 8.97115 3.50087 8.90417 3.56616L5.30803 6.88911L5.30797 6.88916C5.2355 6.95614 5.12934 6.99993 5.01116 7L8.31024 3.12467Z" fill="#6B7280" stroke="#6B7280"/>
</g>
<defs>
<clipPath id="clip0_362_7781">
<rect width="10" height="10" fill="white"/>
</clipPath>
</defs>
</svg>
