<svg width="36" height="36" viewBox="0 0 36 36" fill="none" xmlns="http://www.w3.org/2000/svg">
<g clip-path="url(#clip0_362_7786)">
<g clip-path="url(#clip1_362_7786)">
<path d="M17.1938 23.556C18.0306 24.3901 19.1639 24.8584 20.3455 24.8584C21.5271 24.8584 22.6605 24.3901 23.4973 23.556L25.0731 21.9804C25.9099 21.1463 27.0433 20.678 28.2249 20.678C29.4064 20.678 30.5398 21.1463 31.3766 21.9804L34.5284 25.1317C34.9891 25.5174 35.3597 25.9995 35.614 26.544C35.8682 27.0884 36 27.682 36 28.2829C36 28.8838 35.8682 29.4774 35.614 30.0219C35.3597 30.5663 34.9891 31.0484 34.5284 31.4342C26.2753 39.6882 16.775 35.7672 8.4972 27.4906C0.219374 19.214 -3.68203 9.72423 4.57328 1.47017C4.95934 1.00981 5.44158 0.639619 5.98609 0.385623C6.53061 0.131627 7.12417 0 7.72503 0C8.32588 0 8.91944 0.131627 9.46396 0.385623C10.0085 0.639619 10.4907 1.00981 10.8768 1.47017L14.0285 4.62143C14.8633 5.45781 15.3321 6.59113 15.3321 7.7727C15.3321 8.95427 14.8633 10.0876 14.0285 10.924L12.4526 12.4996C11.6179 13.336 11.1491 14.4693 11.1491 15.6509C11.1491 16.8324 11.6179 17.9657 12.4526 18.8021L17.1938 23.556Z" fill="#6B7280"/>
</g>
</g>
<defs>
<clipPath id="clip0_362_7786">
<rect width="36" height="36" fill="white"/>
</clipPath>
<clipPath id="clip1_362_7786">
<rect width="36" height="36" fill="white"/>
</clipPath>
</defs>
</svg>
