<svg width="14" height="8" viewBox="0 0 14 8" fill="none" xmlns="http://www.w3.org/2000/svg">
<g clip-path="url(#clip0_344_568)">
<path d="M12.9242 0.897359C13.0255 0.991057 13.0825 1.11823 13.0827 1.25091C13.0829 1.38358 13.0263 1.5109 12.9253 1.60487L7.03136 7.09281C6.97624 7.14425 6.9107 7.18507 6.83851 7.21292C6.76633 7.24078 6.68893 7.25512 6.61075 7.25512C6.53257 7.25512 6.45517 7.24078 6.38298 7.21292C6.3108 7.18507 6.24526 7.14425 6.19014 7.09281L0.298332 1.60487C0.246904 1.55864 0.205912 1.50338 0.177747 1.4423C0.149583 1.38121 0.13481 1.31554 0.134292 1.2491C0.133773 1.18267 0.147518 1.1168 0.174725 1.05535C0.201933 0.993892 0.242057 0.938081 0.292758 0.891169C0.343459 0.844257 0.403721 0.807184 0.470028 0.782112C0.536335 0.757041 0.607359 0.744473 0.678956 0.745143C0.750553 0.745812 0.82129 0.759705 0.887039 0.786011C0.952788 0.812317 1.01223 0.850509 1.0619 0.898359L6.61075 6.06708L12.1617 0.898359C12.2627 0.804424 12.3998 0.751548 12.5428 0.75136C12.6858 0.751173 12.823 0.803688 12.9242 0.897359Z" fill="black"/>
</g>
<defs>
<clipPath id="clip0_344_568">
<rect width="12.9484" height="6.51" fill="white" transform="translate(0.134277 0.745117)"/>
</clipPath>
</defs>
</svg>
