<svg width="18" height="18" viewBox="0 0 18 18" fill="none" xmlns="http://www.w3.org/2000/svg">
<g clip-path="url(#clip0_344_571)">
<path d="M17.2669 0.152963L14.1332 0.114746C13.7892 0.114746 13.5217 0.344046 13.407 0.649778L10.6172 10.1275L0.795581 10.0128C0.375199 10.0128 0.0694666 10.3568 0.03125 10.739C0.03125 11.1593 0.375199 11.5033 0.757365 11.5033L11.1523 11.6179C11.4962 11.6179 11.7637 11.3886 11.8784 11.0829L14.6682 1.64341L17.2287 1.68163C17.6491 1.68163 17.9548 1.33768 17.993 0.955511C17.993 0.496912 17.6491 0.152963 17.2669 0.152963Z" fill="#0D4929"/>
<path d="M1.44547 8.17835C1.5219 8.5223 1.82764 8.78981 2.17159 8.78981L8.85949 8.86625C9.20343 8.86625 9.50917 8.59873 9.5856 8.25478L11.0378 0.993631C11.076 0.764331 11.0378 0.535032 10.885 0.382166C10.7321 0.191083 10.541 0.11465 10.3117 0.11465L0.872223 0C0.642924 0 0.451841 0.11465 0.298974 0.267516C0.146108 0.420382 0.107892 0.649682 0.146108 0.878981L1.44547 8.17835Z" fill="#0D4929"/>
<path d="M2.8593 13.1084C1.52172 13.1084 0.45166 14.2167 0.45166 15.5543C0.45166 16.8918 1.52172 18.0001 2.8593 18.0001C4.19688 18.0001 5.26695 16.8918 5.26695 15.5543C5.30516 14.1785 4.19688 13.1084 2.8593 13.1084Z" fill="#0D4929"/>
<path d="M9.24163 13.1084C7.90405 13.1084 6.83398 14.2167 6.83398 15.5543C6.83398 16.8918 7.90405 18.0001 9.24163 18.0001C10.5792 18.0001 11.6493 16.8918 11.6493 15.5543C11.6493 14.1785 10.5792 13.1084 9.24163 13.1084Z" fill="#0D4929"/>
</g>
<defs>
<clipPath id="clip0_344_571">
<rect width="17.9618" height="18" fill="white" transform="translate(0.03125)"/>
</clipPath>
</defs>
</svg>
