<svg width="18" height="18" viewBox="0 0 18 18" fill="none" xmlns="http://www.w3.org/2000/svg">
<g clip-path="url(#clip0_342_563)">
<rect x="0.5" y="0.5" width="17" height="17" rx="8.5" stroke="white"/>
<path d="M13.5 6.25462C13.1629 6.40133 12.8055 6.49767 12.4395 6.54048C12.825 6.31333 13.1134 5.95605 13.251 5.53521C12.889 5.74721 12.4921 5.89578 12.0788 5.97615C11.8009 5.6836 11.4326 5.48957 11.0311 5.42425C10.6296 5.35892 10.2174 5.42594 9.85862 5.6149C9.49982 5.80386 9.21452 6.10417 9.04707 6.46914C8.87962 6.83411 8.8394 7.24329 8.93267 7.63307C8.19843 7.59692 7.48012 7.40922 6.82439 7.08215C6.16866 6.75508 5.59017 6.29597 5.12649 5.73461C4.96238 6.01197 4.87614 6.32727 4.8766 6.64821C4.8766 7.27814 5.20287 7.83464 5.69779 8.16046C5.40464 8.15137 5.11795 8.07347 4.86159 7.93326V7.95541C4.86158 8.37502 5.00907 8.78171 5.27904 9.10651C5.54902 9.43131 5.92486 9.65422 6.34283 9.73744C6.0707 9.81008 5.78534 9.82078 5.50839 9.76872C5.62624 10.1299 5.85594 10.4458 6.16534 10.6721C6.47474 10.8984 6.84833 11.0238 7.23378 11.0307C6.85071 11.3268 6.41209 11.5456 5.94301 11.6747C5.47392 11.8038 4.98357 11.8407 4.5 11.7832C5.34403 12.3173 6.32654 12.6008 7.33002 12.5999C10.7269 12.5999 12.5839 9.83128 12.5839 7.43019C12.5839 7.35199 12.5821 7.27292 12.5786 7.19516C12.9399 6.93813 13.2518 6.61979 13.4996 6.25506L13.5 6.25462Z" fill="white"/>
</g>
<defs>
<clipPath id="clip0_342_563">
<rect width="18" height="18" fill="white"/>
</clipPath>
</defs>
</svg>
