<svg width="153" height="12" viewBox="0 0 153 12" fill="none" xmlns="http://www.w3.org/2000/svg">
<g clip-path="url(#clip0_342_561)">
<path d="M9.9375 2.25H2.0625C1.54473 2.25 1.125 2.66973 1.125 3.1875V8.8125C1.125 9.33027 1.54473 9.75 2.0625 9.75H9.9375C10.4553 9.75 10.875 9.33027 10.875 8.8125V3.1875C10.875 2.66973 10.4553 2.25 9.9375 2.25Z" stroke="white" stroke-linecap="round" stroke-linejoin="round"/>
<path d="M2.625 3.75L6 6.375L9.375 3.75" stroke="white" stroke-linecap="round" stroke-linejoin="round"/>
<path d="M20.488 2.356C20.28 2.356 20.104 2.284 19.96 2.14C19.816 1.996 19.744 1.82 19.744 1.612C19.744 1.404 19.816 1.228 19.96 1.084C20.104 0.94 20.28 0.868 20.488 0.868C20.688 0.868 20.856 0.94 20.992 1.084C21.136 1.228 21.208 1.404 21.208 1.612C21.208 1.82 21.136 1.996 20.992 2.14C20.856 2.284 20.688 2.356 20.488 2.356ZM21.016 3.424V10H19.924V3.424H21.016ZM26.0811 3.304C26.8811 3.304 27.5291 3.548 28.0251 4.036C28.5211 4.516 28.7691 5.212 28.7691 6.124V10H27.6891V6.28C27.6891 5.624 27.5251 5.124 27.1971 4.78C26.8691 4.428 26.4211 4.252 25.8531 4.252C25.2771 4.252 24.8171 4.432 24.4731 4.792C24.1371 5.152 23.9691 5.676 23.9691 6.364V10H22.8771V3.424H23.9691V4.36C24.1851 4.024 24.4771 3.764 24.8451 3.58C25.2211 3.396 25.6331 3.304 26.0811 3.304ZM33.2289 4.324H31.8489V10H30.7569V4.324H29.9049V3.424H30.7569V2.956C30.7569 2.22 30.9449 1.684 31.3209 1.348C31.7049 1.004 32.3169 0.831999 33.1569 0.831999V1.744C32.6769 1.744 32.3369 1.84 32.1369 2.032C31.9449 2.216 31.8489 2.524 31.8489 2.956V3.424H33.2289V4.324ZM37.3701 10.108C36.7541 10.108 36.1941 9.968 35.6901 9.688C35.1941 9.408 34.8021 9.012 34.5141 8.5C34.2341 7.98 34.0941 7.38 34.0941 6.7C34.0941 6.028 34.2381 5.436 34.5261 4.924C34.8221 4.404 35.2221 4.008 35.7261 3.736C36.2301 3.456 36.7941 3.316 37.4181 3.316C38.0421 3.316 38.6061 3.456 39.1101 3.736C39.6141 4.008 40.0101 4.4 40.2981 4.912C40.5941 5.424 40.7421 6.02 40.7421 6.7C40.7421 7.38 40.5901 7.98 40.2861 8.5C39.9901 9.012 39.5861 9.408 39.0741 9.688C38.5621 9.968 37.9941 10.108 37.3701 10.108ZM37.3701 9.148C37.7621 9.148 38.1301 9.056 38.4741 8.872C38.8181 8.688 39.0941 8.412 39.3021 8.044C39.5181 7.676 39.6261 7.228 39.6261 6.7C39.6261 6.172 39.5221 5.724 39.3141 5.356C39.1061 4.988 38.8341 4.716 38.4981 4.54C38.1621 4.356 37.7981 4.264 37.4061 4.264C37.0061 4.264 36.6381 4.356 36.3021 4.54C35.9741 4.716 35.7101 4.988 35.5101 5.356C35.3101 5.724 35.2101 6.172 35.2101 6.7C35.2101 7.236 35.3061 7.688 35.4981 8.056C35.6981 8.424 35.9621 8.7 36.2901 8.884C36.6181 9.06 36.9781 9.148 37.3701 9.148ZM48.1779 2.308C49.0659 2.308 49.8379 2.476 50.4939 2.812C51.1499 3.148 51.6539 3.62 52.0059 4.228C52.3579 4.828 52.5339 5.524 52.5339 6.316C52.5339 6.948 52.4299 7.556 52.2219 8.14C52.0139 8.716 51.7099 9.184 51.3099 9.544C50.9179 9.904 50.4579 10.084 49.9299 10.084C49.5299 10.084 49.2219 9.984 49.0059 9.784C48.7899 9.584 48.6659 9.312 48.6339 8.968C48.3859 9.312 48.0699 9.584 47.6859 9.784C47.3099 9.984 46.9099 10.084 46.4859 10.084C45.8779 10.084 45.3979 9.9 45.0459 9.532C44.7019 9.156 44.5299 8.652 44.5299 8.02C44.5299 7.42 44.6539 6.86 44.9019 6.34C45.1579 5.82 45.5099 5.404 45.9579 5.092C46.4059 4.772 46.9139 4.612 47.4819 4.612C48.2419 4.612 48.7539 4.9 49.0179 5.476L49.1499 4.732H50.0979L49.4979 8.2C49.4739 8.352 49.4619 8.492 49.4619 8.62C49.4619 9.1 49.6739 9.34 50.0979 9.34C50.4179 9.34 50.6939 9.188 50.9259 8.884C51.1659 8.58 51.3459 8.2 51.4659 7.744C51.5859 7.28 51.6459 6.824 51.6459 6.376C51.6459 5.328 51.3299 4.516 50.6979 3.94C50.0739 3.364 49.1899 3.076 48.0459 3.076C47.0939 3.076 46.2339 3.308 45.4659 3.772C44.7059 4.228 44.1099 4.856 43.6779 5.656C43.2459 6.456 43.0299 7.34 43.0299 8.308C43.0219 9.364 43.3379 10.176 43.9779 10.744C44.6179 11.32 45.5059 11.608 46.6419 11.608C47.3939 11.608 48.0579 11.472 48.6339 11.2L48.7779 11.944C48.0659 12.24 47.2819 12.388 46.4259 12.388C45.5699 12.388 44.8139 12.224 44.1579 11.896C43.5099 11.576 43.0059 11.112 42.6459 10.504C42.2939 9.904 42.1179 9.204 42.1179 8.404C42.1179 7.276 42.3779 6.248 42.8979 5.32C43.4179 4.384 44.1379 3.648 45.0579 3.112C45.9859 2.576 47.0259 2.308 48.1779 2.308ZM46.8099 9.232C47.1699 9.232 47.5019 9.128 47.8059 8.92C48.1099 8.704 48.3499 8.416 48.5259 8.056C48.7019 7.688 48.7899 7.288 48.7899 6.856C48.7899 6.44 48.6739 6.104 48.4419 5.848C48.2179 5.584 47.8979 5.452 47.4819 5.452C47.0979 5.452 46.7579 5.568 46.4619 5.8C46.1739 6.024 45.9499 6.324 45.7899 6.7C45.6299 7.068 45.5499 7.452 45.5499 7.852C45.5499 8.276 45.6579 8.612 45.8739 8.86C46.0899 9.108 46.4019 9.232 46.8099 9.232ZM58.0023 10L55.4223 7.096V10H54.3303V1.12H55.4223V6.34L57.9543 3.424H59.4783L56.3823 6.7L59.4903 10H58.0023ZM66.506 6.46C66.506 6.668 66.494 6.888 66.47 7.12H61.214C61.254 7.768 61.474 8.276 61.874 8.644C62.282 9.004 62.774 9.184 63.35 9.184C63.822 9.184 64.214 9.076 64.526 8.86C64.846 8.636 65.07 8.34 65.198 7.972H66.374C66.198 8.604 65.846 9.12 65.318 9.52C64.79 9.912 64.134 10.108 63.35 10.108C62.726 10.108 62.166 9.968 61.67 9.688C61.182 9.408 60.798 9.012 60.518 8.5C60.238 7.98 60.098 7.38 60.098 6.7C60.098 6.02 60.234 5.424 60.506 4.912C60.778 4.4 61.158 4.008 61.646 3.736C62.142 3.456 62.71 3.316 63.35 3.316C63.974 3.316 64.526 3.452 65.006 3.724C65.486 3.996 65.854 4.372 66.11 4.852C66.374 5.324 66.506 5.86 66.506 6.46ZM65.378 6.232C65.378 5.816 65.286 5.46 65.102 5.164C64.918 4.86 64.666 4.632 64.346 4.48C64.034 4.32 63.686 4.24 63.302 4.24C62.75 4.24 62.278 4.416 61.886 4.768C61.502 5.12 61.282 5.608 61.226 6.232H65.378ZM71.1514 3.304C71.9514 3.304 72.5994 3.548 73.0954 4.036C73.5914 4.516 73.8394 5.212 73.8394 6.124V10H72.7594V6.28C72.7594 5.624 72.5954 5.124 72.2674 4.78C71.9394 4.428 71.4914 4.252 70.9234 4.252C70.3474 4.252 69.8874 4.432 69.5434 4.792C69.2074 5.152 69.0394 5.676 69.0394 6.364V10H67.9474V3.424H69.0394V4.36C69.2554 4.024 69.5474 3.764 69.9154 3.58C70.2914 3.396 70.7034 3.304 71.1514 3.304ZM81.2872 3.424L77.3272 13.096H76.1992L77.4952 9.928L74.8432 3.424H76.0552L78.1192 8.752L80.1592 3.424H81.2872ZM81.9769 6.688C81.9769 6.016 82.1129 5.428 82.3849 4.924C82.6569 4.412 83.0289 4.016 83.5009 3.736C83.9809 3.456 84.5129 3.316 85.0969 3.316C85.6729 3.316 86.1729 3.44 86.5969 3.688C87.0209 3.936 87.3369 4.248 87.5449 4.624V3.424H88.6489V10H87.5449V8.776C87.3289 9.16 87.0049 9.48 86.5729 9.736C86.1489 9.984 85.6529 10.108 85.0849 10.108C84.5009 10.108 83.9729 9.964 83.5009 9.676C83.0289 9.388 82.6569 8.984 82.3849 8.464C82.1129 7.944 81.9769 7.352 81.9769 6.688ZM87.5449 6.7C87.5449 6.204 87.4449 5.772 87.2449 5.404C87.0449 5.036 86.7729 4.756 86.4289 4.564C86.0929 4.364 85.7209 4.264 85.3129 4.264C84.9049 4.264 84.5329 4.36 84.1969 4.552C83.8609 4.744 83.5929 5.024 83.3929 5.392C83.1929 5.76 83.0929 6.192 83.0929 6.688C83.0929 7.192 83.1929 7.632 83.3929 8.008C83.5929 8.376 83.8609 8.66 84.1969 8.86C84.5329 9.052 84.9049 9.148 85.3129 9.148C85.7209 9.148 86.0929 9.052 86.4289 8.86C86.7729 8.66 87.0449 8.376 87.2449 8.008C87.4449 7.632 87.5449 7.196 87.5449 6.7ZM92.8223 10.108C92.3183 10.108 91.8663 10.024 91.4663 9.856C91.0663 9.68 90.7503 9.44 90.5183 9.136C90.2863 8.824 90.1583 8.468 90.1343 8.068H91.2623C91.2943 8.396 91.4463 8.664 91.7183 8.872C91.9983 9.08 92.3623 9.184 92.8103 9.184C93.2263 9.184 93.5543 9.092 93.7943 8.908C94.0343 8.724 94.1543 8.492 94.1543 8.212C94.1543 7.924 94.0263 7.712 93.7703 7.576C93.5143 7.432 93.1183 7.292 92.5823 7.156C92.0943 7.028 91.6943 6.9 91.3823 6.772C91.0783 6.636 90.8143 6.44 90.5903 6.184C90.3743 5.92 90.2663 5.576 90.2663 5.152C90.2663 4.816 90.3663 4.508 90.5663 4.228C90.7663 3.948 91.0503 3.728 91.4183 3.568C91.7863 3.4 92.2063 3.316 92.6783 3.316C93.4063 3.316 93.9943 3.5 94.4423 3.868C94.8903 4.236 95.1303 4.74 95.1623 5.38H94.0703C94.0463 5.036 93.9063 4.76 93.6503 4.552C93.4023 4.344 93.0663 4.24 92.6423 4.24C92.2503 4.24 91.9383 4.324 91.7063 4.492C91.4743 4.66 91.3583 4.88 91.3583 5.152C91.3583 5.368 91.4263 5.548 91.5623 5.692C91.7063 5.828 91.8823 5.94 92.0903 6.028C92.3063 6.108 92.6023 6.2 92.9783 6.304C93.4503 6.432 93.8343 6.56 94.1303 6.688C94.4263 6.808 94.6783 6.992 94.8863 7.24C95.1023 7.488 95.2143 7.812 95.2223 8.212C95.2223 8.572 95.1223 8.896 94.9223 9.184C94.7223 9.472 94.4383 9.7 94.0703 9.868C93.7103 10.028 93.2943 10.108 92.8223 10.108ZM102.764 6.46C102.764 6.668 102.752 6.888 102.728 7.12H97.4718C97.5118 7.768 97.7318 8.276 98.1318 8.644C98.5398 9.004 99.0318 9.184 99.6078 9.184C100.08 9.184 100.472 9.076 100.784 8.86C101.104 8.636 101.328 8.34 101.456 7.972H102.632C102.456 8.604 102.104 9.12 101.576 9.52C101.048 9.912 100.392 10.108 99.6078 10.108C98.9838 10.108 98.4238 9.968 97.9278 9.688C97.4398 9.408 97.0558 9.012 96.7758 8.5C96.4958 7.98 96.3558 7.38 96.3558 6.7C96.3558 6.02 96.4918 5.424 96.7638 4.912C97.0358 4.4 97.4158 4.008 97.9038 3.736C98.3998 3.456 98.9678 3.316 99.6078 3.316C100.232 3.316 100.784 3.452 101.264 3.724C101.744 3.996 102.112 4.372 102.368 4.852C102.632 5.324 102.764 5.86 102.764 6.46ZM101.636 6.232C101.636 5.816 101.544 5.46 101.36 5.164C101.176 4.86 100.924 4.632 100.604 4.48C100.292 4.32 99.9438 4.24 99.5598 4.24C99.0078 4.24 98.5358 4.416 98.1438 4.768C97.7598 5.12 97.5398 5.608 97.4838 6.232H101.636ZM110.205 6.46C110.205 6.668 110.193 6.888 110.169 7.12H104.913C104.953 7.768 105.173 8.276 105.573 8.644C105.981 9.004 106.473 9.184 107.049 9.184C107.521 9.184 107.913 9.076 108.225 8.86C108.545 8.636 108.769 8.34 108.897 7.972H110.073C109.897 8.604 109.545 9.12 109.017 9.52C108.489 9.912 107.833 10.108 107.049 10.108C106.425 10.108 105.865 9.968 105.369 9.688C104.881 9.408 104.497 9.012 104.217 8.5C103.937 7.98 103.797 7.38 103.797 6.7C103.797 6.02 103.933 5.424 104.205 4.912C104.477 4.4 104.857 4.008 105.345 3.736C105.841 3.456 106.409 3.316 107.049 3.316C107.673 3.316 108.225 3.452 108.705 3.724C109.185 3.996 109.553 4.372 109.809 4.852C110.073 5.324 110.205 5.86 110.205 6.46ZM109.077 6.232C109.077 5.816 108.985 5.46 108.801 5.164C108.617 4.86 108.365 4.632 108.045 4.48C107.733 4.32 107.385 4.24 107.001 4.24C106.449 4.24 105.977 4.416 105.585 4.768C105.201 5.12 104.981 5.608 104.925 6.232H109.077ZM111.239 6.688C111.239 6.016 111.375 5.428 111.647 4.924C111.919 4.412 112.291 4.016 112.763 3.736C113.243 3.456 113.779 3.316 114.371 3.316C114.883 3.316 115.359 3.436 115.799 3.676C116.239 3.908 116.575 4.216 116.807 4.6V1.12H117.911V10H116.807V8.764C116.591 9.156 116.271 9.48 115.847 9.736C115.423 9.984 114.927 10.108 114.359 10.108C113.775 10.108 113.243 9.964 112.763 9.676C112.291 9.388 111.919 8.984 111.647 8.464C111.375 7.944 111.239 7.352 111.239 6.688ZM116.807 6.7C116.807 6.204 116.707 5.772 116.507 5.404C116.307 5.036 116.035 4.756 115.691 4.564C115.355 4.364 114.983 4.264 114.575 4.264C114.167 4.264 113.795 4.36 113.459 4.552C113.123 4.744 112.855 5.024 112.655 5.392C112.455 5.76 112.355 6.192 112.355 6.688C112.355 7.192 112.455 7.632 112.655 8.008C112.855 8.376 113.123 8.66 113.459 8.86C113.795 9.052 114.167 9.148 114.575 9.148C114.983 9.148 115.355 9.052 115.691 8.86C116.035 8.66 116.307 8.376 116.507 8.008C116.707 7.632 116.807 7.196 116.807 6.7ZM120.104 10.072C119.896 10.072 119.72 10 119.576 9.856C119.432 9.712 119.36 9.536 119.36 9.328C119.36 9.12 119.432 8.944 119.576 8.8C119.72 8.656 119.896 8.584 120.104 8.584C120.304 8.584 120.472 8.656 120.608 8.8C120.752 8.944 120.824 9.12 120.824 9.328C120.824 9.536 120.752 9.712 120.608 9.856C120.472 10 120.304 10.072 120.104 10.072ZM121.868 6.7C121.868 6.02 122.004 5.428 122.276 4.924C122.548 4.412 122.924 4.016 123.404 3.736C123.892 3.456 124.448 3.316 125.072 3.316C125.88 3.316 126.544 3.512 127.064 3.904C127.592 4.296 127.94 4.84 128.108 5.536H126.932C126.82 5.136 126.6 4.82 126.272 4.588C125.952 4.356 125.552 4.24 125.072 4.24C124.448 4.24 123.944 4.456 123.56 4.888C123.176 5.312 122.984 5.916 122.984 6.7C122.984 7.492 123.176 8.104 123.56 8.536C123.944 8.968 124.448 9.184 125.072 9.184C125.552 9.184 125.952 9.072 126.272 8.848C126.592 8.624 126.812 8.304 126.932 7.888H128.108C127.932 8.56 127.58 9.1 127.052 9.508C126.524 9.908 125.864 10.108 125.072 10.108C124.448 10.108 123.892 9.968 123.404 9.688C122.924 9.408 122.548 9.012 122.276 8.5C122.004 7.988 121.868 7.388 121.868 6.7ZM132.433 10.108C131.817 10.108 131.257 9.968 130.753 9.688C130.257 9.408 129.865 9.012 129.577 8.5C129.297 7.98 129.157 7.38 129.157 6.7C129.157 6.028 129.301 5.436 129.589 4.924C129.885 4.404 130.285 4.008 130.789 3.736C131.293 3.456 131.857 3.316 132.481 3.316C133.105 3.316 133.669 3.456 134.173 3.736C134.677 4.008 135.073 4.4 135.361 4.912C135.657 5.424 135.805 6.02 135.805 6.7C135.805 7.38 135.653 7.98 135.349 8.5C135.053 9.012 134.649 9.408 134.137 9.688C133.625 9.968 133.057 10.108 132.433 10.108ZM132.433 9.148C132.825 9.148 133.193 9.056 133.537 8.872C133.881 8.688 134.157 8.412 134.365 8.044C134.581 7.676 134.689 7.228 134.689 6.7C134.689 6.172 134.585 5.724 134.377 5.356C134.169 4.988 133.897 4.716 133.561 4.54C133.225 4.356 132.861 4.264 132.469 4.264C132.069 4.264 131.701 4.356 131.365 4.54C131.037 4.716 130.773 4.988 130.573 5.356C130.373 5.724 130.273 6.172 130.273 6.7C130.273 7.236 130.369 7.688 130.561 8.056C130.761 8.424 131.025 8.7 131.353 8.884C131.681 9.06 132.041 9.148 132.433 9.148ZM137.588 10.072C137.38 10.072 137.204 10 137.06 9.856C136.916 9.712 136.844 9.536 136.844 9.328C136.844 9.12 136.916 8.944 137.06 8.8C137.204 8.656 137.38 8.584 137.588 8.584C137.788 8.584 137.956 8.656 138.092 8.8C138.236 8.944 138.308 9.12 138.308 9.328C138.308 9.536 138.236 9.712 138.092 9.856C137.956 10 137.788 10.072 137.588 10.072ZM143.432 10L140.852 7.096V10H139.76V1.12H140.852V6.34L143.384 3.424H144.908L141.812 6.7L144.92 10H143.432ZM151.936 6.46C151.936 6.668 151.924 6.888 151.9 7.12H146.644C146.684 7.768 146.904 8.276 147.304 8.644C147.712 9.004 148.204 9.184 148.78 9.184C149.252 9.184 149.644 9.076 149.956 8.86C150.276 8.636 150.5 8.34 150.628 7.972H151.804C151.628 8.604 151.276 9.12 150.748 9.52C150.22 9.912 149.564 10.108 148.78 10.108C148.156 10.108 147.596 9.968 147.1 9.688C146.612 9.408 146.228 9.012 145.948 8.5C145.668 7.98 145.528 7.38 145.528 6.7C145.528 6.02 145.664 5.424 145.936 4.912C146.208 4.4 146.588 4.008 147.076 3.736C147.572 3.456 148.14 3.316 148.78 3.316C149.404 3.316 149.956 3.452 150.436 3.724C150.916 3.996 151.284 4.372 151.54 4.852C151.804 5.324 151.936 5.86 151.936 6.46ZM150.808 6.232C150.808 5.816 150.716 5.46 150.532 5.164C150.348 4.86 150.096 4.632 149.776 4.48C149.464 4.32 149.116 4.24 148.732 4.24C148.18 4.24 147.708 4.416 147.316 4.768C146.932 5.12 146.712 5.608 146.656 6.232H150.808Z" fill="white"/>
</g>
<defs>
<clipPath id="clip0_342_561">
<rect width="153" height="12" fill="white"/>
</clipPath>
</defs>
</svg>
