<svg width="1232" height="184" viewBox="0 0 1232 184" fill="none" xmlns="http://www.w3.org/2000/svg">
<g clip-path="url(#clip0_376_23163)">
<path d="M7.824 171.52H2.96L2.064 174H0.528L4.56 162.912H6.24L10.256 174H8.72L7.824 171.52ZM7.408 170.336L5.392 164.704L3.376 170.336H7.408ZM13.4693 166.848C13.7573 166.347 14.1839 165.931 14.7493 165.6C15.3253 165.259 15.9919 165.088 16.7493 165.088C17.5279 165.088 18.2319 165.275 18.8612 165.648C19.5012 166.021 20.0026 166.549 20.3653 167.232C20.7279 167.904 20.9093 168.688 20.9093 169.584C20.9093 170.469 20.7279 171.259 20.3653 171.952C20.0026 172.645 19.5012 173.184 18.8612 173.568C18.2319 173.952 17.5279 174.144 16.7493 174.144C16.0026 174.144 15.3413 173.979 14.7653 173.648C14.1999 173.307 13.7679 172.885 13.4693 172.384V178.16H12.0133V165.232H13.4693V166.848ZM19.4213 169.584C19.4213 168.923 19.2879 168.347 19.0213 167.856C18.7546 167.365 18.3919 166.992 17.9333 166.736C17.4853 166.48 16.9893 166.352 16.4453 166.352C15.9119 166.352 15.4159 166.485 14.9573 166.752C14.5093 167.008 14.1466 167.387 13.8693 167.888C13.6026 168.379 13.4693 168.949 13.4693 169.6C13.4693 170.261 13.6026 170.843 13.8693 171.344C14.1466 171.835 14.5093 172.213 14.9573 172.48C15.4159 172.736 15.9119 172.864 16.4453 172.864C16.9893 172.864 17.4853 172.736 17.9333 172.48C18.3919 172.213 18.7546 171.835 19.0213 171.344C19.2879 170.843 19.4213 170.256 19.4213 169.584ZM24.2818 166.656C24.5378 166.155 24.9004 165.765 25.3698 165.488C25.8498 165.211 26.4311 165.072 27.1138 165.072V166.576H26.7298C25.0978 166.576 24.2818 167.461 24.2818 169.232V174H22.8258V165.232H24.2818V166.656ZM29.5465 163.808C29.2692 163.808 29.0345 163.712 28.8425 163.52C28.6505 163.328 28.5545 163.093 28.5545 162.816C28.5545 162.539 28.6505 162.304 28.8425 162.112C29.0345 161.92 29.2692 161.824 29.5465 161.824C29.8132 161.824 30.0372 161.92 30.2185 162.112C30.4105 162.304 30.5065 162.539 30.5065 162.816C30.5065 163.093 30.4105 163.328 30.2185 163.52C30.0372 163.712 29.8132 163.808 29.5465 163.808ZM30.2505 165.232V174H28.7945V165.232H30.2505ZM34.188 162.16V174H32.732V162.16H34.188ZM40.5191 172.832C41.8738 171.744 42.9351 170.853 43.7031 170.16C44.4711 169.456 45.1165 168.725 45.6391 167.968C46.1725 167.2 46.4391 166.448 46.4391 165.712C46.4391 165.019 46.2685 164.475 45.9271 164.08C45.5965 163.675 45.0578 163.472 44.3111 163.472C43.5858 163.472 43.0205 163.701 42.6151 164.16C42.2205 164.608 42.0071 165.211 41.9751 165.968H40.5671C40.6098 164.773 40.9725 163.851 41.6551 163.2C42.3378 162.549 43.2178 162.224 44.2951 162.224C45.3938 162.224 46.2631 162.528 46.9031 163.136C47.5538 163.744 47.8791 164.581 47.8791 165.648C47.8791 166.533 47.6125 167.397 47.0791 168.24C46.5565 169.072 45.9591 169.808 45.2871 170.448C44.6151 171.077 43.7565 171.813 42.7111 172.656H48.2151V173.872H40.5191V172.832ZM49.5143 163.76V162.432H52.5223V174H51.0503V163.76H49.5143ZM59.1129 172.832C60.4675 171.744 61.5289 170.853 62.2969 170.16C63.0649 169.456 63.7102 168.725 64.2329 167.968C64.7662 167.2 65.0329 166.448 65.0329 165.712C65.0329 165.019 64.8622 164.475 64.5209 164.08C64.1902 163.675 63.6515 163.472 62.9049 163.472C62.1795 163.472 61.6142 163.701 61.2089 164.16C60.8142 164.608 60.6009 165.211 60.5689 165.968H59.1609C59.2035 164.773 59.5662 163.851 60.2489 163.2C60.9315 162.549 61.8115 162.224 62.8889 162.224C63.9875 162.224 64.8569 162.528 65.4969 163.136C66.1475 163.744 66.4729 164.581 66.4729 165.648C66.4729 166.533 66.2062 167.397 65.6729 168.24C65.1502 169.072 64.5529 169.808 63.8809 170.448C63.2089 171.077 62.3502 171.813 61.3049 172.656H66.8089V173.872H59.1129V172.832ZM68.492 168.096C68.492 166.261 68.7907 164.832 69.388 163.808C69.9853 162.773 71.0307 162.256 72.524 162.256C74.0067 162.256 75.0467 162.773 75.644 163.808C76.2413 164.832 76.54 166.261 76.54 168.096C76.54 169.963 76.2413 171.413 75.644 172.448C75.0467 173.483 74.0067 174 72.524 174C71.0307 174 69.9853 173.483 69.388 172.448C68.7907 171.413 68.492 169.963 68.492 168.096ZM75.1 168.096C75.1 167.168 75.036 166.384 74.908 165.744C74.7907 165.093 74.54 164.571 74.156 164.176C73.7827 163.781 73.2387 163.584 72.524 163.584C71.7987 163.584 71.244 163.781 70.86 164.176C70.4867 164.571 70.236 165.093 70.108 165.744C69.9907 166.384 69.932 167.168 69.932 168.096C69.932 169.056 69.9907 169.861 70.108 170.512C70.236 171.163 70.4867 171.685 70.86 172.08C71.244 172.475 71.7987 172.672 72.524 172.672C73.2387 172.672 73.7827 172.475 74.156 172.08C74.54 171.685 74.7907 171.163 74.908 170.512C75.036 169.861 75.1 169.056 75.1 168.096ZM78.3629 172.832C79.7175 171.744 80.7789 170.853 81.5469 170.16C82.3149 169.456 82.9602 168.725 83.4829 167.968C84.0162 167.2 84.2829 166.448 84.2829 165.712C84.2829 165.019 84.1122 164.475 83.7709 164.08C83.4402 163.675 82.9015 163.472 82.1549 163.472C81.4295 163.472 80.8642 163.701 80.4589 164.16C80.0642 164.608 79.8509 165.211 79.8189 165.968H78.4109C78.4535 164.773 78.8162 163.851 79.4989 163.2C80.1815 162.549 81.0615 162.224 82.1389 162.224C83.2375 162.224 84.1069 162.528 84.7469 163.136C85.3975 163.744 85.7229 164.581 85.7229 165.648C85.7229 166.533 85.4562 167.397 84.9229 168.24C84.4002 169.072 83.8029 169.808 83.1309 170.448C82.4589 171.077 81.6002 171.813 80.5549 172.656H86.0589V173.872H78.3629V172.832ZM87.358 163.76V162.432H90.366V174H88.894V163.76H87.358Z" fill="#2E2E2E"/>
<path d="M7.8 111.152C9.576 111.152 11.128 111.504 12.456 112.208C13.784 112.912 14.808 113.904 15.528 115.184C16.264 116.448 16.632 117.912 16.632 119.576C16.632 121.224 16.264 122.688 15.528 123.968C14.808 125.248 13.776 126.24 12.432 126.944C11.104 127.648 9.56 128 7.8 128H1.488V111.152H7.8ZM7.536 124.448C9.088 124.448 10.296 124.024 11.16 123.176C12.024 122.328 12.456 121.128 12.456 119.576C12.456 118.024 12.024 116.816 11.16 115.952C10.296 115.088 9.088 114.656 7.536 114.656H5.592V124.448H7.536ZM18.1095 121.28C18.1095 119.904 18.3655 118.696 18.8775 117.656C19.4055 116.616 20.1175 115.816 21.0135 115.256C21.9095 114.696 22.9095 114.416 24.0135 114.416C24.9575 114.416 25.7815 114.608 26.4855 114.992C27.2055 115.376 27.7575 115.88 28.1415 116.504V114.608H32.2455V128H28.1415V126.104C27.7415 126.728 27.1815 127.232 26.4615 127.616C25.7575 128 24.9335 128.192 23.9895 128.192C22.9015 128.192 21.9095 127.912 21.0135 127.352C20.1175 126.776 19.4055 125.968 18.8775 124.928C18.3655 123.872 18.1095 122.656 18.1095 121.28ZM28.1415 121.304C28.1415 120.28 27.8535 119.472 27.2775 118.88C26.7175 118.288 26.0295 117.992 25.2135 117.992C24.3975 117.992 23.7015 118.288 23.1255 118.88C22.5655 119.456 22.2855 120.256 22.2855 121.28C22.2855 122.304 22.5655 123.12 23.1255 123.728C23.7015 124.32 24.3975 124.616 25.2135 124.616C26.0295 124.616 26.7175 124.32 27.2775 123.728C27.8535 123.136 28.1415 122.328 28.1415 121.304ZM42.6786 124.52V128H40.5906C39.1026 128 37.9426 127.64 37.1106 126.92C36.2786 126.184 35.8626 124.992 35.8626 123.344V118.016H34.2306V114.608H35.8626V111.344H39.9666V114.608H42.6546V118.016H39.9666V123.392C39.9666 123.792 40.0626 124.08 40.2546 124.256C40.4466 124.432 40.7666 124.52 41.2146 124.52H42.6786ZM57.5886 121.088C57.5886 121.472 57.5646 121.872 57.5166 122.288H48.2286C48.2926 123.12 48.5566 123.76 49.0206 124.208C49.5006 124.64 50.0846 124.856 50.7726 124.856C51.7966 124.856 52.5086 124.424 52.9086 123.56H57.2766C57.0526 124.44 56.6446 125.232 56.0526 125.936C55.4766 126.64 54.7486 127.192 53.8686 127.592C52.9886 127.992 52.0046 128.192 50.9166 128.192C49.6046 128.192 48.4366 127.912 47.4126 127.352C46.3886 126.792 45.5886 125.992 45.0126 124.952C44.4366 123.912 44.1486 122.696 44.1486 121.304C44.1486 119.912 44.4286 118.696 44.9886 117.656C45.5646 116.616 46.3646 115.816 47.3886 115.256C48.4126 114.696 49.5886 114.416 50.9166 114.416C52.2126 114.416 53.3646 114.688 54.3726 115.232C55.3806 115.776 56.1646 116.552 56.7246 117.56C57.3006 118.568 57.5886 119.744 57.5886 121.088ZM53.3886 120.008C53.3886 119.304 53.1486 118.744 52.6686 118.328C52.1886 117.912 51.5886 117.704 50.8686 117.704C50.1806 117.704 49.5966 117.904 49.1166 118.304C48.6526 118.704 48.3646 119.272 48.2526 120.008H53.3886Z" fill="#2E2E2E"/>
<path d="M158.864 170.896C158.971 171.504 159.216 171.973 159.6 172.304C159.995 172.635 160.523 172.8 161.184 172.8C162.069 172.8 162.72 172.453 163.136 171.76C163.563 171.067 163.765 169.899 163.744 168.256C163.52 168.736 163.147 169.115 162.624 169.392C162.101 169.659 161.52 169.792 160.88 169.792C160.165 169.792 159.525 169.648 158.96 169.36C158.405 169.061 157.968 168.629 157.648 168.064C157.328 167.499 157.168 166.816 157.168 166.016C157.168 164.875 157.499 163.957 158.16 163.264C158.821 162.56 159.76 162.208 160.976 162.208C162.469 162.208 163.515 162.693 164.112 163.664C164.72 164.635 165.024 166.08 165.024 168C165.024 169.344 164.901 170.453 164.656 171.328C164.421 172.203 164.016 172.869 163.44 173.328C162.875 173.787 162.096 174.016 161.104 174.016C160.016 174.016 159.168 173.723 158.56 173.136C157.952 172.549 157.605 171.803 157.52 170.896H158.864ZM161.12 168.56C161.835 168.56 162.421 168.341 162.88 167.904C163.339 167.456 163.568 166.853 163.568 166.096C163.568 165.296 163.344 164.651 162.896 164.16C162.448 163.669 161.819 163.424 161.008 163.424C160.261 163.424 159.664 163.659 159.216 164.128C158.779 164.597 158.56 165.216 158.56 165.984C158.56 166.763 158.779 167.387 159.216 167.856C159.653 168.325 160.288 168.56 161.12 168.56ZM167.774 174.096C167.497 174.096 167.262 174 167.07 173.808C166.878 173.616 166.782 173.381 166.782 173.104C166.782 172.827 166.878 172.592 167.07 172.4C167.262 172.208 167.497 172.112 167.774 172.112C168.041 172.112 168.265 172.208 168.446 172.4C168.638 172.592 168.734 172.827 168.734 173.104C168.734 173.381 168.638 173.616 168.446 173.808C168.265 174 168.041 174.096 167.774 174.096ZM167.774 167.248C167.497 167.248 167.262 167.152 167.07 166.96C166.878 166.768 166.782 166.533 166.782 166.256C166.782 165.979 166.878 165.744 167.07 165.552C167.262 165.36 167.497 165.264 167.774 165.264C168.041 165.264 168.265 165.36 168.446 165.552C168.638 165.744 168.734 165.979 168.734 166.256C168.734 166.533 168.638 166.768 168.446 166.96C168.265 167.152 168.041 167.248 167.774 167.248ZM170.476 168.096C170.476 166.261 170.775 164.832 171.372 163.808C171.97 162.773 173.015 162.256 174.508 162.256C175.991 162.256 177.031 162.773 177.628 163.808C178.226 164.832 178.524 166.261 178.524 168.096C178.524 169.963 178.226 171.413 177.628 172.448C177.031 173.483 175.991 174 174.508 174C173.015 174 171.97 173.483 171.372 172.448C170.775 171.413 170.476 169.963 170.476 168.096ZM177.084 168.096C177.084 167.168 177.02 166.384 176.892 165.744C176.775 165.093 176.524 164.571 176.14 164.176C175.767 163.781 175.223 163.584 174.508 163.584C173.783 163.584 173.228 163.781 172.844 164.176C172.471 164.571 172.22 165.093 172.092 165.744C171.975 166.384 171.916 167.168 171.916 168.096C171.916 169.056 171.975 169.861 172.092 170.512C172.22 171.163 172.471 171.685 172.844 172.08C173.228 172.475 173.783 172.672 174.508 172.672C175.223 172.672 175.767 172.475 176.14 172.08C176.524 171.685 176.775 171.163 176.892 170.512C177.02 169.861 177.084 169.056 177.084 168.096ZM180.523 168.096C180.523 166.261 180.822 164.832 181.419 163.808C182.017 162.773 183.062 162.256 184.555 162.256C186.038 162.256 187.078 162.773 187.675 163.808C188.273 164.832 188.571 166.261 188.571 168.096C188.571 169.963 188.273 171.413 187.675 172.448C187.078 173.483 186.038 174 184.555 174C183.062 174 182.017 173.483 181.419 172.448C180.822 171.413 180.523 169.963 180.523 168.096ZM187.131 168.096C187.131 167.168 187.067 166.384 186.939 165.744C186.822 165.093 186.571 164.571 186.187 164.176C185.814 163.781 185.27 163.584 184.555 163.584C183.83 163.584 183.275 163.781 182.891 164.176C182.518 164.571 182.267 165.093 182.139 165.744C182.022 166.384 181.963 167.168 181.963 168.096C181.963 169.056 182.022 169.861 182.139 170.512C182.267 171.163 182.518 171.685 182.891 172.08C183.275 172.475 183.83 172.672 184.555 172.672C185.27 172.672 185.814 172.475 186.187 172.08C186.571 171.685 186.822 171.163 186.939 170.512C187.067 169.861 187.131 169.056 187.131 168.096ZM201.668 171.52H196.804L195.908 174H194.372L198.404 162.912H200.084L204.1 174H202.564L201.668 171.52ZM201.252 170.336L199.236 164.704L197.22 170.336H201.252ZM217.169 162.928V174H215.713V165.744L212.033 174H211.009L207.313 165.728V174H205.857V162.928H207.425L211.521 172.08L215.617 162.928H217.169ZM229.984 167.52V168.752H223.6V167.52H229.984ZM236.71 165.344C236.785 164.363 237.163 163.595 237.846 163.04C238.529 162.485 239.414 162.208 240.502 162.208C241.227 162.208 241.851 162.341 242.374 162.608C242.907 162.864 243.307 163.216 243.574 163.664C243.851 164.112 243.99 164.619 243.99 165.184C243.99 165.845 243.798 166.416 243.414 166.896C243.041 167.376 242.55 167.685 241.942 167.824V167.904C242.635 168.075 243.185 168.411 243.59 168.912C243.995 169.413 244.198 170.069 244.198 170.88C244.198 171.488 244.059 172.037 243.782 172.528C243.505 173.008 243.089 173.387 242.534 173.664C241.979 173.941 241.313 174.08 240.534 174.08C239.403 174.08 238.475 173.787 237.75 173.2C237.025 172.603 236.619 171.76 236.534 170.672H237.942C238.017 171.312 238.278 171.835 238.726 172.24C239.174 172.645 239.771 172.848 240.518 172.848C241.265 172.848 241.83 172.656 242.214 172.272C242.609 171.877 242.806 171.371 242.806 170.752C242.806 169.952 242.539 169.376 242.006 169.024C241.473 168.672 240.667 168.496 239.59 168.496H239.222V167.28H239.606C240.587 167.269 241.329 167.109 241.83 166.8C242.331 166.48 242.582 165.989 242.582 165.328C242.582 164.763 242.395 164.309 242.022 163.968C241.659 163.627 241.137 163.456 240.454 163.456C239.793 163.456 239.259 163.627 238.854 163.968C238.449 164.309 238.209 164.768 238.134 165.344H236.71ZM246.868 174.096C246.591 174.096 246.356 174 246.164 173.808C245.972 173.616 245.876 173.381 245.876 173.104C245.876 172.827 245.972 172.592 246.164 172.4C246.356 172.208 246.591 172.112 246.868 172.112C247.135 172.112 247.359 172.208 247.54 172.4C247.732 172.592 247.828 172.827 247.828 173.104C247.828 173.381 247.732 173.616 247.54 173.808C247.359 174 247.135 174.096 246.868 174.096ZM246.868 167.248C246.591 167.248 246.356 167.152 246.164 166.96C245.972 166.768 245.876 166.533 245.876 166.256C245.876 165.979 245.972 165.744 246.164 165.552C246.356 165.36 246.591 165.264 246.868 165.264C247.135 165.264 247.359 165.36 247.54 165.552C247.732 165.744 247.828 165.979 247.828 166.256C247.828 166.533 247.732 166.768 247.54 166.96C247.359 167.152 247.135 167.248 246.868 167.248ZM249.57 168.096C249.57 166.261 249.869 164.832 250.466 163.808C251.063 162.773 252.109 162.256 253.602 162.256C255.085 162.256 256.125 162.773 256.722 163.808C257.319 164.832 257.618 166.261 257.618 168.096C257.618 169.963 257.319 171.413 256.722 172.448C256.125 173.483 255.085 174 253.602 174C252.109 174 251.063 173.483 250.466 172.448C249.869 171.413 249.57 169.963 249.57 168.096ZM256.178 168.096C256.178 167.168 256.114 166.384 255.986 165.744C255.869 165.093 255.618 164.571 255.234 164.176C254.861 163.781 254.317 163.584 253.602 163.584C252.877 163.584 252.322 163.781 251.938 164.176C251.565 164.571 251.314 165.093 251.186 165.744C251.069 166.384 251.01 167.168 251.01 168.096C251.01 169.056 251.069 169.861 251.186 170.512C251.314 171.163 251.565 171.685 251.938 172.08C252.322 172.475 252.877 172.672 253.602 172.672C254.317 172.672 254.861 172.475 255.234 172.08C255.618 171.685 255.869 171.163 255.986 170.512C256.114 169.861 256.178 169.056 256.178 168.096ZM259.617 168.096C259.617 166.261 259.916 164.832 260.513 163.808C261.11 162.773 262.156 162.256 263.649 162.256C265.132 162.256 266.172 162.773 266.769 163.808C267.366 164.832 267.665 166.261 267.665 168.096C267.665 169.963 267.366 171.413 266.769 172.448C266.172 173.483 265.132 174 263.649 174C262.156 174 261.11 173.483 260.513 172.448C259.916 171.413 259.617 169.963 259.617 168.096ZM266.225 168.096C266.225 167.168 266.161 166.384 266.033 165.744C265.916 165.093 265.665 164.571 265.281 164.176C264.908 163.781 264.364 163.584 263.649 163.584C262.924 163.584 262.369 163.781 261.985 164.176C261.612 164.571 261.361 165.093 261.233 165.744C261.116 166.384 261.057 167.168 261.057 168.096C261.057 169.056 261.116 169.861 261.233 170.512C261.361 171.163 261.612 171.685 261.985 172.08C262.369 172.475 262.924 172.672 263.649 172.672C264.364 172.672 264.908 172.475 265.281 172.08C265.665 171.685 265.916 171.163 266.033 170.512C266.161 169.861 266.225 169.056 266.225 168.096ZM281.626 166.112C281.626 167.04 281.306 167.813 280.666 168.432C280.036 169.04 279.071 169.344 277.77 169.344H275.626V174H274.17V162.848H277.77C279.028 162.848 279.983 163.152 280.634 163.76C281.295 164.368 281.626 165.152 281.626 166.112ZM277.77 168.144C278.58 168.144 279.178 167.968 279.562 167.616C279.946 167.264 280.138 166.763 280.138 166.112C280.138 164.736 279.348 164.048 277.77 164.048H275.626V168.144H277.77ZM294.747 162.928V174H293.291V165.744L289.611 174H288.587L284.891 165.728V174H283.435V162.928H285.003L289.099 172.08L293.195 162.928H294.747Z" fill="#2E2E2E"/>
<path d="M169.608 111.152V114.44H165.144V128H161.04V114.44H156.576V111.152H169.608ZM173.732 113.216C173.012 113.216 172.42 113.008 171.956 112.592C171.508 112.16 171.284 111.632 171.284 111.008C171.284 110.368 171.508 109.84 171.956 109.424C172.42 108.992 173.012 108.776 173.732 108.776C174.436 108.776 175.012 108.992 175.46 109.424C175.924 109.84 176.156 110.368 176.156 111.008C176.156 111.632 175.924 112.16 175.46 112.592C175.012 113.008 174.436 113.216 173.732 113.216ZM175.772 114.608V128H171.668V114.608H175.772ZM195.834 114.464C197.498 114.464 198.818 114.968 199.794 115.976C200.786 116.984 201.282 118.384 201.282 120.176V128H197.202V120.728C197.202 119.864 196.97 119.2 196.506 118.736C196.058 118.256 195.434 118.016 194.634 118.016C193.834 118.016 193.202 118.256 192.738 118.736C192.29 119.2 192.066 119.864 192.066 120.728V128H187.986V120.728C187.986 119.864 187.754 119.2 187.29 118.736C186.842 118.256 186.218 118.016 185.418 118.016C184.618 118.016 183.986 118.256 183.522 118.736C183.074 119.2 182.85 119.864 182.85 120.728V128H178.746V114.608H182.85V116.288C183.266 115.728 183.81 115.288 184.482 114.968C185.154 114.632 185.914 114.464 186.762 114.464C187.77 114.464 188.666 114.68 189.45 115.112C190.25 115.544 190.874 116.16 191.322 116.96C191.786 116.224 192.418 115.624 193.218 115.16C194.018 114.696 194.89 114.464 195.834 114.464ZM216.776 121.088C216.776 121.472 216.752 121.872 216.704 122.288H207.416C207.48 123.12 207.744 123.76 208.208 124.208C208.688 124.64 209.272 124.856 209.96 124.856C210.984 124.856 211.696 124.424 212.096 123.56H216.464C216.24 124.44 215.832 125.232 215.24 125.936C214.664 126.64 213.936 127.192 213.056 127.592C212.176 127.992 211.192 128.192 210.104 128.192C208.792 128.192 207.624 127.912 206.6 127.352C205.576 126.792 204.776 125.992 204.2 124.952C203.624 123.912 203.336 122.696 203.336 121.304C203.336 119.912 203.616 118.696 204.176 117.656C204.752 116.616 205.552 115.816 206.576 115.256C207.6 114.696 208.776 114.416 210.104 114.416C211.4 114.416 212.552 114.688 213.56 115.232C214.568 115.776 215.352 116.552 215.912 117.56C216.488 118.568 216.776 119.744 216.776 121.088ZM212.576 120.008C212.576 119.304 212.336 118.744 211.856 118.328C211.376 117.912 210.776 117.704 210.056 117.704C209.368 117.704 208.784 117.904 208.304 118.304C207.84 118.704 207.552 119.272 207.44 120.008H212.576Z" fill="#2E2E2E"/>
<path d="M366.848 162.848V171.088C366.848 172.005 366.565 172.741 366 173.296C365.435 173.84 364.688 174.112 363.76 174.112C362.821 174.112 362.069 173.835 361.504 173.28C360.939 172.715 360.656 171.947 360.656 170.976H362.112C362.123 171.52 362.261 171.963 362.528 172.304C362.805 172.645 363.216 172.816 363.76 172.816C364.304 172.816 364.709 172.656 364.976 172.336C365.243 172.005 365.376 171.589 365.376 171.088V162.848H366.848ZM369.172 169.584C369.172 168.688 369.354 167.904 369.716 167.232C370.079 166.549 370.575 166.021 371.204 165.648C371.844 165.275 372.554 165.088 373.332 165.088C374.1 165.088 374.767 165.253 375.332 165.584C375.898 165.915 376.319 166.331 376.596 166.832V165.232H378.068V174H376.596V172.368C376.308 172.88 375.876 173.307 375.3 173.648C374.735 173.979 374.074 174.144 373.316 174.144C372.538 174.144 371.834 173.952 371.204 173.568C370.575 173.184 370.079 172.645 369.716 171.952C369.354 171.259 369.172 170.469 369.172 169.584ZM376.596 169.6C376.596 168.939 376.463 168.363 376.196 167.872C375.93 167.381 375.567 167.008 375.108 166.752C374.66 166.485 374.164 166.352 373.62 166.352C373.076 166.352 372.58 166.48 372.132 166.736C371.684 166.992 371.327 167.365 371.06 167.856C370.794 168.347 370.66 168.923 370.66 169.584C370.66 170.256 370.794 170.843 371.06 171.344C371.327 171.835 371.684 172.213 372.132 172.48C372.58 172.736 373.076 172.864 373.62 172.864C374.164 172.864 374.66 172.736 375.108 172.48C375.567 172.213 375.93 171.835 376.196 171.344C376.463 170.843 376.596 170.261 376.596 169.6ZM391.073 165.072C391.756 165.072 392.364 165.216 392.897 165.504C393.43 165.781 393.852 166.203 394.161 166.768C394.47 167.333 394.625 168.021 394.625 168.832V174H393.185V169.04C393.185 168.165 392.966 167.499 392.529 167.04C392.102 166.571 391.521 166.336 390.785 166.336C390.028 166.336 389.425 166.581 388.977 167.072C388.529 167.552 388.305 168.251 388.305 169.168V174H386.865V169.04C386.865 168.165 386.646 167.499 386.209 167.04C385.782 166.571 385.201 166.336 384.465 166.336C383.708 166.336 383.105 166.581 382.657 167.072C382.209 167.552 381.985 168.251 381.985 169.168V174H380.529V165.232H381.985V166.496C382.273 166.037 382.657 165.685 383.137 165.44C383.628 165.195 384.166 165.072 384.753 165.072C385.489 165.072 386.14 165.237 386.705 165.568C387.27 165.899 387.692 166.384 387.969 167.024C388.214 166.405 388.62 165.925 389.185 165.584C389.75 165.243 390.38 165.072 391.073 165.072ZM404.789 165.232V174H403.333V172.704C403.056 173.152 402.667 173.504 402.165 173.76C401.675 174.005 401.131 174.128 400.533 174.128C399.851 174.128 399.237 173.989 398.693 173.712C398.149 173.424 397.717 172.997 397.397 172.432C397.088 171.867 396.933 171.179 396.933 170.368V165.232H398.373V170.176C398.373 171.04 398.592 171.707 399.029 172.176C399.467 172.635 400.064 172.864 400.821 172.864C401.6 172.864 402.213 172.624 402.661 172.144C403.109 171.664 403.333 170.965 403.333 170.048V165.232H404.789ZM411.6 165.072C412.261 165.072 412.858 165.216 413.392 165.504C413.925 165.781 414.341 166.203 414.64 166.768C414.949 167.333 415.104 168.021 415.104 168.832V174H413.664V169.04C413.664 168.165 413.445 167.499 413.008 167.04C412.57 166.571 411.973 166.336 411.216 166.336C410.448 166.336 409.834 166.576 409.376 167.056C408.928 167.536 408.704 168.235 408.704 169.152V174H407.248V162.16H408.704V166.48C408.992 166.032 409.386 165.685 409.888 165.44C410.4 165.195 410.97 165.072 411.6 165.072ZM425.258 165.232V174H423.802V172.704C423.525 173.152 423.135 173.504 422.634 173.76C422.143 174.005 421.599 174.128 421.002 174.128C420.319 174.128 419.706 173.989 419.162 173.712C418.618 173.424 418.186 172.997 417.866 172.432C417.557 171.867 417.402 171.179 417.402 170.368V165.232H418.842V170.176C418.842 171.04 419.061 171.707 419.498 172.176C419.935 172.635 420.533 172.864 421.29 172.864C422.069 172.864 422.682 172.624 423.13 172.144C423.578 171.664 423.802 170.965 423.802 170.048V165.232H425.258ZM429.172 166.656C429.428 166.155 429.791 165.765 430.26 165.488C430.74 165.211 431.322 165.072 432.004 165.072V166.576H431.62C429.988 166.576 429.172 167.461 429.172 169.232V174H427.716V165.232H429.172V166.656ZM434.437 163.808C434.16 163.808 433.925 163.712 433.733 163.52C433.541 163.328 433.445 163.093 433.445 162.816C433.445 162.539 433.541 162.304 433.733 162.112C433.925 161.92 434.16 161.824 434.437 161.824C434.704 161.824 434.928 161.92 435.109 162.112C435.301 162.304 435.397 162.539 435.397 162.816C435.397 163.093 435.301 163.328 435.109 163.52C434.928 163.712 434.704 163.808 434.437 163.808ZM435.141 165.232V174H433.685V165.232H435.141ZM450.336 166.08C450.027 165.429 449.579 164.928 448.992 164.576C448.406 164.213 447.723 164.032 446.944 164.032C446.166 164.032 445.462 164.213 444.832 164.576C444.214 164.928 443.723 165.44 443.36 166.112C443.008 166.773 442.832 167.541 442.832 168.416C442.832 169.291 443.008 170.059 443.36 170.72C443.723 171.381 444.214 171.893 444.832 172.256C445.462 172.608 446.166 172.784 446.944 172.784C448.032 172.784 448.928 172.459 449.632 171.808C450.336 171.157 450.747 170.277 450.864 169.168H446.416V167.984H452.416V169.104C452.331 170.021 452.043 170.864 451.552 171.632C451.062 172.389 450.416 172.992 449.616 173.44C448.816 173.877 447.926 174.096 446.944 174.096C445.91 174.096 444.966 173.856 444.112 173.376C443.259 172.885 442.582 172.208 442.08 171.344C441.59 170.48 441.344 169.504 441.344 168.416C441.344 167.328 441.59 166.352 442.08 165.488C442.582 164.613 443.259 163.936 444.112 163.456C444.966 162.965 445.91 162.72 446.944 162.72C448.128 162.72 449.174 163.013 450.08 163.6C450.998 164.187 451.664 165.013 452.08 166.08H450.336ZM455.797 166.656C456.053 166.155 456.416 165.765 456.885 165.488C457.365 165.211 457.947 165.072 458.629 165.072V166.576H458.245C456.613 166.576 455.797 167.461 455.797 169.232V174H454.341V165.232H455.797V166.656ZM464.134 174.144C463.313 174.144 462.566 173.957 461.894 173.584C461.233 173.211 460.71 172.683 460.326 172C459.953 171.307 459.766 170.507 459.766 169.6C459.766 168.704 459.958 167.915 460.342 167.232C460.737 166.539 461.27 166.011 461.942 165.648C462.614 165.275 463.366 165.088 464.198 165.088C465.03 165.088 465.782 165.275 466.454 165.648C467.126 166.011 467.654 166.533 468.038 167.216C468.433 167.899 468.63 168.693 468.63 169.6C468.63 170.507 468.427 171.307 468.022 172C467.627 172.683 467.089 173.211 466.406 173.584C465.723 173.957 464.966 174.144 464.134 174.144ZM464.134 172.864C464.657 172.864 465.147 172.741 465.606 172.496C466.065 172.251 466.433 171.883 466.71 171.392C466.998 170.901 467.142 170.304 467.142 169.6C467.142 168.896 467.003 168.299 466.726 167.808C466.449 167.317 466.086 166.955 465.638 166.72C465.19 166.475 464.705 166.352 464.182 166.352C463.649 166.352 463.158 166.475 462.71 166.72C462.273 166.955 461.921 167.317 461.654 167.808C461.387 168.299 461.254 168.896 461.254 169.6C461.254 170.315 461.382 170.917 461.638 171.408C461.905 171.899 462.257 172.267 462.694 172.512C463.131 172.747 463.611 172.864 464.134 172.864ZM478.321 165.232V174H476.865V172.704C476.587 173.152 476.198 173.504 475.697 173.76C475.206 174.005 474.662 174.128 474.065 174.128C473.382 174.128 472.769 173.989 472.225 173.712C471.681 173.424 471.249 172.997 470.929 172.432C470.619 171.867 470.465 171.179 470.465 170.368V165.232H471.905V170.176C471.905 171.04 472.123 171.707 472.561 172.176C472.998 172.635 473.595 172.864 474.353 172.864C475.131 172.864 475.745 172.624 476.193 172.144C476.641 171.664 476.865 170.965 476.865 170.048V165.232H478.321ZM485.051 165.072C486.118 165.072 486.982 165.397 487.643 166.048C488.304 166.688 488.635 167.616 488.635 168.832V174H487.195V169.04C487.195 168.165 486.976 167.499 486.539 167.04C486.102 166.571 485.504 166.336 484.747 166.336C483.979 166.336 483.366 166.576 482.907 167.056C482.459 167.536 482.235 168.235 482.235 169.152V174H480.779V165.232H482.235V166.48C482.523 166.032 482.912 165.685 483.403 165.44C483.904 165.195 484.454 165.072 485.051 165.072ZM490.469 169.584C490.469 168.688 490.651 167.904 491.013 167.232C491.376 166.549 491.872 166.021 492.501 165.648C493.141 165.275 493.856 165.088 494.645 165.088C495.328 165.088 495.963 165.248 496.549 165.568C497.136 165.877 497.584 166.288 497.893 166.8V162.16H499.365V174H497.893V172.352C497.605 172.875 497.179 173.307 496.613 173.648C496.048 173.979 495.387 174.144 494.629 174.144C493.851 174.144 493.141 173.952 492.501 173.568C491.872 173.184 491.376 172.645 491.013 171.952C490.651 171.259 490.469 170.469 490.469 169.584ZM497.893 169.6C497.893 168.939 497.76 168.363 497.493 167.872C497.227 167.381 496.864 167.008 496.405 166.752C495.957 166.485 495.461 166.352 494.917 166.352C494.373 166.352 493.877 166.48 493.429 166.736C492.981 166.992 492.624 167.365 492.357 167.856C492.091 168.347 491.957 168.923 491.957 169.584C491.957 170.256 492.091 170.843 492.357 171.344C492.624 171.835 492.981 172.213 493.429 172.48C493.877 172.736 494.373 172.864 494.917 172.864C495.461 172.864 495.957 172.736 496.405 172.48C496.864 172.213 497.227 171.835 497.493 171.344C497.76 170.843 497.893 170.261 497.893 169.6ZM504.93 174.144C504.258 174.144 503.655 174.032 503.122 173.808C502.588 173.573 502.167 173.253 501.858 172.848C501.548 172.432 501.378 171.957 501.346 171.424H502.85C502.892 171.861 503.095 172.219 503.458 172.496C503.831 172.773 504.316 172.912 504.914 172.912C505.468 172.912 505.906 172.789 506.226 172.544C506.546 172.299 506.706 171.989 506.706 171.616C506.706 171.232 506.535 170.949 506.194 170.768C505.852 170.576 505.324 170.389 504.61 170.208C503.959 170.037 503.426 169.867 503.01 169.696C502.604 169.515 502.252 169.253 501.954 168.912C501.666 168.56 501.522 168.101 501.522 167.536C501.522 167.088 501.655 166.677 501.922 166.304C502.188 165.931 502.567 165.637 503.058 165.424C503.548 165.2 504.108 165.088 504.738 165.088C505.708 165.088 506.492 165.333 507.09 165.824C507.687 166.315 508.007 166.987 508.05 167.84H506.594C506.562 167.381 506.375 167.013 506.034 166.736C505.703 166.459 505.255 166.32 504.69 166.32C504.167 166.32 503.751 166.432 503.442 166.656C503.132 166.88 502.978 167.173 502.978 167.536C502.978 167.824 503.068 168.064 503.25 168.256C503.442 168.437 503.676 168.587 503.954 168.704C504.242 168.811 504.636 168.933 505.138 169.072C505.767 169.243 506.279 169.413 506.674 169.584C507.068 169.744 507.404 169.989 507.682 170.32C507.97 170.651 508.119 171.083 508.13 171.616C508.13 172.096 507.996 172.528 507.73 172.912C507.463 173.296 507.084 173.6 506.594 173.824C506.114 174.037 505.559 174.144 504.93 174.144Z" fill="#2E2E2E"/>
<path d="M365.592 124.832H370.968V128H361.488V111.152H365.592V124.832ZM379.022 128.192C377.71 128.192 376.526 127.912 375.47 127.352C374.43 126.792 373.606 125.992 372.998 124.952C372.406 123.912 372.11 122.696 372.11 121.304C372.11 119.928 372.414 118.72 373.021 117.68C373.63 116.624 374.462 115.816 375.518 115.256C376.574 114.696 377.758 114.416 379.07 114.416C380.382 114.416 381.566 114.696 382.622 115.256C383.678 115.816 384.51 116.624 385.118 117.68C385.726 118.72 386.03 119.928 386.03 121.304C386.03 122.68 385.718 123.896 385.094 124.952C384.486 125.992 383.646 126.792 382.574 127.352C381.518 127.912 380.334 128.192 379.022 128.192ZM379.022 124.64C379.806 124.64 380.47 124.352 381.014 123.776C381.574 123.2 381.854 122.376 381.854 121.304C381.854 120.232 381.582 119.408 381.038 118.832C380.51 118.256 379.854 117.968 379.07 117.968C378.27 117.968 377.606 118.256 377.078 118.832C376.55 119.392 376.286 120.216 376.286 121.304C376.286 122.376 376.542 123.2 377.054 123.776C377.582 124.352 378.238 124.64 379.022 124.64ZM387.391 121.304C387.391 119.912 387.671 118.696 388.231 117.656C388.807 116.616 389.599 115.816 390.607 115.256C391.631 114.696 392.799 114.416 394.111 114.416C395.791 114.416 397.191 114.856 398.311 115.736C399.447 116.616 400.191 117.856 400.543 119.456H396.175C395.807 118.432 395.095 117.92 394.039 117.92C393.287 117.92 392.687 118.216 392.239 118.808C391.791 119.384 391.567 120.216 391.567 121.304C391.567 122.392 391.791 123.232 392.239 123.824C392.687 124.4 393.287 124.688 394.039 124.688C395.095 124.688 395.807 124.176 396.175 123.152H400.543C400.191 124.72 399.447 125.952 398.311 126.848C397.175 127.744 395.775 128.192 394.111 128.192C392.799 128.192 391.631 127.912 390.607 127.352C389.599 126.792 388.807 125.992 388.231 124.952C387.671 123.912 387.391 122.696 387.391 121.304ZM401.922 121.28C401.922 119.904 402.178 118.696 402.69 117.656C403.218 116.616 403.93 115.816 404.826 115.256C405.722 114.696 406.722 114.416 407.826 114.416C408.77 114.416 409.594 114.608 410.298 114.992C411.018 115.376 411.57 115.88 411.954 116.504V114.608H416.058V128H411.954V126.104C411.554 126.728 410.994 127.232 410.274 127.616C409.57 128 408.746 128.192 407.802 128.192C406.714 128.192 405.722 127.912 404.826 127.352C403.93 126.776 403.218 125.968 402.69 124.928C402.178 123.872 401.922 122.656 401.922 121.28ZM411.954 121.304C411.954 120.28 411.666 119.472 411.09 118.88C410.53 118.288 409.842 117.992 409.026 117.992C408.21 117.992 407.514 118.288 406.938 118.88C406.378 119.456 406.098 120.256 406.098 121.28C406.098 122.304 406.378 123.12 406.938 123.728C407.514 124.32 408.21 124.616 409.026 124.616C409.842 124.616 410.53 124.32 411.09 123.728C411.666 123.136 411.954 122.328 411.954 121.304ZM426.491 124.52V128H424.403C422.915 128 421.755 127.64 420.923 126.92C420.091 126.184 419.675 124.992 419.675 123.344V118.016H418.043V114.608H419.675V111.344H423.779V114.608H426.467V118.016H423.779V123.392C423.779 123.792 423.875 124.08 424.067 124.256C424.259 124.432 424.579 124.52 425.027 124.52H426.491ZM430.841 113.216C430.121 113.216 429.529 113.008 429.065 112.592C428.617 112.16 428.393 111.632 428.393 111.008C428.393 110.368 428.617 109.84 429.065 109.424C429.529 108.992 430.121 108.776 430.841 108.776C431.545 108.776 432.121 108.992 432.569 109.424C433.033 109.84 433.265 110.368 433.265 111.008C433.265 111.632 433.033 112.16 432.569 112.592C432.121 113.008 431.545 113.216 430.841 113.216ZM432.881 114.608V128H428.777V114.608H432.881ZM441.951 128.192C440.639 128.192 439.455 127.912 438.399 127.352C437.359 126.792 436.535 125.992 435.927 124.952C435.335 123.912 435.039 122.696 435.039 121.304C435.039 119.928 435.343 118.72 435.951 117.68C436.559 116.624 437.391 115.816 438.447 115.256C439.503 114.696 440.687 114.416 441.999 114.416C443.311 114.416 444.495 114.696 445.551 115.256C446.607 115.816 447.439 116.624 448.047 117.68C448.655 118.72 448.959 119.928 448.959 121.304C448.959 122.68 448.647 123.896 448.023 124.952C447.415 125.992 446.575 126.792 445.503 127.352C444.447 127.912 443.263 128.192 441.951 128.192ZM441.951 124.64C442.735 124.64 443.399 124.352 443.943 123.776C444.503 123.2 444.783 122.376 444.783 121.304C444.783 120.232 444.511 119.408 443.967 118.832C443.439 118.256 442.783 117.968 441.999 117.968C441.199 117.968 440.535 118.256 440.007 118.832C439.479 119.392 439.215 120.216 439.215 121.304C439.215 122.376 439.471 123.2 439.983 123.776C440.511 124.352 441.167 124.64 441.951 124.64ZM459.296 114.464C460.864 114.464 462.112 114.976 463.04 116C463.984 117.008 464.456 118.4 464.456 120.176V128H460.376V120.728C460.376 119.832 460.144 119.136 459.68 118.64C459.216 118.144 458.592 117.896 457.808 117.896C457.024 117.896 456.4 118.144 455.936 118.64C455.472 119.136 455.24 119.832 455.24 120.728V128H451.136V114.608H455.24V116.384C455.656 115.792 456.216 115.328 456.92 114.992C457.624 114.64 458.416 114.464 459.296 114.464Z" fill="#2E2E2E"/>
<rect x="1072" y="8" width="160" height="48" rx="3" fill="#0D4929"/>
<path d="M1114.35 34.83H1110.09L1109.31 37H1107.96L1111.49 27.298H1112.96L1116.47 37H1115.13L1114.35 34.83ZM1113.98 33.794L1112.22 28.866L1110.45 33.794H1113.98ZM1119.57 30.378V34.9C1119.57 35.2733 1119.64 35.5393 1119.8 35.698C1119.96 35.8473 1120.24 35.922 1120.63 35.922H1121.57V37H1120.42C1119.71 37 1119.18 36.8367 1118.82 36.51C1118.47 36.1833 1118.29 35.6467 1118.29 34.9V30.378H1117.3V29.328H1118.29V27.396H1119.57V29.328H1121.57V30.378H1119.57ZM1124.67 30.378V34.9C1124.67 35.2733 1124.74 35.5393 1124.9 35.698C1125.06 35.8473 1125.34 35.922 1125.73 35.922H1126.67V37H1125.52C1124.81 37 1124.28 36.8367 1123.92 36.51C1123.57 36.1833 1123.39 35.6467 1123.39 34.9V30.378H1122.4V29.328H1123.39V27.396H1124.67V29.328H1126.67V30.378H1124.67ZM1135.21 32.87C1135.21 33.1127 1135.2 33.3693 1135.17 33.64H1129.04C1129.08 34.396 1129.34 34.9887 1129.81 35.418C1130.28 35.838 1130.86 36.048 1131.53 36.048C1132.08 36.048 1132.54 35.922 1132.9 35.67C1133.27 35.4087 1133.54 35.0633 1133.68 34.634H1135.06C1134.85 35.3713 1134.44 35.9733 1133.82 36.44C1133.21 36.8973 1132.44 37.126 1131.53 37.126C1130.8 37.126 1130.15 36.9627 1129.57 36.636C1129 36.3093 1128.55 35.8473 1128.22 35.25C1127.9 34.6433 1127.73 33.9433 1127.73 33.15C1127.73 32.3567 1127.89 31.6613 1128.21 31.064C1128.53 30.4667 1128.97 30.0093 1129.54 29.692C1130.12 29.3653 1130.78 29.202 1131.53 29.202C1132.26 29.202 1132.9 29.3607 1133.46 29.678C1134.02 29.9953 1134.45 30.434 1134.75 30.994C1135.06 31.5447 1135.21 32.17 1135.21 32.87ZM1133.89 32.604C1133.89 32.1187 1133.79 31.7033 1133.57 31.358C1133.36 31.0033 1133.06 30.7373 1132.69 30.56C1132.33 30.3733 1131.92 30.28 1131.47 30.28C1130.83 30.28 1130.28 30.4853 1129.82 30.896C1129.37 31.3067 1129.12 31.876 1129.05 32.604H1133.89ZM1140.63 29.188C1141.56 29.188 1142.32 29.4727 1142.9 30.042C1143.48 30.602 1143.77 31.414 1143.77 32.478V37H1142.51V32.66C1142.51 31.8947 1142.32 31.3113 1141.93 30.91C1141.55 30.4993 1141.03 30.294 1140.36 30.294C1139.69 30.294 1139.16 30.504 1138.75 30.924C1138.36 31.344 1138.17 31.9553 1138.17 32.758V37H1136.89V29.328H1138.17V30.42C1138.42 30.028 1138.76 29.7247 1139.19 29.51C1139.63 29.2953 1140.11 29.188 1140.63 29.188ZM1145.37 33.136C1145.37 32.352 1145.53 31.666 1145.85 31.078C1146.16 30.4807 1146.6 30.0187 1147.15 29.692C1147.71 29.3653 1148.33 29.202 1149.03 29.202C1149.62 29.202 1150.18 29.342 1150.69 29.622C1151.2 29.8927 1151.6 30.252 1151.87 30.7V26.64H1153.16V37H1151.87V35.558C1151.62 36.0153 1151.24 36.3933 1150.75 36.692C1150.25 36.9813 1149.67 37.126 1149.01 37.126C1148.33 37.126 1147.71 36.958 1147.15 36.622C1146.6 36.286 1146.16 35.8147 1145.85 35.208C1145.53 34.6013 1145.37 33.9107 1145.37 33.136ZM1151.87 33.15C1151.87 32.5713 1151.75 32.0673 1151.52 31.638C1151.28 31.2087 1150.97 30.882 1150.57 30.658C1150.17 30.4247 1149.74 30.308 1149.26 30.308C1148.79 30.308 1148.35 30.42 1147.96 30.644C1147.57 30.868 1147.26 31.1947 1147.02 31.624C1146.79 32.0533 1146.67 32.5573 1146.67 33.136C1146.67 33.724 1146.79 34.2373 1147.02 34.676C1147.26 35.1053 1147.57 35.4367 1147.96 35.67C1148.35 35.894 1148.79 36.006 1149.26 36.006C1149.74 36.006 1150.17 35.894 1150.57 35.67C1150.97 35.4367 1151.28 35.1053 1151.52 34.676C1151.75 34.2373 1151.87 33.7287 1151.87 33.15ZM1160.31 28.278V31.54H1163.87V32.59H1160.31V35.95H1164.29V37H1159.04V27.228H1164.29V28.278H1160.31ZM1169.07 35.824L1171.45 29.328H1172.81L1169.8 37H1168.32L1165.31 29.328H1166.68L1169.07 35.824ZM1181.07 32.87C1181.07 33.1127 1181.05 33.3693 1181.02 33.64H1174.89C1174.94 34.396 1175.2 34.9887 1175.66 35.418C1176.14 35.838 1176.71 36.048 1177.38 36.048C1177.93 36.048 1178.39 35.922 1178.76 35.67C1179.13 35.4087 1179.39 35.0633 1179.54 34.634H1180.91C1180.71 35.3713 1180.3 35.9733 1179.68 36.44C1179.06 36.8973 1178.3 37.126 1177.38 37.126C1176.66 37.126 1176 36.9627 1175.42 36.636C1174.85 36.3093 1174.41 35.8473 1174.08 35.25C1173.75 34.6433 1173.59 33.9433 1173.59 33.15C1173.59 32.3567 1173.75 31.6613 1174.07 31.064C1174.38 30.4667 1174.83 30.0093 1175.4 29.692C1175.97 29.3653 1176.64 29.202 1177.38 29.202C1178.11 29.202 1178.76 29.3607 1179.32 29.678C1179.88 29.9953 1180.31 30.434 1180.6 30.994C1180.91 31.5447 1181.07 32.17 1181.07 32.87ZM1179.75 32.604C1179.75 32.1187 1179.64 31.7033 1179.43 31.358C1179.21 31.0033 1178.92 30.7373 1178.55 30.56C1178.18 30.3733 1177.78 30.28 1177.33 30.28C1176.68 30.28 1176.13 30.4853 1175.68 30.896C1175.23 31.3067 1174.97 31.876 1174.91 32.604H1179.75ZM1186.49 29.188C1187.42 29.188 1188.18 29.4727 1188.75 30.042C1189.33 30.602 1189.62 31.414 1189.62 32.478V37H1188.36V32.66C1188.36 31.8947 1188.17 31.3113 1187.79 30.91C1187.41 30.4993 1186.88 30.294 1186.22 30.294C1185.55 30.294 1185.01 30.504 1184.61 30.924C1184.22 31.344 1184.02 31.9553 1184.02 32.758V37H1182.75V29.328H1184.02V30.42C1184.27 30.028 1184.61 29.7247 1185.04 29.51C1185.48 29.2953 1185.96 29.188 1186.49 29.188ZM1193.26 30.378V34.9C1193.26 35.2733 1193.34 35.5393 1193.5 35.698C1193.65 35.8473 1193.93 35.922 1194.32 35.922H1195.26V37H1194.11C1193.4 37 1192.87 36.8367 1192.52 36.51C1192.16 36.1833 1191.98 35.6467 1191.98 34.9V30.378H1190.99V29.328H1191.98V27.396H1193.26V29.328H1195.26V30.378H1193.26Z" fill="white"/>
<path d="M11.184 21.88V28.696H22.176V35.032H11.184V42.424H23.616V49H2.976V15.304H23.616V21.88H11.184ZM40.9928 41.32L46.8008 22.216H55.5368L46.0328 49H35.9048L26.4008 22.216H35.1848L40.9928 41.32ZM84.2396 35.176C84.2396 35.944 84.1916 36.744 84.0956 37.576H65.5196C65.6476 39.24 66.1756 40.52 67.1036 41.416C68.0636 42.28 69.2316 42.712 70.6076 42.712C72.6556 42.712 74.0796 41.848 74.8796 40.12H83.6156C83.1676 41.88 82.3516 43.464 81.1676 44.872C80.0156 46.28 78.5596 47.384 76.7996 48.184C75.0396 48.984 73.0716 49.384 70.8956 49.384C68.2716 49.384 65.9356 48.824 63.8876 47.704C61.8396 46.584 60.2396 44.984 59.0876 42.904C57.9356 40.824 57.3596 38.392 57.3596 35.608C57.3596 32.824 57.9196 30.392 59.0396 28.312C60.1916 26.232 61.7916 24.632 63.8396 23.512C65.8876 22.392 68.2396 21.832 70.8956 21.832C73.4876 21.832 75.7916 22.376 77.8076 23.464C79.8236 24.552 81.3916 26.104 82.5116 28.12C83.6636 30.136 84.2396 32.488 84.2396 35.176ZM75.8396 33.016C75.8396 31.608 75.3596 30.488 74.3996 29.656C73.4396 28.824 72.2396 28.408 70.7996 28.408C69.4236 28.408 68.2556 28.808 67.2956 29.608C66.3676 30.408 65.7916 31.544 65.5676 33.016H75.8396ZM104.89 21.928C108.026 21.928 110.522 22.952 112.378 25C114.266 27.016 115.21 29.8 115.21 33.352V49H107.05V34.456C107.05 32.664 106.586 31.272 105.658 30.28C104.73 29.288 103.482 28.792 101.914 28.792C100.346 28.792 99.0978 29.288 98.1698 30.28C97.2418 31.272 96.7778 32.664 96.7778 34.456V49H88.5698V22.216H96.7778V25.768C97.6098 24.584 98.7298 23.656 100.138 22.984C101.546 22.28 103.13 21.928 104.89 21.928ZM135.842 42.04V49H131.666C128.69 49 126.37 48.28 124.706 46.84C123.042 45.368 122.21 42.984 122.21 39.688V29.032H118.946V22.216H122.21V15.688H130.418V22.216H135.794V29.032H130.418V39.784C130.418 40.584 130.61 41.16 130.994 41.512C131.378 41.864 132.018 42.04 132.914 42.04H135.842ZM163.209 15.304C166.761 15.304 169.865 16.008 172.521 17.416C175.177 18.824 177.225 20.808 178.665 23.368C180.137 25.896 180.873 28.824 180.873 32.152C180.873 35.448 180.137 38.376 178.665 40.936C177.225 43.496 175.161 45.48 172.473 46.888C169.817 48.296 166.729 49 163.209 49H150.585V15.304H163.209ZM162.681 41.896C165.785 41.896 168.201 41.048 169.929 39.352C171.657 37.656 172.521 35.256 172.521 32.152C172.521 29.048 171.657 26.632 169.929 24.904C168.201 23.176 165.785 22.312 162.681 22.312H158.793V41.896H162.681ZM210.708 35.176C210.708 35.944 210.66 36.744 210.564 37.576H191.988C192.116 39.24 192.644 40.52 193.572 41.416C194.532 42.28 195.7 42.712 197.076 42.712C199.124 42.712 200.548 41.848 201.348 40.12H210.084C209.636 41.88 208.82 43.464 207.636 44.872C206.484 46.28 205.028 47.384 203.268 48.184C201.508 48.984 199.54 49.384 197.364 49.384C194.74 49.384 192.404 48.824 190.356 47.704C188.308 46.584 186.708 44.984 185.556 42.904C184.404 40.824 183.828 38.392 183.828 35.608C183.828 32.824 184.388 30.392 185.508 28.312C186.66 26.232 188.26 24.632 190.308 23.512C192.356 22.392 194.708 21.832 197.364 21.832C199.956 21.832 202.26 22.376 204.276 23.464C206.292 24.552 207.86 26.104 208.98 28.12C210.132 30.136 210.708 32.488 210.708 35.176ZM202.308 33.016C202.308 31.608 201.828 30.488 200.868 29.656C199.908 28.824 198.708 28.408 197.268 28.408C195.892 28.408 194.724 28.808 193.764 29.608C192.836 30.408 192.26 31.544 192.036 33.016H202.308ZM229.967 42.04V49H225.791C222.815 49 220.495 48.28 218.831 46.84C217.167 45.368 216.335 42.984 216.335 39.688V29.032H213.071V22.216H216.335V15.688H224.543V22.216H229.919V29.032H224.543V39.784C224.543 40.584 224.735 41.16 225.119 41.512C225.503 41.864 226.143 42.04 227.039 42.04H229.967ZM232.907 35.56C232.907 32.808 233.419 30.392 234.443 28.312C235.499 26.232 236.923 24.632 238.715 23.512C240.507 22.392 242.507 21.832 244.715 21.832C246.603 21.832 248.251 22.216 249.659 22.984C251.099 23.752 252.203 24.76 252.971 26.008V22.216H261.179V49H252.971V45.208C252.171 46.456 251.051 47.464 249.611 48.232C248.203 49 246.555 49.384 244.667 49.384C242.491 49.384 240.507 48.824 238.715 47.704C236.923 46.552 235.499 44.936 234.443 42.856C233.419 40.744 232.907 38.312 232.907 35.56ZM252.971 35.608C252.971 33.56 252.395 31.944 251.243 30.76C250.123 29.576 248.747 28.984 247.115 28.984C245.483 28.984 244.091 29.576 242.939 30.76C241.819 31.912 241.259 33.512 241.259 35.56C241.259 37.608 241.819 39.24 242.939 40.456C244.091 41.64 245.483 42.232 247.115 42.232C248.747 42.232 250.123 41.64 251.243 40.456C252.395 39.272 252.971 37.656 252.971 35.608ZM271.245 19.432C269.805 19.432 268.621 19.016 267.693 18.184C266.797 17.32 266.349 16.264 266.349 15.016C266.349 13.736 266.797 12.68 267.693 11.848C268.621 10.984 269.805 10.552 271.245 10.552C272.653 10.552 273.805 10.984 274.701 11.848C275.629 12.68 276.093 13.736 276.093 15.016C276.093 16.264 275.629 17.32 274.701 18.184C273.805 19.016 272.653 19.432 271.245 19.432ZM275.325 22.216V49H267.117V22.216H275.325ZM289.481 13.48V49H281.273V13.48H289.481Z" fill="#2E2E2E"/>
</g>
<defs>
<clipPath id="clip0_376_23163">
<rect width="1232" height="184" fill="white"/>
</clipPath>
</defs>
</svg>
