<svg width="81" height="22" viewBox="0 0 81 22" fill="none" xmlns="http://www.w3.org/2000/svg">
<g clip-path="url(#clip0_344_565)">
<path d="M80.0244 7.65224C80.1183 7.74594 80.1712 7.87311 80.1714 8.00579C80.1716 8.13847 80.1191 8.26579 80.0254 8.35975L74.5565 13.8477C74.5053 13.8991 74.4445 13.94 74.3775 13.9678C74.3105 13.9957 74.2387 14.01 74.1662 14.01C74.0936 14.01 74.0218 13.9957 73.9548 13.9678C73.8879 13.94 73.827 13.8991 73.7759 13.8477L68.309 8.35975C68.2612 8.31353 68.2232 8.25826 68.1971 8.19718C68.1709 8.1361 68.1572 8.07042 68.1568 8.00399C68.1563 7.93755 68.169 7.87168 68.1943 7.81023C68.2195 7.74877 68.2567 7.69296 68.3038 7.64605C68.3508 7.59914 68.4068 7.56207 68.4683 7.53699C68.5298 7.51192 68.5957 7.49936 68.6621 7.50003C68.7286 7.50069 68.7942 7.51459 68.8552 7.54089C68.9162 7.5672 68.9714 7.60539 69.0175 7.65324L74.1662 12.822L79.3169 7.65324C79.4106 7.55931 79.5377 7.50643 79.6704 7.50624C79.8031 7.50606 79.9304 7.55857 80.0244 7.65224Z" fill="black"/>
<path d="M7.07274 13.512H2.99874L2.29874 15.5H0.632738L4.11874 5.756H5.96674L9.45274 15.5H7.77274L7.07274 13.512ZM6.62474 12.21L5.04274 7.688L3.44674 12.21H6.62474ZM12.5645 8.934C12.8351 8.56067 13.2038 8.25733 13.6705 8.024C14.1465 7.78133 14.6738 7.66 15.2525 7.66C15.9338 7.66 16.5498 7.82333 17.1005 8.15C17.6511 8.47667 18.0851 8.94333 18.4025 9.55C18.7198 10.1473 18.8785 10.8333 18.8785 11.608C18.8785 12.3827 18.7198 13.078 18.4025 13.694C18.0851 14.3007 17.6465 14.7767 17.0865 15.122C16.5358 15.458 15.9245 15.626 15.2525 15.626C14.6551 15.626 14.1231 15.5093 13.6565 15.276C13.1991 15.0427 12.8351 14.744 12.5645 14.38V15.5H10.9685V5.14H12.5645V8.934ZM17.2545 11.608C17.2545 11.076 17.1425 10.6187 16.9185 10.236C16.7038 9.844 16.4145 9.55 16.0505 9.354C15.6958 9.14867 15.3131 9.046 14.9025 9.046C14.5011 9.046 14.1185 9.14867 13.7545 9.354C13.3998 9.55933 13.1105 9.858 12.8865 10.25C12.6718 10.642 12.5645 11.104 12.5645 11.636C12.5645 12.168 12.6718 12.6347 12.8865 13.036C13.1105 13.428 13.3998 13.7267 13.7545 13.932C14.1185 14.1373 14.5011 14.24 14.9025 14.24C15.3131 14.24 15.6958 14.1373 16.0505 13.932C16.4145 13.7173 16.7038 13.4093 16.9185 13.008C17.1425 12.6067 17.2545 12.14 17.2545 11.608ZM23.8027 15.626C23.0747 15.626 22.4167 15.4627 21.8287 15.136C21.2407 14.8 20.7787 14.3333 20.4427 13.736C20.1067 13.1293 19.9387 12.4293 19.9387 11.636C19.9387 10.852 20.1114 10.1567 20.4567 9.55C20.8021 8.94333 21.2734 8.47667 21.8707 8.15C22.4681 7.82333 23.1354 7.66 23.8727 7.66C24.6101 7.66 25.2774 7.82333 25.8747 8.15C26.4721 8.47667 26.9434 8.94333 27.2887 9.55C27.6341 10.1567 27.8067 10.852 27.8067 11.636C27.8067 12.42 27.6294 13.1153 27.2747 13.722C26.9201 14.3287 26.4347 14.8 25.8187 15.136C25.2121 15.4627 24.5401 15.626 23.8027 15.626ZM23.8027 14.24C24.2134 14.24 24.5961 14.142 24.9507 13.946C25.3147 13.75 25.6087 13.456 25.8327 13.064C26.0567 12.672 26.1687 12.196 26.1687 11.636C26.1687 11.076 26.0614 10.6047 25.8467 10.222C25.6321 9.83 25.3474 9.536 24.9927 9.34C24.6381 9.144 24.2554 9.046 23.8447 9.046C23.4341 9.046 23.0514 9.144 22.6967 9.34C22.3514 9.536 22.0761 9.83 21.8707 10.222C21.6654 10.6047 21.5627 11.076 21.5627 11.636C21.5627 12.4667 21.7727 13.1107 22.1927 13.568C22.6221 14.016 23.1587 14.24 23.8027 14.24ZM36.3705 7.786V15.5H34.7745V14.59C34.5225 14.9073 34.1911 15.1593 33.7805 15.346C33.3791 15.5233 32.9498 15.612 32.4925 15.612C31.8858 15.612 31.3398 15.486 30.8545 15.234C30.3785 14.982 30.0005 14.6087 29.7205 14.114C29.4498 13.6193 29.3145 13.022 29.3145 12.322V7.786H30.8965V12.084C30.8965 12.7747 31.0691 13.3067 31.4145 13.68C31.7598 14.044 32.2311 14.226 32.8285 14.226C33.4258 14.226 33.8971 14.044 34.2425 13.68C34.5971 13.3067 34.7745 12.7747 34.7745 12.084V7.786H36.3705ZM40.3383 9.088V13.358C40.3383 13.6473 40.4036 13.8573 40.5343 13.988C40.6743 14.1093 40.9076 14.17 41.2343 14.17H42.2143V15.5H40.9543C40.2356 15.5 39.6849 15.332 39.3023 14.996C38.9196 14.66 38.7283 14.114 38.7283 13.358V9.088H37.8183V7.786H38.7283V5.868H40.3383V7.786H42.2143V9.088H40.3383ZM48.904 5.77V11.972C48.904 12.7093 49.0953 13.2647 49.478 13.638C49.87 14.0113 50.4113 14.198 51.102 14.198C51.802 14.198 52.3433 14.0113 52.726 13.638C53.118 13.2647 53.314 12.7093 53.314 11.972V5.77H54.91V11.944C54.91 12.7373 54.7373 13.4093 54.392 13.96C54.0466 14.5107 53.5846 14.9213 53.006 15.192C52.4273 15.4627 51.788 15.598 51.088 15.598C50.388 15.598 49.7486 15.4627 49.17 15.192C48.6006 14.9213 48.148 14.5107 47.812 13.96C47.476 13.4093 47.308 12.7373 47.308 11.944V5.77H48.904ZM59.788 15.626C59.1813 15.626 58.6353 15.5187 58.15 15.304C57.674 15.08 57.296 14.7813 57.016 14.408C56.736 14.0253 56.5867 13.6007 56.568 13.134H58.22C58.248 13.4607 58.402 13.736 58.682 13.96C58.9713 14.1747 59.3307 14.282 59.76 14.282C60.208 14.282 60.5533 14.198 60.796 14.03C61.048 13.8527 61.174 13.6287 61.174 13.358C61.174 13.0687 61.034 12.854 60.754 12.714C60.4833 12.574 60.0493 12.42 59.452 12.252C58.8733 12.0933 58.402 11.9393 58.038 11.79C57.674 11.6407 57.3567 11.412 57.086 11.104C56.8247 10.796 56.694 10.39 56.694 9.886C56.694 9.47533 56.8153 9.102 57.058 8.766C57.3007 8.42067 57.646 8.15 58.094 7.954C58.5513 7.758 59.074 7.66 59.662 7.66C60.5393 7.66 61.244 7.884 61.776 8.332C62.3173 8.77067 62.6067 9.37267 62.644 10.138H61.048C61.02 9.79267 60.88 9.51733 60.628 9.312C60.376 9.10667 60.0353 9.004 59.606 9.004C59.186 9.004 58.864 9.08333 58.64 9.242C58.416 9.40067 58.304 9.61067 58.304 9.872C58.304 10.0773 58.3787 10.25 58.528 10.39C58.6773 10.53 58.8593 10.642 59.074 10.726C59.2887 10.8007 59.606 10.8987 60.026 11.02C60.586 11.1693 61.0433 11.3233 61.398 11.482C61.762 11.6313 62.0747 11.8553 62.336 12.154C62.5973 12.4527 62.7327 12.8493 62.742 13.344C62.742 13.7827 62.6207 14.1747 62.378 14.52C62.1353 14.8653 61.79 15.136 61.342 15.332C60.9033 15.528 60.3853 15.626 59.788 15.626Z" fill="black"/>
</g>
<defs>
<clipPath id="clip0_344_565">
<rect width="80.0146" height="21" fill="white" transform="translate(0.156738 0.5)"/>
</clipPath>
</defs>
</svg>
