<svg width="18" height="18" viewBox="0 0 18 18" fill="none" xmlns="http://www.w3.org/2000/svg">
<g clip-path="url(#clip0_342_562)">
<rect x="0.5" y="0.5" width="17" height="17" rx="8.5" stroke="white"/>
<path d="M13.5 9.01128C13.5 6.52105 11.484 4.5 9 4.5C6.516 4.5 4.5 6.52105 4.5 9.01128C4.5 11.1947 6.048 13.0128 8.1 13.4323V10.3647H7.2V9.01128H8.1V7.88346C8.1 7.01278 8.8065 6.30451 9.675 6.30451H10.8V7.65789H9.9C9.6525 7.65789 9.45 7.8609 9.45 8.10902V9.01128H10.8V10.3647H9.45V13.5C11.7225 13.2744 13.5 11.3526 13.5 9.01128Z" fill="white"/>
</g>
<defs>
<clipPath id="clip0_342_562">
<rect width="18" height="18" fill="white"/>
</clipPath>
</defs>
</svg>
