<svg width="72" height="18" viewBox="0 0 72 18" fill="none" xmlns="http://www.w3.org/2000/svg">
<g clip-path="url(#clip0_359_597)">
<path d="M28.126 5.75781C27.3649 5.75781 26.7087 5.94238 26.1572 6.31152C25.6104 6.68066 25.2025 7.17741 24.9336 7.80176C24.6647 8.42611 24.5303 9.14388 24.5303 9.95508C24.5303 10.5612 24.6032 11.1149 24.749 11.6162C24.8949 12.113 25.1136 12.5505 25.4053 12.9287C25.6969 13.3024 26.0752 13.5941 26.54 13.8037C27.0094 14.0088 27.5472 14.1113 28.1533 14.1113C28.9326 14.1113 29.7393 13.9085 30.5732 13.5029L30.7715 14.5078C30.0924 14.9362 29.1742 15.1504 28.0166 15.1504C27.2555 15.1504 26.5719 15.0251 25.9658 14.7744C25.3643 14.5192 24.8652 14.1615 24.4688 13.7012C24.0768 13.2363 23.7783 12.6849 23.5732 12.0469C23.3682 11.4043 23.2656 10.6911 23.2656 9.90723C23.2656 9.15072 23.3773 8.45345 23.6006 7.81543C23.8239 7.17741 24.1383 6.63053 24.5439 6.1748C24.9541 5.71452 25.4645 5.35677 26.0752 5.10156C26.6859 4.84635 27.3649 4.71875 28.1123 4.71875C29.2471 4.71875 30.2041 4.9694 30.9834 5.4707L30.5186 6.43457C29.7712 5.9834 28.9736 5.75781 28.126 5.75781ZM34.4629 14.2344C35.0052 14.2344 35.4814 14.0863 35.8916 13.79C36.3063 13.4893 36.5729 13.0859 36.6914 12.5801V11.3154C36.6686 11.3154 36.5296 11.3268 36.2744 11.3496C36.0238 11.3724 35.8597 11.3861 35.7822 11.3906C34.7933 11.4772 34.1029 11.639 33.7109 11.876C33.3236 12.113 33.1299 12.4935 33.1299 13.0176C33.1299 13.4186 33.2484 13.7217 33.4854 13.9268C33.7223 14.1318 34.0482 14.2344 34.4629 14.2344ZM36.9443 15C36.876 14.7083 36.8099 14.3939 36.7461 14.0566C36.3314 14.4714 35.9417 14.7585 35.5771 14.918C35.2126 15.0775 34.7842 15.1572 34.292 15.1572C33.5902 15.1572 33.0251 14.9749 32.5967 14.6104C32.1729 14.2412 31.9609 13.7126 31.9609 13.0244C31.9609 12.2588 32.2503 11.6914 32.8291 11.3223C33.4124 10.9531 34.251 10.723 35.3447 10.6318C35.4951 10.6182 35.7207 10.5999 36.0215 10.5771C36.3268 10.5498 36.5547 10.5293 36.7051 10.5156V9.85254C36.7051 9.32389 36.582 8.93197 36.3359 8.67676C36.0898 8.42155 35.7025 8.29395 35.1738 8.29395C34.4355 8.29395 33.6904 8.47624 32.9385 8.84082C32.9157 8.78613 32.8564 8.62891 32.7607 8.36914C32.665 8.10482 32.6149 7.9681 32.6104 7.95898C32.943 7.77214 33.3372 7.62402 33.793 7.51465C34.2533 7.40072 34.7204 7.34375 35.1943 7.34375C36.1286 7.34375 36.8008 7.54883 37.2109 7.95898C37.6257 8.36458 37.833 9.05729 37.833 10.0371V15H36.9443ZM43.165 7.43262C43.3701 7.43262 43.557 7.44629 43.7256 7.47363L43.6846 8.52637C43.4749 8.48991 43.2926 8.47168 43.1377 8.47168C42.4997 8.47168 41.9801 8.69499 41.5791 9.1416C41.1826 9.58366 40.9844 10.1328 40.9844 10.7891V15H39.8428C39.8382 10.3971 39.8359 7.89746 39.8359 7.50098H40.7861L40.8955 8.84766C41.1553 8.42383 41.4857 8.08203 41.8867 7.82227C42.2878 7.5625 42.7139 7.43262 43.165 7.43262ZM49.085 8.88867C48.7523 8.48763 48.2943 8.28711 47.7109 8.28711C47.1276 8.28711 46.6514 8.49447 46.2822 8.90918C45.9131 9.31934 45.6966 9.88216 45.6328 10.5977H49.5908C49.5908 9.85482 49.4222 9.28516 49.085 8.88867ZM47.9365 15.1572C46.8473 15.1572 45.9883 14.8109 45.3594 14.1182C44.735 13.4255 44.4229 12.4775 44.4229 11.2744C44.4229 10.1123 44.7259 9.17122 45.332 8.45117C45.9382 7.72656 46.7357 7.35742 47.7246 7.34375C48.6543 7.34375 49.3903 7.66276 49.9326 8.30078C50.4795 8.93424 50.7529 9.7819 50.7529 10.8438C50.7529 10.8984 50.7507 10.9987 50.7461 11.1445C50.7461 11.2904 50.7461 11.3952 50.7461 11.459H45.5986C45.6123 12.3112 45.8311 12.9766 46.2549 13.4551C46.6833 13.929 47.2575 14.166 47.9775 14.166C48.7705 14.166 49.5658 13.9564 50.3633 13.5371L50.541 14.46C49.7799 14.9248 48.9118 15.1572 47.9365 15.1572ZM56.6592 8.88867C56.3265 8.48763 55.8685 8.28711 55.2852 8.28711C54.7018 8.28711 54.2256 8.49447 53.8564 8.90918C53.4873 9.31934 53.2708 9.88216 53.207 10.5977H57.165C57.165 9.85482 56.9964 9.28516 56.6592 8.88867ZM55.5107 15.1572C54.4215 15.1572 53.5625 14.8109 52.9336 14.1182C52.3092 13.4255 51.9971 12.4775 51.9971 11.2744C51.9971 10.1123 52.3001 9.17122 52.9062 8.45117C53.5124 7.72656 54.3099 7.35742 55.2988 7.34375C56.2285 7.34375 56.9645 7.66276 57.5068 8.30078C58.0537 8.93424 58.3271 9.7819 58.3271 10.8438C58.3271 10.8984 58.3249 10.9987 58.3203 11.1445C58.3203 11.2904 58.3203 11.3952 58.3203 11.459H53.1729C53.1865 12.3112 53.4053 12.9766 53.8291 13.4551C54.2575 13.929 54.8317 14.166 55.5518 14.166C56.3447 14.166 57.14 13.9564 57.9375 13.5371L58.1152 14.46C57.3542 14.9248 56.486 15.1572 55.5107 15.1572ZM63.2764 7.43262C63.4814 7.43262 63.6683 7.44629 63.8369 7.47363L63.7959 8.52637C63.5863 8.48991 63.404 8.47168 63.249 8.47168C62.611 8.47168 62.0915 8.69499 61.6904 9.1416C61.2939 9.58366 61.0957 10.1328 61.0957 10.7891V15H59.9541C59.9495 10.3971 59.9473 7.89746 59.9473 7.50098H60.8975L61.0068 8.84766C61.2666 8.42383 61.597 8.08203 61.998 7.82227C62.3991 7.5625 62.8252 7.43262 63.2764 7.43262ZM67.248 15.1572C66.7376 15.1572 66.266 15.1025 65.833 14.9932C65.4046 14.8838 65.056 14.7425 64.7871 14.5693L64.9307 13.6055C65.6917 14.0111 66.4391 14.2139 67.1729 14.2139C68.2848 14.2139 68.8568 13.8219 68.8887 13.0381C68.8887 12.7054 68.7702 12.4434 68.5332 12.252C68.2962 12.0605 67.8314 11.8464 67.1387 11.6094L66.5713 11.4111C65.915 11.1924 65.4456 10.9212 65.1631 10.5977C64.8851 10.2741 64.7438 9.87077 64.7393 9.3877C64.7393 8.7998 64.974 8.31217 65.4434 7.9248C65.9173 7.53743 66.5645 7.34375 67.3848 7.34375C68.2324 7.34375 69.0049 7.50781 69.7021 7.83594L69.3672 8.71094C68.6608 8.41927 68 8.27344 67.3848 8.27344C66.9062 8.27344 66.5303 8.36914 66.2568 8.56055C65.988 8.7474 65.8535 9.01172 65.8535 9.35352C65.8535 9.64518 65.9515 9.86849 66.1475 10.0234C66.3434 10.1784 66.7354 10.3561 67.3232 10.5566C67.4736 10.6113 67.6628 10.6751 67.8906 10.748C68.6471 10.9941 69.1826 11.2858 69.4971 11.623C69.8115 11.9557 69.9688 12.4069 69.9688 12.9766C69.9596 13.6693 69.7113 14.207 69.2236 14.5898C68.736 14.9681 68.0775 15.1572 67.248 15.1572Z" fill="#FAFAFA"/>
<path d="M11.5679 9.70113L6.81577 5.31428C6.73648 5.24105 6.63113 5.2002 6.52158 5.2002C6.41204 5.2002 6.30669 5.24105 6.2274 5.31428L6.22228 5.31924C6.18371 5.35474 6.153 5.39748 6.13201 5.44484C6.11102 5.49221 6.1002 5.54321 6.1002 5.59476C6.1002 5.64631 6.11102 5.69731 6.13201 5.74468C6.153 5.79204 6.18371 5.83478 6.22228 5.87028L10.6973 10.001L6.22228 14.1301C6.18371 14.1656 6.153 14.2083 6.13201 14.2557C6.11102 14.3031 6.1002 14.3541 6.1002 14.4056C6.1002 14.4572 6.11102 14.5082 6.13201 14.5556C6.153 14.6029 6.18371 14.6457 6.22228 14.6812L6.2274 14.6861C6.30669 14.7593 6.41204 14.8002 6.52158 14.8002C6.63113 14.8002 6.73648 14.7593 6.81577 14.6861L11.5679 10.2993C11.6097 10.2607 11.643 10.2143 11.6657 10.1629C11.6885 10.1115 11.7002 10.0561 11.7002 10.0002C11.7002 9.94427 11.6885 9.88892 11.6657 9.83752C11.643 9.78611 11.6097 9.73971 11.5679 9.70113Z" fill="#FAFAFA"/>
</g>
<defs>
<clipPath id="clip0_359_597">
<rect width="71" height="18" fill="white" transform="translate(0.5)"/>
</clipPath>
</defs>
</svg>
