<svg width="14" height="8" viewBox="0 0 14 8" fill="none" xmlns="http://www.w3.org/2000/svg">
<g clip-path="url(#clip0_344_567)">
<path d="M12.976 0.897359C13.0772 0.991057 13.1342 1.11823 13.1344 1.25091C13.1346 1.38358 13.078 1.5109 12.9771 1.60487L7.08312 7.09281C7.02799 7.14425 6.96246 7.18507 6.89027 7.21292C6.81809 7.24078 6.74068 7.25512 6.66251 7.25512C6.58433 7.25512 6.50692 7.24078 6.43474 7.21292C6.36256 7.18507 6.29702 7.14425 6.24189 7.09281L0.35009 1.60487C0.298662 1.55864 0.257669 1.50338 0.229505 1.4423C0.201341 1.38121 0.186568 1.31554 0.186049 1.2491C0.18553 1.18267 0.199276 1.1168 0.226483 1.05535C0.253691 0.993892 0.293815 0.938081 0.344516 0.891169C0.395217 0.844257 0.455479 0.807184 0.521786 0.782112C0.588093 0.757041 0.659117 0.744473 0.730714 0.745143C0.802311 0.745812 0.873048 0.759705 0.938797 0.786011C1.00455 0.812317 1.06399 0.850509 1.11366 0.898359L6.66251 6.06708L12.2135 0.898359C12.3145 0.804424 12.4515 0.751548 12.5945 0.75136C12.7375 0.751173 12.8747 0.803688 12.976 0.897359Z" fill="black"/>
</g>
<defs>
<clipPath id="clip0_344_567">
<rect width="12.9484" height="6.51" fill="white" transform="translate(0.186035 0.745117)"/>
</clipPath>
</defs>
</svg>
