<svg width="125" height="20" viewBox="0 0 125 20" fill="none" xmlns="http://www.w3.org/2000/svg">
<g clip-path="url(#clip0_359_599)">
<path d="M14.5455 14.9853L14.9252 15.3591L14.5447 14.9853H14.5455ZM5.49585 13.4702L5.87489 13.0964L5.49513 13.4702H5.49585ZM2.53387 6.02698L2.15483 5.65383L2.53459 6.02768L2.53387 6.02698ZM11.1047 12.8827L11.432 12.5644L10.6718 11.8167L10.3459 12.135L11.1047 12.8827ZM12.5297 12.4309L13.9015 13.161L14.4148 12.2348L13.0437 11.5054L12.5297 12.4309ZM14.165 14.6114L13.1456 15.6044L13.9044 16.3514L14.9238 15.3591L14.165 14.6114ZM12.5239 15.9234C11.483 16.019 8.79093 15.9339 5.87489 13.0964L5.11538 13.8433C8.29703 16.9402 11.3258 17.092 12.6244 16.9733L12.5232 15.9234H12.5239ZM5.87489 13.0964C3.09597 10.3909 2.63509 8.11617 2.57766 7.12885L1.50228 7.18858C1.57407 8.43099 2.14478 10.9524 5.11538 13.8433L5.87489 13.0964ZM6.86198 8.75354L7.06801 8.55256L6.30993 7.80557L6.1039 8.00584L6.8627 8.75283L6.86198 8.75354ZM7.23169 5.99817L6.32716 4.81479L5.46498 5.44723L6.36951 6.62991L7.23169 5.99817ZM3.28262 4.55689L2.15555 5.65313L2.91507 6.40083L4.04142 5.30458L3.28262 4.55689ZM6.48294 8.37969C6.10246 8.00584 6.10246 8.00584 6.10246 8.00725H6.10103L6.09887 8.01006C6.06498 8.04392 6.03445 8.08086 6.0077 8.12038C5.96894 8.1766 5.92658 8.25039 5.89069 8.34385C5.80327 8.58511 5.7815 8.84448 5.82751 9.09646C5.92371 9.70432 6.35157 10.5075 7.44705 11.5743L8.20657 10.8266C7.18072 9.8287 6.93664 9.22155 6.89141 8.93484C6.86988 8.79851 6.89213 8.73105 6.89859 8.71559C6.90218 8.70575 6.90362 8.70505 6.89859 8.71137C6.89226 8.72112 6.88505 8.73029 6.87706 8.73878L6.86988 8.74581C6.86756 8.74799 6.86516 8.7501 6.8627 8.75213L6.48222 8.37969H6.48294ZM7.44705 11.5743C8.54326 12.641 9.3681 13.057 9.98979 13.1498C10.3078 13.1975 10.5641 13.1596 10.7586 13.0886C10.8674 13.0492 10.9692 12.9932 11.0602 12.9228C11.0725 12.9127 11.0845 12.9021 11.096 12.8912L11.1011 12.8869L11.1032 12.8848L11.1039 12.8834C11.1039 12.8834 11.1047 12.8827 10.7249 12.5089C10.3444 12.135 10.3466 12.1343 10.3466 12.1343L10.348 12.1329L10.3494 12.1315L10.3538 12.128L10.3609 12.121C10.3696 12.1134 10.3787 12.1064 10.3882 12.0999C10.3954 12.095 10.3932 12.0971 10.3832 12.1013C10.3652 12.1076 10.2949 12.1294 10.1535 12.1083C9.85626 12.0634 9.23171 11.8244 8.20657 10.8266L7.44705 11.5743ZM6.32716 4.81408C5.59492 3.85838 4.15629 3.70659 3.28262 4.55689L4.04142 5.30458C4.42334 4.93284 5.10102 4.97149 5.46498 5.44723L6.32644 4.81408H6.32716ZM2.57838 7.12955C2.56402 6.88641 2.67817 6.63202 2.91507 6.40153L2.15483 5.65383C1.76933 6.02909 1.46567 6.56034 1.50228 7.18858L2.57838 7.12955ZM13.1456 15.6044C12.9489 15.7969 12.7364 15.9051 12.5246 15.9241L12.6244 16.9733C13.1521 16.9248 13.5835 16.6648 13.9051 16.3521L13.1456 15.6044ZM7.06801 8.55256C7.77513 7.86459 7.82753 6.77748 7.23241 5.99887L6.37023 6.63062C6.65954 7.00938 6.61647 7.50621 6.30921 7.80627L7.06801 8.55256ZM13.9022 13.1617C14.4888 13.4737 14.5799 14.2088 14.1657 14.6121L14.9252 15.3591C15.8872 14.4224 15.5907 12.8602 14.4155 12.2355L13.9022 13.1617ZM11.432 12.5651C11.7077 12.2967 12.1513 12.2306 12.5304 12.4316L13.0444 11.5061C12.2662 11.0915 11.3014 11.206 10.6725 11.8174L11.432 12.5651Z" fill="white"/>
<path d="M20.306 10.203C20.306 8.71233 20.5487 7.551 21.034 6.719C21.5193 5.87833 22.3687 5.458 23.582 5.458C24.7867 5.458 25.6317 5.87833 26.117 6.719C26.6023 7.551 26.845 8.71233 26.845 10.203C26.845 11.7197 26.6023 12.8983 26.117 13.739C25.6317 14.5797 24.7867 15 23.582 15C22.3687 15 21.5193 14.5797 21.034 13.739C20.5487 12.8983 20.306 11.7197 20.306 10.203ZM25.675 10.203C25.675 9.449 25.623 8.812 25.519 8.292C25.4237 7.76333 25.22 7.33867 24.908 7.018C24.6047 6.69733 24.1627 6.537 23.582 6.537C22.9927 6.537 22.542 6.69733 22.23 7.018C21.9267 7.33867 21.723 7.76333 21.619 8.292C21.5237 8.812 21.476 9.449 21.476 10.203C21.476 10.983 21.5237 11.6373 21.619 12.166C21.723 12.6947 21.9267 13.1193 22.23 13.44C22.542 13.7607 22.9927 13.921 23.582 13.921C24.1627 13.921 24.6047 13.7607 24.908 13.44C25.22 13.1193 25.4237 12.6947 25.519 12.166C25.623 11.6373 25.675 10.983 25.675 10.203ZM34.2541 6.524L30.6401 15H29.4441L33.1101 6.641H28.0921V5.627H34.2541V6.524ZM40.8048 7.837C40.6141 6.875 40.0204 6.394 39.0238 6.394C38.2524 6.394 37.6761 6.693 37.2948 7.291C36.9134 7.88033 36.7271 8.85533 36.7358 10.216C36.9351 9.76533 37.2644 9.41433 37.7238 9.163C38.1918 8.903 38.7118 8.773 39.2838 8.773C40.1764 8.773 40.8871 9.05033 41.4158 9.605C41.9531 10.1597 42.2218 10.9267 42.2218 11.906C42.2218 12.4953 42.1048 13.024 41.8708 13.492C41.6454 13.96 41.2988 14.3327 40.8308 14.61C40.3714 14.8873 39.8124 15.026 39.1538 15.026C38.2611 15.026 37.5634 14.8267 37.0608 14.428C36.5581 14.0293 36.2071 13.479 36.0078 12.777C35.8084 12.075 35.7088 11.2083 35.7088 10.177C35.7088 6.99633 36.8181 5.406 39.0368 5.406C39.8861 5.406 40.5534 5.63567 41.0388 6.095C41.5241 6.55433 41.8101 7.135 41.8968 7.837H40.8048ZM39.0368 9.774C38.6641 9.774 38.3131 9.852 37.9838 10.008C37.6544 10.1553 37.3858 10.385 37.1778 10.697C36.9784 11.0003 36.8788 11.373 36.8788 11.815C36.8788 12.4737 37.0694 13.011 37.4508 13.427C37.8321 13.8343 38.3781 14.038 39.0888 14.038C39.6954 14.038 40.1764 13.8517 40.5318 13.479C40.8958 13.0977 41.0778 12.5863 41.0778 11.945C41.0778 11.269 40.9044 10.7403 40.5578 10.359C40.2111 9.969 39.7041 9.774 39.0368 9.774ZM43.5057 6.68V5.601H45.9497V15H44.7537V6.68H43.5057ZM53.1168 9.735V10.736H47.9298V9.735H53.1168ZM56.8579 10.112C56.3726 9.92133 55.9999 9.644 55.7399 9.28C55.4799 8.916 55.3499 8.474 55.3499 7.954C55.3499 7.486 55.4669 7.06567 55.7009 6.693C55.9349 6.31167 56.2816 6.01267 56.7409 5.796C57.2089 5.57067 57.7723 5.458 58.4309 5.458C59.0896 5.458 59.6486 5.57067 60.1079 5.796C60.5759 6.01267 60.9269 6.31167 61.1609 6.693C61.4036 7.06567 61.5249 7.486 61.5249 7.954C61.5249 8.45667 61.3906 8.89867 61.1219 9.28C60.8533 9.65267 60.4849 9.93 60.0169 10.112C60.5543 10.2767 60.9789 10.567 61.2909 10.983C61.6116 11.3903 61.7719 11.8843 61.7719 12.465C61.7719 13.0283 61.6333 13.5223 61.3559 13.947C61.0786 14.363 60.6843 14.688 60.1729 14.922C59.6703 15.1473 59.0896 15.26 58.4309 15.26C57.7723 15.26 57.1916 15.1473 56.6889 14.922C56.1949 14.688 55.8093 14.363 55.5319 13.947C55.2546 13.5223 55.1159 13.0283 55.1159 12.465C55.1159 11.8843 55.2719 11.386 55.5839 10.97C55.8959 10.554 56.3206 10.268 56.8579 10.112ZM60.3809 8.097C60.3809 7.56833 60.2076 7.161 59.8609 6.875C59.5143 6.589 59.0376 6.446 58.4309 6.446C57.8329 6.446 57.3606 6.589 57.0139 6.875C56.6673 7.161 56.4939 7.57267 56.4939 8.11C56.4939 8.59533 56.6716 8.98533 57.0269 9.28C57.3909 9.57467 57.8589 9.722 58.4309 9.722C59.0116 9.722 59.4796 9.57467 59.8349 9.28C60.1989 8.97667 60.3809 8.58233 60.3809 8.097ZM58.4309 10.632C57.7896 10.632 57.2653 10.7837 56.8579 11.087C56.4506 11.3817 56.2469 11.828 56.2469 12.426C56.2469 12.9807 56.4419 13.427 56.8319 13.765C57.2306 14.103 57.7636 14.272 58.4309 14.272C59.0983 14.272 59.6269 14.103 60.0169 13.765C60.4069 13.427 60.6019 12.9807 60.6019 12.426C60.6019 11.8453 60.4026 11.4033 60.0039 11.1C59.6053 10.788 59.0809 10.632 58.4309 10.632ZM69.3361 6.628H64.7731V9.592C64.9724 9.31467 65.2671 9.08933 65.6571 8.916C66.0471 8.734 66.4674 8.643 66.9181 8.643C67.6374 8.643 68.2224 8.79467 68.6731 9.098C69.1238 9.39267 69.4444 9.77833 69.6351 10.255C69.8344 10.723 69.9341 11.2213 69.9341 11.75C69.9341 12.374 69.8171 12.933 69.5831 13.427C69.3491 13.921 68.9894 14.311 68.5041 14.597C68.0274 14.883 67.4338 15.026 66.7231 15.026C65.8131 15.026 65.0764 14.792 64.5131 14.324C63.9498 13.856 63.6074 13.232 63.4861 12.452H64.6431C64.7558 12.946 64.9941 13.3317 65.3581 13.609C65.7221 13.8863 66.1814 14.025 66.7361 14.025C67.4208 14.025 67.9364 13.8213 68.2831 13.414C68.6298 12.998 68.8031 12.452 68.8031 11.776C68.8031 11.1 68.6298 10.58 68.2831 10.216C67.9364 9.84333 67.4251 9.657 66.7491 9.657C66.2898 9.657 65.8868 9.76967 65.5401 9.995C65.2021 10.2117 64.9551 10.5107 64.7991 10.892H63.6811V5.588H69.3361V6.628ZM71.3632 14.051C72.4639 13.167 73.3262 12.4433 73.9502 11.88C74.5742 11.308 75.0985 10.7143 75.5232 10.099C75.9565 9.475 76.1732 8.864 76.1732 8.266C76.1732 7.70267 76.0345 7.26067 75.7572 6.94C75.4885 6.61067 75.0509 6.446 74.4442 6.446C73.8549 6.446 73.3955 6.63233 73.0662 7.005C72.7455 7.369 72.5722 7.85867 72.5462 8.474H71.4022C71.4369 7.50333 71.7315 6.75367 72.2862 6.225C72.8409 5.69633 73.5559 5.432 74.4312 5.432C75.3239 5.432 76.0302 5.679 76.5502 6.173C77.0789 6.667 77.3432 7.34733 77.3432 8.214C77.3432 8.93333 77.1265 9.63533 76.6932 10.32C76.2685 10.996 75.7832 11.594 75.2372 12.114C74.6912 12.6253 73.9935 13.2233 73.1442 13.908H77.6162V14.896H71.3632V14.051ZM78.9577 7.967C79.0184 7.16967 79.3261 6.54567 79.8807 6.095C80.4354 5.64433 81.1547 5.419 82.0387 5.419C82.6281 5.419 83.1351 5.52733 83.5597 5.744C83.9931 5.952 84.3181 6.238 84.5347 6.602C84.7601 6.966 84.8727 7.37767 84.8727 7.837C84.8727 8.37433 84.7167 8.838 84.4047 9.228C84.1014 9.618 83.7027 9.86933 83.2087 9.982V10.047C83.7721 10.1857 84.2184 10.4587 84.5477 10.866C84.8771 11.2733 85.0417 11.8063 85.0417 12.465C85.0417 12.959 84.9291 13.4053 84.7037 13.804C84.4784 14.194 84.1404 14.5017 83.6897 14.727C83.2391 14.9523 82.6974 15.065 82.0647 15.065C81.1461 15.065 80.3921 14.8267 79.8027 14.35C79.2134 13.8647 78.8841 13.18 78.8147 12.296H79.9587C80.0194 12.816 80.2317 13.2407 80.5957 13.57C80.9597 13.8993 81.4451 14.064 82.0517 14.064C82.6584 14.064 83.1177 13.908 83.4297 13.596C83.7504 13.2753 83.9107 12.8637 83.9107 12.361C83.9107 11.711 83.6941 11.243 83.2607 10.957C82.8274 10.671 82.1731 10.528 81.2977 10.528H80.9987V9.54H81.3107C82.1081 9.53133 82.7104 9.40133 83.1177 9.15C83.5251 8.89 83.7287 8.49133 83.7287 7.954C83.7287 7.49467 83.5771 7.12633 83.2737 6.849C82.9791 6.57167 82.5544 6.433 81.9997 6.433C81.4624 6.433 81.0291 6.57167 80.6997 6.849C80.3704 7.12633 80.1754 7.499 80.1147 7.967H78.9577ZM91.774 9.735V10.736H86.587V9.735H91.774ZM93.7732 7.967C93.8338 7.16967 94.1415 6.54567 94.6962 6.095C95.2508 5.64433 95.9702 5.419 96.8542 5.419C97.4435 5.419 97.9505 5.52733 98.3752 5.744C98.8085 5.952 99.1335 6.238 99.3502 6.602C99.5755 6.966 99.6882 7.37767 99.6882 7.837C99.6882 8.37433 99.5322 8.838 99.2202 9.228C98.9168 9.618 98.5182 9.86933 98.0242 9.982V10.047C98.5875 10.1857 99.0338 10.4587 99.3632 10.866C99.6925 11.2733 99.8572 11.8063 99.8572 12.465C99.8572 12.959 99.7445 13.4053 99.5192 13.804C99.2938 14.194 98.9558 14.5017 98.5052 14.727C98.0545 14.9523 97.5128 15.065 96.8802 15.065C95.9615 15.065 95.2075 14.8267 94.6182 14.35C94.0288 13.8647 93.6995 13.18 93.6302 12.296H94.7742C94.8348 12.816 95.0472 13.2407 95.4112 13.57C95.7752 13.8993 96.2605 14.064 96.8672 14.064C97.4738 14.064 97.9332 13.908 98.2452 13.596C98.5658 13.2753 98.7262 12.8637 98.7262 12.361C98.7262 11.711 98.5095 11.243 98.0762 10.957C97.6428 10.671 96.9885 10.528 96.1132 10.528H95.8142V9.54H96.1262C96.9235 9.53133 97.5258 9.40133 97.9332 9.15C98.3405 8.89 98.5442 8.49133 98.5442 7.954C98.5442 7.49467 98.3925 7.12633 98.0892 6.849C97.7945 6.57167 97.3698 6.433 96.8152 6.433C96.2778 6.433 95.8445 6.57167 95.5152 6.849C95.1858 7.12633 94.9908 7.499 94.9302 7.967H93.7732ZM102.975 12.478C103.062 12.972 103.261 13.3533 103.573 13.622C103.894 13.8907 104.323 14.025 104.86 14.025C105.58 14.025 106.108 13.7433 106.446 13.18C106.793 12.6167 106.958 11.6677 106.94 10.333C106.758 10.723 106.455 11.0307 106.03 11.256C105.606 11.4727 105.133 11.581 104.613 11.581C104.033 11.581 103.513 11.464 103.053 11.23C102.603 10.9873 102.247 10.6363 101.987 10.177C101.727 9.71767 101.597 9.163 101.597 8.513C101.597 7.58567 101.866 6.84033 102.403 6.277C102.941 5.705 103.703 5.419 104.691 5.419C105.905 5.419 106.754 5.81333 107.239 6.602C107.733 7.39067 107.98 8.565 107.98 10.125C107.98 11.217 107.881 12.1183 107.681 12.829C107.491 13.5397 107.161 14.0813 106.693 14.454C106.234 14.8267 105.601 15.013 104.795 15.013C103.911 15.013 103.222 14.7747 102.728 14.298C102.234 13.8213 101.953 13.2147 101.883 12.478H102.975ZM104.808 10.58C105.389 10.58 105.866 10.4023 106.238 10.047C106.611 9.683 106.797 9.19333 106.797 8.578C106.797 7.928 106.615 7.40367 106.251 7.005C105.887 6.60633 105.376 6.407 104.717 6.407C104.111 6.407 103.625 6.59767 103.261 6.979C102.906 7.36033 102.728 7.863 102.728 8.487C102.728 9.11967 102.906 9.62667 103.261 10.008C103.617 10.3893 104.132 10.58 104.808 10.58ZM111.359 10.112C110.874 9.92133 110.501 9.644 110.241 9.28C109.981 8.916 109.851 8.474 109.851 7.954C109.851 7.486 109.968 7.06567 110.202 6.693C110.436 6.31167 110.783 6.01267 111.242 5.796C111.71 5.57067 112.273 5.458 112.932 5.458C113.591 5.458 114.15 5.57067 114.609 5.796C115.077 6.01267 115.428 6.31167 115.662 6.693C115.905 7.06567 116.026 7.486 116.026 7.954C116.026 8.45667 115.892 8.89867 115.623 9.28C115.354 9.65267 114.986 9.93 114.518 10.112C115.055 10.2767 115.48 10.567 115.792 10.983C116.113 11.3903 116.273 11.8843 116.273 12.465C116.273 13.0283 116.134 13.5223 115.857 13.947C115.58 14.363 115.185 14.688 114.674 14.922C114.171 15.1473 113.591 15.26 112.932 15.26C112.273 15.26 111.693 15.1473 111.19 14.922C110.696 14.688 110.31 14.363 110.033 13.947C109.756 13.5223 109.617 13.0283 109.617 12.465C109.617 11.8843 109.773 11.386 110.085 10.97C110.397 10.554 110.822 10.268 111.359 10.112ZM114.882 8.097C114.882 7.56833 114.709 7.161 114.362 6.875C114.015 6.589 113.539 6.446 112.932 6.446C112.334 6.446 111.862 6.589 111.515 6.875C111.168 7.161 110.995 7.57267 110.995 8.11C110.995 8.59533 111.173 8.98533 111.528 9.28C111.892 9.57467 112.36 9.722 112.932 9.722C113.513 9.722 113.981 9.57467 114.336 9.28C114.7 8.97667 114.882 8.58233 114.882 8.097ZM112.932 10.632C112.291 10.632 111.766 10.7837 111.359 11.087C110.952 11.3817 110.748 11.828 110.748 12.426C110.748 12.9807 110.943 13.427 111.333 13.765C111.732 14.103 112.265 14.272 112.932 14.272C113.599 14.272 114.128 14.103 114.518 13.765C114.908 13.427 115.103 12.9807 115.103 12.426C115.103 11.8453 114.904 11.4033 114.505 11.1C114.106 10.788 113.582 10.632 112.932 10.632Z" fill="white"/>
</g>
<defs>
<clipPath id="clip0_359_599">
<rect width="124" height="20" fill="white" transform="translate(0.5)"/>
</clipPath>
</defs>
</svg>
