<svg width="118" height="21" viewBox="0 0 118 21" fill="none" xmlns="http://www.w3.org/2000/svg">
<g clip-path="url(#clip0_359_596)">
<path d="M33.476 5.312V15H32.202V7.776L28.982 15H28.086L24.852 7.762V15H23.578V5.312H24.95L28.534 13.32L32.118 5.312H33.476ZM42.6366 10.87C42.6366 11.1127 42.6226 11.3693 42.5946 11.64H36.4626C36.5093 12.396 36.7659 12.9887 37.2326 13.418C37.7086 13.838 38.2826 14.048 38.9546 14.048C39.5053 14.048 39.9626 13.922 40.3266 13.67C40.6999 13.4087 40.9613 13.0633 41.1106 12.634H42.4826C42.2773 13.3713 41.8666 13.9733 41.2506 14.44C40.6346 14.8973 39.8693 15.126 38.9546 15.126C38.2266 15.126 37.5733 14.9627 36.9946 14.636C36.4253 14.3093 35.9773 13.8473 35.6506 13.25C35.3239 12.6433 35.1606 11.9433 35.1606 11.15C35.1606 10.3567 35.3193 9.66133 35.6366 9.064C35.9539 8.46667 36.3973 8.00933 36.9666 7.692C37.5453 7.36533 38.2079 7.202 38.9546 7.202C39.6826 7.202 40.3266 7.36067 40.8866 7.678C41.4466 7.99533 41.8759 8.434 42.1746 8.994C42.4826 9.54467 42.6366 10.17 42.6366 10.87ZM41.3206 10.604C41.3206 10.1187 41.2133 9.70333 40.9986 9.358C40.7839 9.00333 40.4899 8.73733 40.1166 8.56C39.7526 8.37333 39.3466 8.28 38.8986 8.28C38.2546 8.28 37.7039 8.48533 37.2466 8.896C36.7986 9.30667 36.5419 9.876 36.4766 10.604H41.3206ZM43.8422 11.136C43.8422 10.352 44.0009 9.666 44.3182 9.078C44.6356 8.48067 45.0696 8.01867 45.6202 7.692C46.1802 7.36533 46.8056 7.202 47.4962 7.202C48.0936 7.202 48.6489 7.342 49.1622 7.622C49.6756 7.89267 50.0676 8.252 50.3382 8.7V4.64H51.6262V15H50.3382V13.558C50.0862 14.0153 49.7129 14.3933 49.2182 14.692C48.7236 14.9813 48.1449 15.126 47.4822 15.126C46.8009 15.126 46.1802 14.958 45.6202 14.622C45.0696 14.286 44.6356 13.8147 44.3182 13.208C44.0009 12.6013 43.8422 11.9107 43.8422 11.136ZM50.3382 11.15C50.3382 10.5713 50.2216 10.0673 49.9882 9.638C49.7549 9.20867 49.4376 8.882 49.0362 8.658C48.6442 8.42467 48.2102 8.308 47.7342 8.308C47.2582 8.308 46.8242 8.42 46.4322 8.644C46.0402 8.868 45.7276 9.19467 45.4942 9.624C45.2609 10.0533 45.1442 10.5573 45.1442 11.136C45.1442 11.724 45.2609 12.2373 45.4942 12.676C45.7276 13.1053 46.0402 13.4367 46.4322 13.67C46.8242 13.894 47.2582 14.006 47.7342 14.006C48.2102 14.006 48.6442 13.894 49.0362 13.67C49.4376 13.4367 49.7549 13.1053 49.9882 12.676C50.2216 12.2373 50.3382 11.7287 50.3382 11.15ZM54.4372 6.082C54.1945 6.082 53.9892 5.998 53.8212 5.83C53.6532 5.662 53.5692 5.45667 53.5692 5.214C53.5692 4.97133 53.6532 4.766 53.8212 4.598C53.9892 4.43 54.1945 4.346 54.4372 4.346C54.6705 4.346 54.8665 4.43 55.0252 4.598C55.1932 4.766 55.2772 4.97133 55.2772 5.214C55.2772 5.45667 55.1932 5.662 55.0252 5.83C54.8665 5.998 54.6705 6.082 54.4372 6.082ZM55.0532 7.328V15H53.7792V7.328H55.0532ZM56.7485 11.136C56.7485 10.352 56.9072 9.666 57.2245 9.078C57.5418 8.48067 57.9758 8.01867 58.5265 7.692C59.0865 7.36533 59.7072 7.202 60.3885 7.202C61.0605 7.202 61.6438 7.34667 62.1385 7.636C62.6332 7.92533 63.0018 8.28933 63.2445 8.728V7.328H64.5325V15H63.2445V13.572C62.9925 14.02 62.6145 14.3933 62.1105 14.692C61.6158 14.9813 61.0372 15.126 60.3745 15.126C59.6932 15.126 59.0772 14.958 58.5265 14.622C57.9758 14.286 57.5418 13.8147 57.2245 13.208C56.9072 12.6013 56.7485 11.9107 56.7485 11.136ZM63.2445 11.15C63.2445 10.5713 63.1278 10.0673 62.8945 9.638C62.6612 9.20867 62.3438 8.882 61.9425 8.658C61.5505 8.42467 61.1165 8.308 60.6405 8.308C60.1645 8.308 59.7305 8.42 59.3385 8.644C58.9465 8.868 58.6338 9.19467 58.4005 9.624C58.1672 10.0533 58.0505 10.5573 58.0505 11.136C58.0505 11.724 58.1672 12.2373 58.4005 12.676C58.6338 13.1053 58.9465 13.4367 59.3385 13.67C59.7305 13.894 60.1645 14.006 60.6405 14.006C61.1165 14.006 61.5505 13.894 61.9425 13.67C62.3438 13.4367 62.6612 13.1053 62.8945 12.676C63.1278 12.2373 63.2445 11.7287 63.2445 11.15ZM69.9418 10.114C69.9418 9.162 70.1565 8.308 70.5858 7.552C71.0152 6.78667 71.5985 6.18933 72.3358 5.76C73.0825 5.33067 73.9085 5.116 74.8138 5.116C75.8778 5.116 76.8065 5.37267 77.5998 5.886C78.3932 6.39933 78.9718 7.12733 79.3358 8.07H77.8098C77.5392 7.482 77.1472 7.02933 76.6338 6.712C76.1298 6.39467 75.5232 6.236 74.8138 6.236C74.1325 6.236 73.5212 6.39467 72.9798 6.712C72.4385 7.02933 72.0138 7.482 71.7058 8.07C71.3978 8.64867 71.2438 9.33 71.2438 10.114C71.2438 10.8887 71.3978 11.57 71.7058 12.158C72.0138 12.7367 72.4385 13.1847 72.9798 13.502C73.5212 13.8193 74.1325 13.978 74.8138 13.978C75.5232 13.978 76.1298 13.824 76.6338 13.516C77.1472 13.1987 77.5392 12.746 77.8098 12.158H79.3358C78.9718 13.0913 78.3932 13.8147 77.5998 14.328C76.8065 14.832 75.8778 15.084 74.8138 15.084C73.9085 15.084 73.0825 14.874 72.3358 14.454C71.5985 14.0247 71.0152 13.432 70.5858 12.676C70.1565 11.92 69.9418 11.066 69.9418 10.114ZM88.2323 10.87C88.2323 11.1127 88.2183 11.3693 88.1903 11.64H82.0583C82.105 12.396 82.3616 12.9887 82.8283 13.418C83.3043 13.838 83.8783 14.048 84.5503 14.048C85.101 14.048 85.5583 13.922 85.9223 13.67C86.2956 13.4087 86.557 13.0633 86.7063 12.634H88.0783C87.873 13.3713 87.4623 13.9733 86.8463 14.44C86.2303 14.8973 85.465 15.126 84.5503 15.126C83.8223 15.126 83.169 14.9627 82.5903 14.636C82.021 14.3093 81.573 13.8473 81.2463 13.25C80.9196 12.6433 80.7563 11.9433 80.7563 11.15C80.7563 10.3567 80.915 9.66133 81.2323 9.064C81.5496 8.46667 81.993 8.00933 82.5623 7.692C83.141 7.36533 83.8036 7.202 84.5503 7.202C85.2783 7.202 85.9223 7.36067 86.4823 7.678C87.0423 7.99533 87.4716 8.434 87.7703 8.994C88.0783 9.54467 88.2323 10.17 88.2323 10.87ZM86.9163 10.604C86.9163 10.1187 86.809 9.70333 86.5943 9.358C86.3796 9.00333 86.0856 8.73733 85.7123 8.56C85.3483 8.37333 84.9423 8.28 84.4943 8.28C83.8503 8.28 83.2996 8.48533 82.8423 8.896C82.3943 9.30667 82.1376 9.876 82.0723 10.604H86.9163ZM93.6519 7.188C94.5853 7.188 95.3413 7.47267 95.9199 8.042C96.4986 8.602 96.7879 9.414 96.7879 10.478V15H95.5279V10.66C95.5279 9.89467 95.3366 9.31133 94.9539 8.91C94.5713 8.49933 94.0486 8.294 93.3859 8.294C92.7139 8.294 92.1773 8.504 91.7759 8.924C91.3839 9.344 91.1879 9.95533 91.1879 10.758V15H89.9139V7.328H91.1879V8.42C91.4399 8.028 91.7806 7.72467 92.2099 7.51C92.6486 7.29533 93.1293 7.188 93.6519 7.188ZM100.423 8.378V12.9C100.423 13.2733 100.502 13.5393 100.661 13.698C100.82 13.8473 101.095 13.922 101.487 13.922H102.425V15H101.277C100.568 15 100.036 14.8367 99.681 14.51C99.3263 14.1833 99.149 13.6467 99.149 12.9V8.378H98.155V7.328H99.149V5.396H100.423V7.328H102.425V8.378H100.423ZM105.243 8.574C105.467 8.13533 105.784 7.79467 106.195 7.552C106.615 7.30933 107.123 7.188 107.721 7.188V8.504H107.385C105.957 8.504 105.243 9.27867 105.243 10.828V15H103.969V7.328H105.243V8.574ZM116.191 10.87C116.191 11.1127 116.177 11.3693 116.149 11.64H110.017C110.064 12.396 110.321 12.9887 110.787 13.418C111.263 13.838 111.837 14.048 112.509 14.048C113.06 14.048 113.517 13.922 113.881 13.67C114.255 13.4087 114.516 13.0633 114.665 12.634H116.037C115.832 13.3713 115.421 13.9733 114.805 14.44C114.189 14.8973 113.424 15.126 112.509 15.126C111.781 15.126 111.128 14.9627 110.549 14.636C109.98 14.3093 109.532 13.8473 109.205 13.25C108.879 12.6433 108.715 11.9433 108.715 11.15C108.715 10.3567 108.874 9.66133 109.191 9.064C109.509 8.46667 109.952 8.00933 110.521 7.692C111.1 7.36533 111.763 7.202 112.509 7.202C113.237 7.202 113.881 7.36067 114.441 7.678C115.001 7.99533 115.431 8.434 115.729 8.994C116.037 9.54467 116.191 10.17 116.191 10.87ZM114.875 10.604C114.875 10.1187 114.768 9.70333 114.553 9.358C114.339 9.00333 114.045 8.73733 113.671 8.56C113.307 8.37333 112.901 8.28 112.453 8.28C111.809 8.28 111.259 8.48533 110.801 8.896C110.353 9.30667 110.097 9.876 110.031 10.604H114.875Z" fill="#FAFAFA"/>
<path d="M11.5679 9.70113L6.81577 5.31428C6.73648 5.24105 6.63113 5.2002 6.52158 5.2002C6.41204 5.2002 6.30669 5.24105 6.2274 5.31428L6.22228 5.31924C6.18371 5.35474 6.153 5.39748 6.13201 5.44484C6.11102 5.49221 6.1002 5.54321 6.1002 5.59476C6.1002 5.64631 6.11102 5.69731 6.13201 5.74468C6.153 5.79204 6.18371 5.83478 6.22228 5.87028L10.6973 10.001L6.22228 14.1301C6.18371 14.1656 6.153 14.2083 6.13201 14.2557C6.11102 14.3031 6.1002 14.3541 6.1002 14.4056C6.1002 14.4572 6.11102 14.5082 6.13201 14.5556C6.153 14.6029 6.18371 14.6457 6.22228 14.6812L6.2274 14.6861C6.30669 14.7593 6.41204 14.8002 6.52158 14.8002C6.63113 14.8002 6.73648 14.7593 6.81577 14.6861L11.5679 10.2993C11.6097 10.2607 11.643 10.2143 11.6657 10.1629C11.6885 10.1115 11.7002 10.0561 11.7002 10.0002C11.7002 9.94427 11.6885 9.88892 11.6657 9.83752C11.643 9.78611 11.6097 9.73971 11.5679 9.70113Z" fill="#FAFAFA"/>
</g>
<defs>
<clipPath id="clip0_359_596">
<rect width="117" height="21" fill="white" transform="translate(0.5)"/>
</clipPath>
</defs>
</svg>
