<svg width="32" height="32" viewBox="0 0 32 32" fill="none" xmlns="http://www.w3.org/2000/svg">
<g clip-path="url(#clip0_357_579)">
<path d="M17.9998 14.6668C19.2375 14.6668 20.4245 14.1752 21.2997 13.3C22.1748 12.4248 22.6665 11.2378 22.6665 10.0002C22.6665 8.76249 22.1748 7.5755 21.2997 6.70033C20.4245 5.82516 19.2375 5.3335 17.9998 5.3335M17.5238 26.6668H5.1425C3.7745 26.6668 2.6665 25.6442 2.6665 24.3815C2.6665 21.2255 5.4385 18.6668 8.85717 18.6668H13.8092C15.1346 18.6621 16.4302 19.0606 17.5238 19.8095M25.3332 18.6668V26.6668M29.3332 22.6668H21.3332M15.9998 10.0002C15.9998 11.2378 15.5082 12.4248 14.633 13.3C13.7578 14.1752 12.5708 14.6668 11.3332 14.6668C10.0955 14.6668 8.90851 14.1752 8.03334 13.3C7.15817 12.4248 6.6665 11.2378 6.6665 10.0002C6.6665 8.76249 7.15817 7.5755 8.03334 6.70033C8.90851 5.82516 10.0955 5.3335 11.3332 5.3335C12.5708 5.3335 13.7578 5.82516 14.633 6.70033C15.5082 7.5755 15.9998 8.76249 15.9998 10.0002Z" stroke="#0D4929" stroke-width="1.5" stroke-linecap="round" stroke-linejoin="round"/>
</g>
<defs>
<clipPath id="clip0_357_579">
<rect width="32" height="32" fill="white"/>
</clipPath>
</defs>
</svg>
