<svg width="17" height="16" viewBox="0 0 17 16" fill="none" xmlns="http://www.w3.org/2000/svg">
<g clip-path="url(#clip0_359_598)">
<path d="M13 6.5C13 5.30653 12.5259 4.16193 11.682 3.31802C10.8381 2.47411 9.69347 2 8.5 2C7.30653 2 6.16193 2.47411 5.31802 3.31802C4.47411 4.16193 4 5.30653 4 6.5C4 8.346 5.477 10.752 8.5 13.634C11.523 10.752 13 8.346 13 6.5ZM8.5 15C4.833 11.667 3 8.833 3 6.5C3 5.04131 3.57946 3.64236 4.61091 2.61091C5.64236 1.57946 7.04131 1 8.5 1C9.95869 1 11.3576 1.57946 12.3891 2.61091C13.4205 3.64236 14 5.04131 14 6.5C14 8.833 12.167 11.667 8.5 15Z" fill="white"/>
<path d="M8.5 8C8.89782 8 9.27936 7.84196 9.56066 7.56066C9.84196 7.27936 10 6.89782 10 6.5C10 6.10218 9.84196 5.72064 9.56066 5.43934C9.27936 5.15804 8.89782 5 8.5 5C8.10218 5 7.72064 5.15804 7.43934 5.43934C7.15804 5.72064 7 6.10218 7 6.5C7 6.89782 7.15804 7.27936 7.43934 7.56066C7.72064 7.84196 8.10218 8 8.5 8ZM8.5 9C7.83696 9 7.20107 8.73661 6.73223 8.26777C6.26339 7.79893 6 7.16304 6 6.5C6 5.83696 6.26339 5.20107 6.73223 4.73223C7.20107 4.26339 7.83696 4 8.5 4C9.16304 4 9.79893 4.26339 10.2678 4.73223C10.7366 5.20107 11 5.83696 11 6.5C11 7.16304 10.7366 7.79893 10.2678 8.26777C9.79893 8.73661 9.16304 9 8.5 9Z" fill="white"/>
</g>
<defs>
<clipPath id="clip0_359_598">
<rect width="16" height="16" fill="white" transform="translate(0.5)"/>
</clipPath>
</defs>
</svg>
