<svg width="21" height="20" viewBox="0 0 21 20" fill="none" xmlns="http://www.w3.org/2000/svg">
<g clip-path="url(#clip0_359_601)">
<rect x="1" y="0.5" width="19" height="19" rx="9.5" stroke="white"/>
<path d="M14.3638 9.36747C14.3638 7.25769 12.6558 5.54541 10.5513 5.54541C8.44677 5.54541 6.73877 7.25769 6.73877 9.36747C6.73877 11.2173 8.05027 12.7576 9.78877 13.1131V10.5141H9.02627V9.36747H9.78877V8.41195C9.78877 7.67429 10.3873 7.07423 11.1231 7.07423H12.0763V8.22085H11.3138C11.1041 8.22085 10.9325 8.39284 10.9325 8.60305V9.36747H12.0763V10.5141H10.9325V13.1704C12.8578 12.9793 14.3638 11.3511 14.3638 9.36747Z" fill="white"/>
</g>
<defs>
<clipPath id="clip0_359_601">
<rect width="20" height="20" fill="white" transform="translate(0.5)"/>
</clipPath>
</defs>
</svg>
