<svg width="21" height="20" viewBox="0 0 21 20" fill="none" xmlns="http://www.w3.org/2000/svg">
<g clip-path="url(#clip0_359_602)">
<rect x="1" y="0.5" width="19" height="19" rx="9.5" stroke="white"/>
<path d="M14.3638 6.97936C14.0782 7.10648 13.7754 7.18996 13.4653 7.22705C13.7919 7.03023 14.0362 6.72066 14.1528 6.35601C13.8461 6.5397 13.5098 6.66844 13.1597 6.73808C12.9243 6.48458 12.6122 6.31647 12.2721 6.25986C11.9319 6.20326 11.5827 6.26133 11.2787 6.42506C10.9747 6.58879 10.733 6.849 10.5911 7.16524C10.4493 7.48148 10.4152 7.83602 10.4942 8.17376C9.87216 8.14243 9.26359 7.97979 8.70804 7.6964C8.15249 7.413 7.66239 7.01519 7.26955 6.52879C7.13051 6.76911 7.05744 7.04231 7.05783 7.3204C7.05783 7.86622 7.33426 8.34842 7.75357 8.63073C7.5052 8.62285 7.26231 8.55535 7.04512 8.43386V8.45306C7.0451 8.81664 7.17006 9.16903 7.39879 9.45046C7.62752 9.73189 7.94594 9.92504 8.30005 9.99715C8.0695 10.0601 7.82774 10.0694 7.5931 10.0243C7.69294 10.3372 7.88756 10.6109 8.14968 10.807C8.41181 11.0031 8.72832 11.1117 9.05488 11.1178C8.73034 11.3743 8.35874 11.5639 7.96132 11.6758C7.5639 11.7876 7.14846 11.8196 6.73877 11.7697C7.45385 12.2325 8.28625 12.4782 9.13643 12.4774C12.0144 12.4774 13.5876 10.0785 13.5876 7.99797C13.5876 7.93021 13.5861 7.8617 13.5831 7.79432C13.8893 7.57161 14.1535 7.29577 14.3634 6.97974L14.3638 6.97936Z" fill="white"/>
</g>
<defs>
<clipPath id="clip0_359_602">
<rect width="20" height="20" fill="white" transform="translate(0.5)"/>
</clipPath>
</defs>
</svg>
