<svg width="36" height="36" viewBox="0 0 36 36" fill="none" xmlns="http://www.w3.org/2000/svg">
<g clip-path="url(#clip0_362_7787)">
<path d="M18.0003 6.86363e-06C15.2655 -0.00255719 12.5822 0.71332 10.2409 2.07008C7.89969 3.42684 5.98985 5.37275 4.71831 7.69699C3.44678 10.0212 2.86204 12.6352 3.02744 15.2556C3.19283 17.8761 4.10207 20.4031 5.65663 22.563C5.71885 22.6804 5.79431 22.7908 5.88164 22.8924L6.10665 23.1552C6.31665 23.4162 6.53229 23.6682 6.71792 23.8752L16.5527 35.3484C16.7291 35.5527 16.9503 35.7171 17.2005 35.8297C17.4508 35.9424 17.7239 36.0005 18.0003 36V36C18.2774 36.0001 18.5512 35.9413 18.8018 35.8277C19.0524 35.7141 19.2737 35.5485 19.4497 35.343L28.9976 24.174C29.3843 23.7748 29.7462 23.3541 30.0814 22.914L30.3195 22.635C30.4103 22.5292 30.4871 22.4132 30.5483 22.2894C32.0301 20.1174 32.8726 17.6013 32.9867 15.0072C33.1007 12.4132 32.4821 9.83788 31.1962 7.55376C29.9103 5.26964 28.0051 3.36174 25.6821 2.032C23.3591 0.702267 20.7049 0.000163184 18.0003 6.86363e-06V6.86363e-06ZM18.0003 9C19.1128 9 20.2004 9.31671 21.1255 9.91007C22.0506 10.5034 22.7716 11.3468 23.1973 12.3335C23.6231 13.3202 23.7345 14.406 23.5174 15.4535C23.3004 16.501 22.7646 17.4632 21.9779 18.2184C21.1912 18.9736 20.1889 19.4879 19.0977 19.6962C18.0065 19.9046 16.8755 19.7977 15.8476 19.389C14.8197 18.9802 13.9412 18.2881 13.3231 17.4001C12.7049 16.5121 12.375 15.468 12.375 14.4C12.375 12.9678 12.9677 11.5943 14.0226 10.5816C15.0776 9.56893 16.5084 9 18.0003 9V9Z" fill="#6B7280"/>
</g>
<defs>
<clipPath id="clip0_362_7787">
<rect width="36" height="36" fill="white"/>
</clipPath>
</defs>
</svg>
