<svg width="12" height="12" viewBox="0 0 12 12" fill="none" xmlns="http://www.w3.org/2000/svg">
<g clip-path="url(#clip0_342_560)">
<path d="M10.5341 9.73895L10.8189 10.0193L10.5336 9.73895H10.5341ZM3.74689 8.60265L4.03117 8.32226L3.74635 8.60265H3.74689ZM1.52541 3.02023L1.24112 2.74038L1.52594 3.02076L1.52541 3.02023ZM7.95349 8.16204L8.19901 7.92329L7.62883 7.36252L7.38439 7.60127L7.95349 8.16204ZM9.02224 7.82316L10.0511 8.37075L10.4361 7.67611L9.40774 7.12904L9.02224 7.82316ZM10.2487 9.45856L9.4842 10.2033L10.0533 10.7635L10.8178 10.0193L10.2487 9.45856ZM9.01793 10.4425C8.23724 10.5142 6.21819 10.4505 4.03117 8.32226L3.46153 8.88251C5.84777 11.2052 8.11932 11.319 9.09331 11.2299L9.01739 10.4425H9.01793ZM4.03117 8.32226C1.94698 6.29316 1.60132 4.58713 1.55825 3.84663L0.751709 3.89143C0.80555 4.82324 1.23359 6.71426 3.46153 8.88251L4.03117 8.32226ZM4.77148 5.06515L4.92601 4.91442L4.35745 4.35417L4.20292 4.50438L4.77202 5.06463L4.77148 5.06515ZM5.04877 2.99863L4.37037 2.11109L3.72374 2.58543L4.40213 3.47244L5.04877 2.99863ZM2.08697 1.91766L1.24166 2.73985L1.8113 3.30062L2.65607 2.47844L2.08697 1.91766ZM4.4872 4.78477C4.20185 4.50438 4.20185 4.50438 4.20185 4.50544H4.20077L4.19915 4.50754C4.17373 4.53294 4.15084 4.56065 4.13078 4.59029C4.1017 4.63245 4.06994 4.68779 4.04302 4.75789C3.97745 4.93883 3.96112 5.13336 3.99563 5.32235C4.06778 5.77824 4.38867 6.38065 5.21029 7.18069L5.77993 6.61992C5.01054 5.87152 4.82748 5.41616 4.79356 5.20113C4.77741 5.09888 4.7941 5.04829 4.79894 5.03669C4.80164 5.02931 4.80271 5.02879 4.79894 5.03353C4.7942 5.04084 4.78879 5.04772 4.78279 5.05408L4.77741 5.05935C4.77567 5.06099 4.77387 5.06258 4.77202 5.0641L4.48667 4.78477H4.4872ZM5.21029 7.18069C6.03244 7.98074 6.65108 8.29275 7.11734 8.36232C7.35586 8.39816 7.54807 8.3697 7.69398 8.31647C7.77557 8.28691 7.85189 8.24493 7.92011 8.19209C7.92938 8.1845 7.93836 8.17659 7.94703 8.16837L7.9508 8.16521L7.95242 8.16363L7.95296 8.16257C7.95296 8.16257 7.95349 8.16204 7.66867 7.88166C7.38332 7.60127 7.38493 7.60075 7.38493 7.60075L7.38601 7.59969L7.38708 7.59864L7.39032 7.596L7.3957 7.59073C7.40217 7.58504 7.40901 7.57976 7.41616 7.57492C7.42154 7.57123 7.41993 7.57281 7.41239 7.57597C7.39893 7.58072 7.34617 7.59706 7.2401 7.58124C7.0172 7.54751 6.54878 7.36832 5.77993 6.61992L5.21029 7.18069ZM4.37037 2.11056C3.82119 1.39379 2.74221 1.27995 2.08697 1.91766L2.65607 2.47844C2.9425 2.19963 3.45076 2.22862 3.72374 2.58543L4.36983 2.11056H4.37037ZM1.55879 3.84716C1.54802 3.66481 1.63363 3.47402 1.8113 3.30115L1.24112 2.74038C0.951998 3.02182 0.72425 3.42026 0.751709 3.89143L1.55879 3.84716ZM9.4842 10.2033C9.33667 10.3477 9.1773 10.4288 9.01847 10.4431L9.09331 11.2299C9.48904 11.1936 9.81263 10.9986 10.0538 10.764L9.4842 10.2033ZM4.92601 4.91442C5.45634 4.39845 5.49565 3.58311 5.0493 2.99915L4.40267 3.47296C4.61965 3.75704 4.58735 4.12965 4.35691 4.3547L4.92601 4.91442ZM10.0517 8.37128C10.4916 8.60529 10.5599 9.15657 10.2493 9.45909L10.8189 10.0193C11.5404 9.31679 11.318 8.14518 10.4366 7.67664L10.0517 8.37128ZM8.19901 7.92382C8.40576 7.72249 8.7385 7.67295 9.02278 7.82368L9.40828 7.12957C8.82464 6.81862 8.10102 6.90452 7.62937 7.36305L8.19901 7.92382Z" fill="white"/>
</g>
<defs>
<clipPath id="clip0_342_560">
<rect width="12" height="12" fill="white"/>
</clipPath>
</defs>
</svg>
