<svg width="372" height="142" viewBox="0 0 372 142" fill="none" xmlns="http://www.w3.org/2000/svg">
<g clip-path="url(#clip0_359_604)">
<path d="M4.374 15.091C3.776 15.091 3.23867 14.987 2.762 14.779C2.294 14.5623 1.92567 14.2677 1.657 13.895C1.38833 13.5137 1.24967 13.076 1.241 12.582H2.502C2.54533 13.0067 2.71867 13.3663 3.022 13.661C3.334 13.947 3.78467 14.09 4.374 14.09C4.93733 14.09 5.37933 13.9513 5.7 13.674C6.02933 13.388 6.194 13.024 6.194 12.582C6.194 12.2353 6.09867 11.9537 5.908 11.737C5.71733 11.5203 5.479 11.3557 5.193 11.243C4.907 11.1303 4.52133 11.009 4.036 10.879C3.438 10.723 2.957 10.567 2.593 10.411C2.23767 10.255 1.93 10.0123 1.67 9.683C1.41867 9.345 1.293 8.89433 1.293 8.331C1.293 7.837 1.41867 7.39933 1.67 7.018C1.92133 6.63667 2.27233 6.342 2.723 6.134C3.18233 5.926 3.70667 5.822 4.296 5.822C5.14533 5.822 5.83867 6.03433 6.376 6.459C6.922 6.88367 7.22967 7.447 7.299 8.149H5.999C5.95567 7.80233 5.77367 7.499 5.453 7.239C5.13233 6.97033 4.70767 6.836 4.179 6.836C3.685 6.836 3.282 6.966 2.97 7.226C2.658 7.47733 2.502 7.83267 2.502 8.292C2.502 8.62133 2.593 8.89 2.775 9.098C2.96567 9.306 3.19533 9.46633 3.464 9.579C3.74133 9.683 4.127 9.80433 4.621 9.943C5.219 10.1077 5.7 10.2723 6.064 10.437C6.428 10.593 6.74 10.84 7 11.178C7.26 11.5073 7.39 11.958 7.39 12.53C7.39 12.972 7.273 13.388 7.039 13.778C6.805 14.168 6.45833 14.4843 5.999 14.727C5.53967 14.9697 4.998 15.091 4.374 15.091ZM9.74188 6.719C9.51655 6.719 9.32588 6.641 9.16988 6.485C9.01388 6.329 8.93588 6.13833 8.93588 5.913C8.93588 5.68767 9.01388 5.497 9.16988 5.341C9.32588 5.185 9.51655 5.107 9.74188 5.107C9.95855 5.107 10.1405 5.185 10.2879 5.341C10.4439 5.497 10.5219 5.68767 10.5219 5.913C10.5219 6.13833 10.4439 6.329 10.2879 6.485C10.1405 6.641 9.95855 6.719 9.74188 6.719ZM10.3139 7.876V15H9.13088V7.876H10.3139ZM15.2681 7.759C15.8834 7.759 16.4208 7.89333 16.8801 8.162C17.3481 8.43067 17.6948 8.76867 17.9201 9.176V7.876H19.1161V15.156C19.1161 15.806 18.9774 16.3823 18.7001 16.885C18.4228 17.3963 18.0241 17.795 17.5041 18.081C16.9928 18.367 16.3948 18.51 15.7101 18.51C14.7741 18.51 13.9941 18.289 13.3701 17.847C12.7461 17.405 12.3778 16.8027 12.2651 16.04H13.4351C13.5651 16.4733 13.8338 16.82 14.2411 17.08C14.6484 17.3487 15.1381 17.483 15.7101 17.483C16.3601 17.483 16.8888 17.2793 17.2961 16.872C17.7121 16.4647 17.9201 15.8927 17.9201 15.156V13.661C17.6861 14.077 17.3394 14.4237 16.8801 14.701C16.4208 14.9783 15.8834 15.117 15.2681 15.117C14.6354 15.117 14.0591 14.961 13.5391 14.649C13.0278 14.337 12.6248 13.8993 12.3301 13.336C12.0354 12.7727 11.8881 12.1313 11.8881 11.412C11.8881 10.684 12.0354 10.047 12.3301 9.501C12.6248 8.94633 13.0278 8.51733 13.5391 8.214C14.0591 7.91067 14.6354 7.759 15.2681 7.759ZM17.9201 11.425C17.9201 10.8877 17.8118 10.4197 17.5951 10.021C17.3784 9.62233 17.0838 9.319 16.7111 9.111C16.3471 8.89433 15.9441 8.786 15.5021 8.786C15.0601 8.786 14.6571 8.89 14.2931 9.098C13.9291 9.306 13.6388 9.60933 13.4221 10.008C13.2054 10.4067 13.0971 10.8747 13.0971 11.412C13.0971 11.958 13.2054 12.4347 13.4221 12.842C13.6388 13.2407 13.9291 13.5483 14.2931 13.765C14.6571 13.973 15.0601 14.077 15.5021 14.077C15.9441 14.077 16.3471 13.973 16.7111 13.765C17.0838 13.5483 17.3784 13.2407 17.5951 12.842C17.8118 12.4347 17.9201 11.9623 17.9201 11.425ZM24.5863 7.746C25.4529 7.746 26.1549 8.01033 26.6923 8.539C27.2296 9.059 27.4983 9.813 27.4983 10.801V15H26.3283V10.97C26.3283 10.2593 26.1506 9.71767 25.7953 9.345C25.4399 8.96367 24.9546 8.773 24.3393 8.773C23.7153 8.773 23.2169 8.968 22.8443 9.358C22.4803 9.748 22.2983 10.3157 22.2983 11.061V15H21.1153V7.876H22.2983V8.89C22.5323 8.526 22.8486 8.24433 23.2473 8.045C23.6546 7.84567 24.1009 7.746 24.5863 7.746ZM39.2145 7.876V15H38.0315V13.947C37.8062 14.311 37.4898 14.597 37.0825 14.805C36.6838 15.0043 36.2418 15.104 35.7565 15.104C35.2018 15.104 34.7035 14.9913 34.2615 14.766C33.8195 14.532 33.4685 14.1853 33.2085 13.726C32.9572 13.2667 32.8315 12.7077 32.8315 12.049V7.876H34.0015V11.893C34.0015 12.595 34.1792 13.1367 34.5345 13.518C34.8898 13.8907 35.3752 14.077 35.9905 14.077C36.6232 14.077 37.1215 13.882 37.4855 13.492C37.8495 13.102 38.0315 12.5343 38.0315 11.789V7.876H39.2145ZM42.3949 9.189C42.6289 8.78167 42.9756 8.44367 43.4349 8.175C43.9029 7.89767 44.4446 7.759 45.0599 7.759C45.6926 7.759 46.2646 7.91067 46.7759 8.214C47.2959 8.51733 47.7033 8.94633 47.9979 9.501C48.2926 10.047 48.4399 10.684 48.4399 11.412C48.4399 12.1313 48.2926 12.7727 47.9979 13.336C47.7033 13.8993 47.2959 14.337 46.7759 14.649C46.2646 14.961 45.6926 15.117 45.0599 15.117C44.4533 15.117 43.9159 14.9827 43.4479 14.714C42.9886 14.4367 42.6376 14.0943 42.3949 13.687V18.38H41.2119V7.876H42.3949V9.189ZM47.2309 11.412C47.2309 10.8747 47.1226 10.4067 46.9059 10.008C46.6893 9.60933 46.3946 9.306 46.0219 9.098C45.6579 8.89 45.2549 8.786 44.8129 8.786C44.3796 8.786 43.9766 8.89433 43.6039 9.111C43.2399 9.319 42.9453 9.62667 42.7199 10.034C42.5033 10.4327 42.3949 10.8963 42.3949 11.425C42.3949 11.9623 42.5033 12.4347 42.7199 12.842C42.9453 13.2407 43.2399 13.5483 43.6039 13.765C43.9766 13.973 44.3796 14.077 44.8129 14.077C45.2549 14.077 45.6579 13.973 46.0219 13.765C46.3946 13.5483 46.6893 13.2407 46.9059 12.842C47.1226 12.4347 47.2309 11.958 47.2309 11.412ZM56.9339 7.746C57.8006 7.746 58.5026 8.01033 59.0399 8.539C59.5772 9.059 59.8459 9.813 59.8459 10.801V15H58.6759V10.97C58.6759 10.2593 58.4982 9.71767 58.1429 9.345C57.7876 8.96367 57.3022 8.773 56.6869 8.773C56.0629 8.773 55.5646 8.968 55.1919 9.358C54.8279 9.748 54.6459 10.3157 54.6459 11.061V15H53.4629V7.876H54.6459V8.89C54.8799 8.526 55.1962 8.24433 55.5949 8.045C56.0022 7.84567 56.4486 7.746 56.9339 7.746ZM64.8853 15.117C64.218 15.117 63.6113 14.9653 63.0653 14.662C62.528 14.3587 62.1033 13.9297 61.7913 13.375C61.488 12.8117 61.3363 12.1617 61.3363 11.425C61.3363 10.697 61.4923 10.0557 61.8043 9.501C62.125 8.93767 62.5583 8.50867 63.1043 8.214C63.6503 7.91067 64.2613 7.759 64.9373 7.759C65.6133 7.759 66.2243 7.91067 66.7703 8.214C67.3163 8.50867 67.7453 8.93333 68.0573 9.488C68.378 10.0427 68.5383 10.6883 68.5383 11.425C68.5383 12.1617 68.3737 12.8117 68.0443 13.375C67.7237 13.9297 67.286 14.3587 66.7313 14.662C66.1767 14.9653 65.5613 15.117 64.8853 15.117ZM64.8853 14.077C65.31 14.077 65.7087 13.9773 66.0813 13.778C66.454 13.5787 66.753 13.2797 66.9783 12.881C67.2123 12.4823 67.3293 11.997 67.3293 11.425C67.3293 10.853 67.2167 10.3677 66.9913 9.969C66.766 9.57033 66.4713 9.27567 66.1073 9.085C65.7433 8.88567 65.349 8.786 64.9243 8.786C64.491 8.786 64.0923 8.88567 63.7283 9.085C63.373 9.27567 63.087 9.57033 62.8703 9.969C62.6537 10.3677 62.5453 10.853 62.5453 11.425C62.5453 12.0057 62.6493 12.4953 62.8573 12.894C63.074 13.2927 63.36 13.5917 63.7153 13.791C64.0707 13.9817 64.4607 14.077 64.8853 14.077ZM79.5838 7.876L77.3608 15H76.1388L74.4228 9.345L72.7068 15H71.4848L69.2488 7.876H70.4578L72.0958 13.856L73.8638 7.876H75.0728L76.8018 13.869L78.4138 7.876H79.5838ZM87.1227 8.851H85.6277V15H84.4447V8.851H83.5217V7.876H84.4447V7.369C84.4447 6.57167 84.6483 5.991 85.0557 5.627C85.4717 5.25433 86.1347 5.068 87.0447 5.068V6.056C86.5247 6.056 86.1563 6.16 85.9397 6.368C85.7317 6.56733 85.6277 6.901 85.6277 7.369V7.876H87.1227V8.851ZM91.609 15.117C90.9416 15.117 90.335 14.9653 89.789 14.662C89.2516 14.3587 88.827 13.9297 88.515 13.375C88.2116 12.8117 88.06 12.1617 88.06 11.425C88.06 10.697 88.216 10.0557 88.528 9.501C88.8486 8.93767 89.282 8.50867 89.828 8.214C90.374 7.91067 90.985 7.759 91.661 7.759C92.337 7.759 92.948 7.91067 93.494 8.214C94.04 8.50867 94.469 8.93333 94.781 9.488C95.1016 10.0427 95.262 10.6883 95.262 11.425C95.262 12.1617 95.0973 12.8117 94.768 13.375C94.4473 13.9297 94.0096 14.3587 93.455 14.662C92.9003 14.9653 92.285 15.117 91.609 15.117ZM91.609 14.077C92.0336 14.077 92.4323 13.9773 92.805 13.778C93.1776 13.5787 93.4766 13.2797 93.702 12.881C93.936 12.4823 94.053 11.997 94.053 11.425C94.053 10.853 93.9403 10.3677 93.715 9.969C93.4896 9.57033 93.195 9.27567 92.831 9.085C92.467 8.88567 92.0726 8.786 91.648 8.786C91.2146 8.786 90.816 8.88567 90.452 9.085C90.0966 9.27567 89.8106 9.57033 89.594 9.969C89.3773 10.3677 89.269 10.853 89.269 11.425C89.269 12.0057 89.373 12.4953 89.581 12.894C89.7976 13.2927 90.0836 13.5917 90.439 13.791C90.7943 13.9817 91.1843 14.077 91.609 14.077ZM98.0004 9.033C98.2084 8.62567 98.5031 8.30933 98.8844 8.084C99.2744 7.85867 99.7467 7.746 100.301 7.746V8.968H99.9894C98.6634 8.968 98.0004 9.68733 98.0004 11.126V15H96.8174V7.876H98.0004V9.033ZM114.623 7.876L112.4 15H111.178L109.462 9.345L107.746 15H106.524L104.288 7.876H105.497L107.135 13.856L108.903 7.876H110.112L111.841 13.869L113.453 7.876H114.623ZM122.297 11.165C122.297 11.3903 122.284 11.6287 122.258 11.88H116.564C116.607 12.582 116.846 13.1323 117.279 13.531C117.721 13.921 118.254 14.116 118.878 14.116C119.389 14.116 119.814 13.999 120.152 13.765C120.499 13.5223 120.741 13.2017 120.88 12.803H122.154C121.963 13.4877 121.582 14.0467 121.01 14.48C120.438 14.9047 119.727 15.117 118.878 15.117C118.202 15.117 117.595 14.9653 117.058 14.662C116.529 14.3587 116.113 13.9297 115.81 13.375C115.507 12.8117 115.355 12.1617 115.355 11.425C115.355 10.6883 115.502 10.0427 115.797 9.488C116.092 8.93333 116.503 8.50867 117.032 8.214C117.569 7.91067 118.185 7.759 118.878 7.759C119.554 7.759 120.152 7.90633 120.672 8.201C121.192 8.49567 121.591 8.903 121.868 9.423C122.154 9.93433 122.297 10.515 122.297 11.165ZM121.075 10.918C121.075 10.4673 120.975 10.0817 120.776 9.761C120.577 9.43167 120.304 9.18467 119.957 9.02C119.619 8.84667 119.242 8.76 118.826 8.76C118.228 8.76 117.717 8.95067 117.292 9.332C116.876 9.71333 116.638 10.242 116.577 10.918H121.075ZM130.358 11.165C130.358 11.3903 130.345 11.6287 130.319 11.88H124.625C124.669 12.582 124.907 13.1323 125.34 13.531C125.782 13.921 126.315 14.116 126.939 14.116C127.451 14.116 127.875 13.999 128.213 13.765C128.56 13.5223 128.803 13.2017 128.941 12.803H130.215C130.025 13.4877 129.643 14.0467 129.071 14.48C128.499 14.9047 127.789 15.117 126.939 15.117C126.263 15.117 125.657 14.9653 125.119 14.662C124.591 14.3587 124.175 13.9297 123.871 13.375C123.568 12.8117 123.416 12.1617 123.416 11.425C123.416 10.6883 123.564 10.0427 123.858 9.488C124.153 8.93333 124.565 8.50867 125.093 8.214C125.631 7.91067 126.246 7.759 126.939 7.759C127.615 7.759 128.213 7.90633 128.733 8.201C129.253 8.49567 129.652 8.903 129.929 9.423C130.215 9.93433 130.358 10.515 130.358 11.165ZM129.136 10.918C129.136 10.4673 129.037 10.0817 128.837 9.761C128.638 9.43167 128.365 9.18467 128.018 9.02C127.68 8.84667 127.303 8.76 126.887 8.76C126.289 8.76 125.778 8.95067 125.353 9.332C124.937 9.71333 124.699 10.242 124.638 10.918H129.136ZM135.898 15L133.103 11.854V15H131.92V5.38H133.103V11.035L135.846 7.876H137.497L134.143 11.425L137.51 15H135.898ZM139.793 5.38V15H138.61V5.38H139.793ZM147.946 7.876L143.656 18.354H142.434L143.838 14.922L140.965 7.876H142.278L144.514 13.648L146.724 7.876H147.946ZM156.072 7.746C156.938 7.746 157.64 8.01033 158.178 8.539C158.715 9.059 158.984 9.813 158.984 10.801V15H157.814V10.97C157.814 10.2593 157.636 9.71767 157.281 9.345C156.925 8.96367 156.44 8.773 155.825 8.773C155.201 8.773 154.702 8.968 154.33 9.358C153.966 9.748 153.784 10.3157 153.784 11.061V15H152.601V7.876H153.784V8.89C154.018 8.526 154.334 8.24433 154.733 8.045C155.14 7.84567 155.586 7.746 156.072 7.746ZM167.416 11.165C167.416 11.3903 167.403 11.6287 167.377 11.88H161.683C161.726 12.582 161.965 13.1323 162.398 13.531C162.84 13.921 163.373 14.116 163.997 14.116C164.508 14.116 164.933 13.999 165.271 13.765C165.618 13.5223 165.86 13.2017 165.999 12.803H167.273C167.082 13.4877 166.701 14.0467 166.129 14.48C165.557 14.9047 164.846 15.117 163.997 15.117C163.321 15.117 162.714 14.9653 162.177 14.662C161.648 14.3587 161.232 13.9297 160.929 13.375C160.626 12.8117 160.474 12.1617 160.474 11.425C160.474 10.6883 160.621 10.0427 160.916 9.488C161.211 8.93333 161.622 8.50867 162.151 8.214C162.688 7.91067 163.304 7.759 163.997 7.759C164.673 7.759 165.271 7.90633 165.791 8.201C166.311 8.49567 166.71 8.903 166.987 9.423C167.273 9.93433 167.416 10.515 167.416 11.165ZM166.194 10.918C166.194 10.4673 166.094 10.0817 165.895 9.761C165.696 9.43167 165.423 9.18467 165.076 9.02C164.738 8.84667 164.361 8.76 163.945 8.76C163.347 8.76 162.836 8.95067 162.411 9.332C161.995 9.71333 161.757 10.242 161.696 10.918H166.194ZM178.468 7.876L176.245 15H175.023L173.307 9.345L171.591 15H170.369L168.133 7.876H169.342L170.98 13.856L172.748 7.876H173.957L175.686 13.869L177.298 7.876H178.468ZM182.164 15.117C181.618 15.117 181.128 15.026 180.695 14.844C180.261 14.6533 179.919 14.3933 179.668 14.064C179.416 13.726 179.278 13.3403 179.252 12.907H180.474C180.508 13.2623 180.673 13.5527 180.968 13.778C181.271 14.0033 181.665 14.116 182.151 14.116C182.601 14.116 182.957 14.0163 183.217 13.817C183.477 13.6177 183.607 13.3663 183.607 13.063C183.607 12.751 183.468 12.5213 183.191 12.374C182.913 12.218 182.484 12.0663 181.904 11.919C181.375 11.7803 180.942 11.6417 180.604 11.503C180.274 11.3557 179.988 11.1433 179.746 10.866C179.512 10.58 179.395 10.2073 179.395 9.748C179.395 9.384 179.503 9.05033 179.72 8.747C179.936 8.44367 180.244 8.20533 180.643 8.032C181.041 7.85 181.496 7.759 182.008 7.759C182.796 7.759 183.433 7.95833 183.919 8.357C184.404 8.75567 184.664 9.30167 184.699 9.995H183.516C183.49 9.62233 183.338 9.32333 183.061 9.098C182.792 8.87267 182.428 8.76 181.969 8.76C181.544 8.76 181.206 8.851 180.955 9.033C180.703 9.215 180.578 9.45333 180.578 9.748C180.578 9.982 180.651 10.177 180.799 10.333C180.955 10.4803 181.145 10.6017 181.371 10.697C181.605 10.7837 181.925 10.8833 182.333 10.996C182.844 11.1347 183.26 11.2733 183.581 11.412C183.901 11.542 184.174 11.7413 184.4 12.01C184.634 12.2787 184.755 12.6297 184.764 13.063C184.764 13.453 184.655 13.804 184.439 14.116C184.222 14.428 183.914 14.675 183.516 14.857C183.126 15.0303 182.675 15.117 182.164 15.117ZM189.457 11.412C189.457 10.684 189.605 10.047 189.899 9.501C190.194 8.94633 190.597 8.51733 191.108 8.214C191.628 7.91067 192.205 7.759 192.837 7.759C193.461 7.759 194.003 7.89333 194.462 8.162C194.922 8.43067 195.264 8.76867 195.489 9.176V7.876H196.685V15H195.489V13.674C195.255 14.09 194.904 14.4367 194.436 14.714C193.977 14.9827 193.44 15.117 192.824 15.117C192.192 15.117 191.62 14.961 191.108 14.649C190.597 14.337 190.194 13.8993 189.899 13.336C189.605 12.7727 189.457 12.1313 189.457 11.412ZM195.489 11.425C195.489 10.8877 195.381 10.4197 195.164 10.021C194.948 9.62233 194.653 9.319 194.28 9.111C193.916 8.89433 193.513 8.786 193.071 8.786C192.629 8.786 192.226 8.89 191.862 9.098C191.498 9.306 191.208 9.60933 190.991 10.008C190.775 10.4067 190.666 10.8747 190.666 11.412C190.666 11.958 190.775 12.4347 190.991 12.842C191.208 13.2407 191.498 13.5483 191.862 13.765C192.226 13.973 192.629 14.077 193.071 14.077C193.513 14.077 193.916 13.973 194.28 13.765C194.653 13.5483 194.948 13.2407 195.164 12.842C195.381 12.4347 195.489 11.9623 195.489 11.425ZM202.156 7.746C203.022 7.746 203.724 8.01033 204.262 8.539C204.799 9.059 205.068 9.813 205.068 10.801V15H203.898V10.97C203.898 10.2593 203.72 9.71767 203.365 9.345C203.009 8.96367 202.524 8.773 201.909 8.773C201.285 8.773 200.786 8.968 200.414 9.358C200.05 9.748 199.868 10.3157 199.868 11.061V15H198.685V7.876H199.868V8.89C200.102 8.526 200.418 8.24433 200.817 8.045C201.224 7.84567 201.67 7.746 202.156 7.746ZM206.558 11.412C206.558 10.684 206.705 10.047 207 9.501C207.295 8.94633 207.698 8.51733 208.209 8.214C208.729 7.91067 209.31 7.759 209.951 7.759C210.506 7.759 211.021 7.889 211.498 8.149C211.975 8.40033 212.339 8.734 212.59 9.15V5.38H213.786V15H212.59V13.661C212.356 14.0857 212.009 14.4367 211.55 14.714C211.091 14.9827 210.553 15.117 209.938 15.117C209.305 15.117 208.729 14.961 208.209 14.649C207.698 14.337 207.295 13.8993 207 13.336C206.705 12.7727 206.558 12.1313 206.558 11.412ZM212.59 11.425C212.59 10.8877 212.482 10.4197 212.265 10.021C212.048 9.62233 211.754 9.319 211.381 9.111C211.017 8.89433 210.614 8.786 210.172 8.786C209.73 8.786 209.327 8.89 208.963 9.098C208.599 9.306 208.309 9.60933 208.092 10.008C207.875 10.4067 207.767 10.8747 207.767 11.412C207.767 11.958 207.875 12.4347 208.092 12.842C208.309 13.2407 208.599 13.5483 208.963 13.765C209.327 13.973 209.73 14.077 210.172 14.077C210.614 14.077 211.017 13.973 211.381 13.765C211.754 13.5483 212.048 13.2407 212.265 12.842C212.482 12.4347 212.59 11.9623 212.59 11.425ZM225.569 7.876V15H224.386V13.947C224.161 14.311 223.844 14.597 223.437 14.805C223.038 15.0043 222.596 15.104 222.111 15.104C221.556 15.104 221.058 14.9913 220.616 14.766C220.174 14.532 219.823 14.1853 219.563 13.726C219.312 13.2667 219.186 12.7077 219.186 12.049V7.876H220.356V11.893C220.356 12.595 220.534 13.1367 220.889 13.518C221.244 13.8907 221.73 14.077 222.345 14.077C222.978 14.077 223.476 13.882 223.84 13.492C224.204 13.102 224.386 12.5343 224.386 11.789V7.876H225.569ZM228.749 9.189C228.983 8.78167 229.33 8.44367 229.789 8.175C230.257 7.89767 230.799 7.759 231.414 7.759C232.047 7.759 232.619 7.91067 233.13 8.214C233.65 8.51733 234.058 8.94633 234.352 9.501C234.647 10.047 234.794 10.684 234.794 11.412C234.794 12.1313 234.647 12.7727 234.352 13.336C234.058 13.8993 233.65 14.337 233.13 14.649C232.619 14.961 232.047 15.117 231.414 15.117C230.808 15.117 230.27 14.9827 229.802 14.714C229.343 14.4367 228.992 14.0943 228.749 13.687V18.38H227.566V7.876H228.749V9.189ZM233.585 11.412C233.585 10.8747 233.477 10.4067 233.26 10.008C233.044 9.60933 232.749 9.306 232.376 9.098C232.012 8.89 231.609 8.786 231.167 8.786C230.734 8.786 230.331 8.89433 229.958 9.111C229.594 9.319 229.3 9.62667 229.074 10.034C228.858 10.4327 228.749 10.8963 228.749 11.425C228.749 11.9623 228.858 12.4347 229.074 12.842C229.3 13.2407 229.594 13.5483 229.958 13.765C230.331 13.973 230.734 14.077 231.167 14.077C231.609 14.077 232.012 13.973 232.376 13.765C232.749 13.5483 233.044 13.2407 233.26 12.842C233.477 12.4347 233.585 11.958 233.585 11.412ZM235.91 11.412C235.91 10.684 236.057 10.047 236.352 9.501C236.646 8.94633 237.049 8.51733 237.561 8.214C238.081 7.91067 238.661 7.759 239.303 7.759C239.857 7.759 240.373 7.889 240.85 8.149C241.326 8.40033 241.69 8.734 241.942 9.15V5.38H243.138V15H241.942V13.661C241.708 14.0857 241.361 14.4367 240.902 14.714C240.442 14.9827 239.905 15.117 239.29 15.117C238.657 15.117 238.081 14.961 237.561 14.649C237.049 14.337 236.646 13.8993 236.352 13.336C236.057 12.7727 235.91 12.1313 235.91 11.412ZM241.942 11.425C241.942 10.8877 241.833 10.4197 241.617 10.021C241.4 9.62233 241.105 9.319 240.733 9.111C240.369 8.89433 239.966 8.786 239.524 8.786C239.082 8.786 238.679 8.89 238.315 9.098C237.951 9.306 237.66 9.60933 237.444 10.008C237.227 10.4067 237.119 10.8747 237.119 11.412C237.119 11.958 237.227 12.4347 237.444 12.842C237.66 13.2407 237.951 13.5483 238.315 13.765C238.679 13.973 239.082 14.077 239.524 14.077C239.966 14.077 240.369 13.973 240.733 13.765C241.105 13.5483 241.4 13.2407 241.617 12.842C241.833 12.4347 241.942 11.9623 241.942 11.425ZM244.695 11.412C244.695 10.684 244.842 10.047 245.137 9.501C245.431 8.94633 245.834 8.51733 246.346 8.214C246.866 7.91067 247.442 7.759 248.075 7.759C248.699 7.759 249.24 7.89333 249.7 8.162C250.159 8.43067 250.501 8.76867 250.727 9.176V7.876H251.923V15H250.727V13.674C250.493 14.09 250.142 14.4367 249.674 14.714C249.214 14.9827 248.677 15.117 248.062 15.117C247.429 15.117 246.857 14.961 246.346 14.649C245.834 14.337 245.431 13.8993 245.137 13.336C244.842 12.7727 244.695 12.1313 244.695 11.412ZM250.727 11.425C250.727 10.8877 250.618 10.4197 250.402 10.021C250.185 9.62233 249.89 9.319 249.518 9.111C249.154 8.89433 248.751 8.786 248.309 8.786C247.867 8.786 247.464 8.89 247.1 9.098C246.736 9.306 246.445 9.60933 246.229 10.008C246.012 10.4067 245.904 10.8747 245.904 11.412C245.904 11.958 246.012 12.4347 246.229 12.842C246.445 13.2407 246.736 13.5483 247.1 13.765C247.464 13.973 247.867 14.077 248.309 14.077C248.751 14.077 249.154 13.973 249.518 13.765C249.89 13.5483 250.185 13.2407 250.402 12.842C250.618 12.4347 250.727 11.9623 250.727 11.425ZM255.365 8.851V13.05C255.365 13.3967 255.439 13.6437 255.586 13.791C255.733 13.9297 255.989 13.999 256.353 13.999H257.224V15H256.158C255.499 15 255.005 14.8483 254.676 14.545C254.347 14.2417 254.182 13.7433 254.182 13.05V8.851H253.259V7.876H254.182V6.082H255.365V7.876H257.224V8.851H255.365ZM265.157 11.165C265.157 11.3903 265.144 11.6287 265.118 11.88H259.424C259.468 12.582 259.706 13.1323 260.139 13.531C260.581 13.921 261.114 14.116 261.738 14.116C262.25 14.116 262.674 13.999 263.012 13.765C263.359 13.5223 263.602 13.2017 263.74 12.803H265.014C264.824 13.4877 264.442 14.0467 263.87 14.48C263.298 14.9047 262.588 15.117 261.738 15.117C261.062 15.117 260.456 14.9653 259.918 14.662C259.39 14.3587 258.974 13.9297 258.67 13.375C258.367 12.8117 258.215 12.1617 258.215 11.425C258.215 10.6883 258.363 10.0427 258.657 9.488C258.952 8.93333 259.364 8.50867 259.892 8.214C260.43 7.91067 261.045 7.759 261.738 7.759C262.414 7.759 263.012 7.90633 263.532 8.201C264.052 8.49567 264.451 8.903 264.728 9.423C265.014 9.93433 265.157 10.515 265.157 11.165ZM263.935 10.918C263.935 10.4673 263.836 10.0817 263.636 9.761C263.437 9.43167 263.164 9.18467 262.817 9.02C262.479 8.84667 262.102 8.76 261.686 8.76C261.088 8.76 260.577 8.95067 260.152 9.332C259.736 9.71333 259.498 10.242 259.437 10.918H263.935ZM269.241 15.117C268.695 15.117 268.205 15.026 267.772 14.844C267.338 14.6533 266.996 14.3933 266.745 14.064C266.493 13.726 266.355 13.3403 266.329 12.907H267.551C267.585 13.2623 267.75 13.5527 268.045 13.778C268.348 14.0033 268.742 14.116 269.228 14.116C269.678 14.116 270.034 14.0163 270.294 13.817C270.554 13.6177 270.684 13.3663 270.684 13.063C270.684 12.751 270.545 12.5213 270.268 12.374C269.99 12.218 269.561 12.0663 268.981 11.919C268.452 11.7803 268.019 11.6417 267.681 11.503C267.351 11.3557 267.065 11.1433 266.823 10.866C266.589 10.58 266.472 10.2073 266.472 9.748C266.472 9.384 266.58 9.05033 266.797 8.747C267.013 8.44367 267.321 8.20533 267.72 8.032C268.118 7.85 268.573 7.759 269.085 7.759C269.873 7.759 270.51 7.95833 270.996 8.357C271.481 8.75567 271.741 9.30167 271.776 9.995H270.593C270.567 9.62233 270.415 9.32333 270.138 9.098C269.869 8.87267 269.505 8.76 269.046 8.76C268.621 8.76 268.283 8.851 268.032 9.033C267.78 9.215 267.655 9.45333 267.655 9.748C267.655 9.982 267.728 10.177 267.876 10.333C268.032 10.4803 268.222 10.6017 268.448 10.697C268.682 10.7837 269.002 10.8833 269.41 10.996C269.921 11.1347 270.337 11.2733 270.658 11.412C270.978 11.542 271.251 11.7413 271.477 12.01C271.711 12.2787 271.832 12.6297 271.841 13.063C271.841 13.453 271.732 13.804 271.516 14.116C271.299 14.428 270.991 14.675 270.593 14.857C270.203 15.0303 269.752 15.117 269.241 15.117Z" fill="#FAFAFA"/>
<rect x="0.5" y="34.3862" width="371" height="45.4455" fill="#FAFAFA"/>
<path d="M35.0679 60.8613H30.2983V52.2949H35.0679V53.1738H31.2944V55.9453H34.8511V56.8125H31.2944V59.9824H35.0679V60.8613ZM43.7925 54.3223C44.4995 54.3223 45.0327 54.5078 45.3921 54.8789C45.7515 55.2461 45.9312 55.8379 45.9312 56.6543V60.8613H44.9702V56.7012C44.9702 56.1816 44.8569 55.793 44.6304 55.5352C44.4077 55.2734 44.0757 55.1426 43.6343 55.1426C43.0132 55.1426 42.562 55.3223 42.2808 55.6816C41.9995 56.041 41.8589 56.5703 41.8589 57.2695V60.8613H40.8921V56.7012C40.8921 56.3535 40.8413 56.0645 40.7397 55.834C40.6421 55.6035 40.4937 55.4316 40.2944 55.3184C40.0991 55.2012 39.8511 55.1426 39.5503 55.1426C39.1245 55.1426 38.7827 55.2305 38.5249 55.4062C38.2671 55.582 38.0796 55.8438 37.9624 56.1914C37.8491 56.5352 37.7925 56.959 37.7925 57.4629V60.8613H36.8198V54.4395H37.605L37.7515 55.3477H37.8042C37.9331 55.125 38.0952 54.9375 38.2905 54.7852C38.4858 54.6328 38.7046 54.5176 38.9468 54.4395C39.189 54.3613 39.4468 54.3223 39.7202 54.3223C40.2085 54.3223 40.6167 54.4141 40.9448 54.5977C41.2769 54.7773 41.5171 55.0527 41.6655 55.4238H41.7183C41.9292 55.0527 42.2183 54.7773 42.5854 54.5977C42.9526 54.4141 43.355 54.3223 43.7925 54.3223ZM50.3315 54.334C51.0972 54.334 51.6655 54.5059 52.0366 54.8496C52.4077 55.1934 52.5933 55.7422 52.5933 56.4961V60.8613H51.8843L51.6968 59.9121H51.6499C51.4702 60.1465 51.2827 60.3438 51.0874 60.5039C50.8921 60.6602 50.6655 60.7793 50.4077 60.8613C50.1538 60.9395 49.8413 60.9785 49.4702 60.9785C49.0796 60.9785 48.7319 60.9102 48.4272 60.7734C48.1265 60.6367 47.8882 60.4297 47.7124 60.1523C47.5405 59.875 47.4546 59.5234 47.4546 59.0977C47.4546 58.457 47.7085 57.9648 48.2163 57.6211C48.7241 57.2773 49.4976 57.0898 50.5366 57.0586L51.644 57.0117V56.6191C51.644 56.0645 51.5249 55.6758 51.2866 55.4531C51.0483 55.2305 50.7124 55.1191 50.2788 55.1191C49.9429 55.1191 49.6226 55.168 49.3179 55.2656C49.0132 55.3633 48.7241 55.4785 48.4507 55.6113L48.1519 54.873C48.4409 54.7246 48.7729 54.5977 49.1479 54.4922C49.5229 54.3867 49.9175 54.334 50.3315 54.334ZM51.6323 57.6973L50.6538 57.7383C49.853 57.7695 49.2886 57.9004 48.9604 58.1309C48.6323 58.3613 48.4683 58.6875 48.4683 59.1094C48.4683 59.4766 48.5796 59.748 48.8022 59.9238C49.0249 60.0996 49.3198 60.1875 49.687 60.1875C50.2573 60.1875 50.7241 60.0293 51.0874 59.7129C51.4507 59.3965 51.6323 58.9219 51.6323 58.2891V57.6973ZM55.5698 54.4395V60.8613H54.5972V54.4395H55.5698ZM55.0952 52.0371C55.2554 52.0371 55.3921 52.0898 55.5054 52.1953C55.6226 52.2969 55.6812 52.457 55.6812 52.6758C55.6812 52.8906 55.6226 53.0508 55.5054 53.1562C55.3921 53.2617 55.2554 53.3145 55.0952 53.3145C54.9272 53.3145 54.7866 53.2617 54.6733 53.1562C54.564 53.0508 54.5093 52.8906 54.5093 52.6758C54.5093 52.457 54.564 52.2969 54.6733 52.1953C54.7866 52.0898 54.9272 52.0371 55.0952 52.0371ZM58.6108 60.8613H57.6323V51.7441H58.6108V60.8613Z" fill="#222601"/>
<rect width="371" height="49" transform="translate(0.5 92.832)" fill="#0D4929"/>
<path d="M141.189 121.976C140.517 121.976 139.873 121.888 139.257 121.712C138.641 121.528 138.145 121.292 137.769 121.004L138.429 119.54C138.789 119.796 139.213 120.008 139.701 120.176C140.197 120.336 140.697 120.416 141.201 120.416C141.585 120.416 141.893 120.38 142.125 120.308C142.365 120.228 142.541 120.12 142.653 119.984C142.765 119.848 142.821 119.692 142.821 119.516C142.821 119.292 142.733 119.116 142.557 118.988C142.381 118.852 142.149 118.744 141.861 118.664C141.573 118.576 141.253 118.496 140.901 118.424C140.557 118.344 140.209 118.248 139.857 118.136C139.513 118.024 139.197 117.88 138.909 117.704C138.621 117.528 138.385 117.296 138.201 117.008C138.025 116.72 137.937 116.352 137.937 115.904C137.937 115.424 138.065 114.988 138.321 114.596C138.585 114.196 138.977 113.88 139.497 113.648C140.025 113.408 140.685 113.288 141.477 113.288C142.005 113.288 142.525 113.352 143.037 113.48C143.549 113.6 144.001 113.784 144.393 114.032L143.793 115.508C143.401 115.284 143.009 115.12 142.617 115.016C142.225 114.904 141.841 114.848 141.465 114.848C141.089 114.848 140.781 114.892 140.541 114.98C140.301 115.068 140.129 115.184 140.025 115.328C139.921 115.464 139.869 115.624 139.869 115.808C139.869 116.024 139.957 116.2 140.133 116.336C140.309 116.464 140.541 116.568 140.829 116.648C141.117 116.728 141.433 116.808 141.777 116.888C142.129 116.968 142.477 117.06 142.821 117.164C143.173 117.268 143.493 117.408 143.781 117.584C144.069 117.76 144.301 117.992 144.477 118.28C144.661 118.568 144.753 118.932 144.753 119.372C144.753 119.844 144.621 120.276 144.357 120.668C144.093 121.06 143.697 121.376 143.169 121.616C142.649 121.856 141.989 121.976 141.189 121.976ZM148.913 121.928C148.377 121.928 147.897 121.824 147.473 121.616C147.057 121.408 146.733 121.092 146.501 120.668C146.269 120.236 146.153 119.688 146.153 119.024V115.376H148.025V118.748C148.025 119.284 148.137 119.68 148.361 119.936C148.593 120.184 148.917 120.308 149.333 120.308C149.621 120.308 149.877 120.248 150.101 120.128C150.325 120 150.501 119.808 150.629 119.552C150.757 119.288 150.821 118.96 150.821 118.568V115.376H152.693V121.832H150.917V120.056L151.241 120.572C151.025 121.02 150.705 121.36 150.281 121.592C149.865 121.816 149.409 121.928 148.913 121.928ZM158.484 121.928C157.916 121.928 157.428 121.808 157.02 121.568C156.612 121.328 156.3 120.964 156.084 120.476C155.868 119.98 155.76 119.356 155.76 118.604C155.76 117.844 155.872 117.22 156.096 116.732C156.328 116.244 156.648 115.88 157.056 115.64C157.464 115.4 157.94 115.28 158.484 115.28C159.092 115.28 159.636 115.416 160.116 115.688C160.604 115.96 160.988 116.344 161.268 116.84C161.556 117.336 161.7 117.924 161.7 118.604C161.7 119.276 161.556 119.86 161.268 120.356C160.988 120.852 160.604 121.24 160.116 121.52C159.636 121.792 159.092 121.928 158.484 121.928ZM154.668 121.832V112.928H156.54V116.684L156.42 118.592L156.456 120.512V121.832H154.668ZM158.16 120.392C158.472 120.392 158.748 120.32 158.988 120.176C159.236 120.032 159.432 119.828 159.576 119.564C159.728 119.292 159.804 118.972 159.804 118.604C159.804 118.228 159.728 117.908 159.576 117.644C159.432 117.38 159.236 117.176 158.988 117.032C158.748 116.888 158.472 116.816 158.16 116.816C157.848 116.816 157.568 116.888 157.32 117.032C157.072 117.176 156.876 117.38 156.732 117.644C156.588 117.908 156.516 118.228 156.516 118.604C156.516 118.972 156.588 119.292 156.732 119.564C156.876 119.828 157.072 120.032 157.32 120.176C157.568 120.32 157.848 120.392 158.16 120.392ZM165.365 121.928C164.813 121.928 164.281 121.864 163.769 121.736C163.265 121.6 162.865 121.432 162.569 121.232L163.193 119.888C163.489 120.072 163.837 120.224 164.237 120.344C164.645 120.456 165.045 120.512 165.437 120.512C165.869 120.512 166.173 120.46 166.349 120.356C166.533 120.252 166.625 120.108 166.625 119.924C166.625 119.772 166.553 119.66 166.409 119.588C166.273 119.508 166.089 119.448 165.857 119.408C165.625 119.368 165.369 119.328 165.089 119.288C164.817 119.248 164.541 119.196 164.261 119.132C163.981 119.06 163.725 118.956 163.493 118.82C163.261 118.684 163.073 118.5 162.929 118.268C162.793 118.036 162.725 117.736 162.725 117.368C162.725 116.96 162.841 116.6 163.073 116.288C163.313 115.976 163.657 115.732 164.105 115.556C164.553 115.372 165.089 115.28 165.713 115.28C166.153 115.28 166.601 115.328 167.057 115.424C167.513 115.52 167.893 115.66 168.197 115.844L167.573 117.176C167.261 116.992 166.945 116.868 166.625 116.804C166.313 116.732 166.009 116.696 165.713 116.696C165.297 116.696 164.993 116.752 164.801 116.864C164.609 116.976 164.513 117.12 164.513 117.296C164.513 117.456 164.581 117.576 164.717 117.656C164.861 117.736 165.049 117.8 165.281 117.848C165.513 117.896 165.765 117.94 166.037 117.98C166.317 118.012 166.597 118.064 166.877 118.136C167.157 118.208 167.409 118.312 167.633 118.448C167.865 118.576 168.053 118.756 168.197 118.988C168.341 119.212 168.413 119.508 168.413 119.876C168.413 120.276 168.293 120.632 168.053 120.944C167.813 121.248 167.465 121.488 167.009 121.664C166.561 121.84 166.013 121.928 165.365 121.928ZM172.928 121.928C172.232 121.928 171.612 121.788 171.068 121.508C170.524 121.22 170.096 120.824 169.784 120.32C169.48 119.816 169.328 119.244 169.328 118.604C169.328 117.956 169.48 117.384 169.784 116.888C170.096 116.384 170.524 115.992 171.068 115.712C171.612 115.424 172.232 115.28 172.928 115.28C173.608 115.28 174.2 115.424 174.704 115.712C175.208 115.992 175.58 116.396 175.82 116.924L174.368 117.704C174.2 117.4 173.988 117.176 173.732 117.032C173.484 116.888 173.212 116.816 172.916 116.816C172.596 116.816 172.308 116.888 172.052 117.032C171.796 117.176 171.592 117.38 171.44 117.644C171.296 117.908 171.224 118.228 171.224 118.604C171.224 118.98 171.296 119.3 171.44 119.564C171.592 119.828 171.796 120.032 172.052 120.176C172.308 120.32 172.596 120.392 172.916 120.392C173.212 120.392 173.484 120.324 173.732 120.188C173.988 120.044 174.2 119.816 174.368 119.504L175.82 120.296C175.58 120.816 175.208 121.22 174.704 121.508C174.2 121.788 173.608 121.928 172.928 121.928ZM177.138 121.832V115.376H178.926V117.2L178.674 116.672C178.866 116.216 179.174 115.872 179.598 115.64C180.022 115.4 180.538 115.28 181.146 115.28V117.008C181.066 117 180.994 116.996 180.93 116.996C180.866 116.988 180.798 116.984 180.726 116.984C180.214 116.984 179.798 117.132 179.478 117.428C179.166 117.716 179.01 118.168 179.01 118.784V121.832H177.138ZM182.51 121.832V115.376H184.382V121.832H182.51ZM183.446 114.476C183.102 114.476 182.822 114.376 182.606 114.176C182.39 113.976 182.282 113.728 182.282 113.432C182.282 113.136 182.39 112.888 182.606 112.688C182.822 112.488 183.102 112.388 183.446 112.388C183.79 112.388 184.07 112.484 184.286 112.676C184.502 112.86 184.61 113.1 184.61 113.396C184.61 113.708 184.502 113.968 184.286 114.176C184.078 114.376 183.798 114.476 183.446 114.476ZM190.176 121.928C189.608 121.928 189.12 121.808 188.712 121.568C188.304 121.328 187.992 120.964 187.776 120.476C187.56 119.98 187.452 119.356 187.452 118.604C187.452 117.844 187.564 117.22 187.788 116.732C188.02 116.244 188.34 115.88 188.748 115.64C189.156 115.4 189.632 115.28 190.176 115.28C190.784 115.28 191.328 115.416 191.808 115.688C192.296 115.96 192.68 116.344 192.96 116.84C193.248 117.336 193.392 117.924 193.392 118.604C193.392 119.276 193.248 119.86 192.96 120.356C192.68 120.852 192.296 121.24 191.808 121.52C191.328 121.792 190.784 121.928 190.176 121.928ZM186.36 121.832V112.928H188.232V116.684L188.112 118.592L188.148 120.512V121.832H186.36ZM189.852 120.392C190.164 120.392 190.44 120.32 190.68 120.176C190.928 120.032 191.124 119.828 191.268 119.564C191.42 119.292 191.496 118.972 191.496 118.604C191.496 118.228 191.42 117.908 191.268 117.644C191.124 117.38 190.928 117.176 190.68 117.032C190.44 116.888 190.164 116.816 189.852 116.816C189.54 116.816 189.26 116.888 189.012 117.032C188.764 117.176 188.568 117.38 188.424 117.644C188.28 117.908 188.208 118.228 188.208 118.604C188.208 118.972 188.28 119.292 188.424 119.564C188.568 119.828 188.764 120.032 189.012 120.176C189.26 120.32 189.54 120.392 189.852 120.392ZM198.089 121.928C197.353 121.928 196.705 121.784 196.145 121.496C195.593 121.208 195.165 120.816 194.861 120.32C194.557 119.816 194.405 119.244 194.405 118.604C194.405 117.956 194.553 117.384 194.849 116.888C195.153 116.384 195.565 115.992 196.085 115.712C196.605 115.424 197.193 115.28 197.849 115.28C198.481 115.28 199.049 115.416 199.553 115.688C200.065 115.952 200.469 116.336 200.765 116.84C201.061 117.336 201.209 117.932 201.209 118.628C201.209 118.7 201.205 118.784 201.197 118.88C201.189 118.968 201.181 119.052 201.173 119.132H195.929V118.04H200.189L199.469 118.364C199.469 118.028 199.401 117.736 199.265 117.488C199.129 117.24 198.941 117.048 198.701 116.912C198.461 116.768 198.181 116.696 197.861 116.696C197.541 116.696 197.257 116.768 197.009 116.912C196.769 117.048 196.581 117.244 196.445 117.5C196.309 117.748 196.241 118.044 196.241 118.388V118.676C196.241 119.028 196.317 119.34 196.469 119.612C196.629 119.876 196.849 120.08 197.129 120.224C197.417 120.36 197.753 120.428 198.137 120.428C198.481 120.428 198.781 120.376 199.037 120.272C199.301 120.168 199.541 120.012 199.757 119.804L200.753 120.884C200.457 121.22 200.085 121.48 199.637 121.664C199.189 121.84 198.673 121.928 198.089 121.928ZM206.466 121.832V113.432H208.074L213.03 119.48H212.25V113.432H214.17V121.832H212.574L207.606 115.784H208.386V121.832H206.466ZM219.337 121.928C218.649 121.928 218.037 121.784 217.501 121.496C216.973 121.208 216.553 120.816 216.241 120.32C215.937 119.816 215.785 119.244 215.785 118.604C215.785 117.956 215.937 117.384 216.241 116.888C216.553 116.384 216.973 115.992 217.501 115.712C218.037 115.424 218.649 115.28 219.337 115.28C220.017 115.28 220.625 115.424 221.161 115.712C221.697 115.992 222.117 116.38 222.421 116.876C222.725 117.372 222.877 117.948 222.877 118.604C222.877 119.244 222.725 119.816 222.421 120.32C222.117 120.816 221.697 121.208 221.161 121.496C220.625 121.784 220.017 121.928 219.337 121.928ZM219.337 120.392C219.649 120.392 219.929 120.32 220.177 120.176C220.425 120.032 220.621 119.828 220.765 119.564C220.909 119.292 220.981 118.972 220.981 118.604C220.981 118.228 220.909 117.908 220.765 117.644C220.621 117.38 220.425 117.176 220.177 117.032C219.929 116.888 219.649 116.816 219.337 116.816C219.025 116.816 218.745 116.888 218.497 117.032C218.249 117.176 218.049 117.38 217.897 117.644C217.753 117.908 217.681 118.228 217.681 118.604C217.681 118.972 217.753 119.292 217.897 119.564C218.049 119.828 218.249 120.032 218.497 120.176C218.745 120.32 219.025 120.392 219.337 120.392ZM225.669 121.832L223.341 115.376H225.105L227.037 120.932H226.197L228.213 115.376H229.797L231.753 120.932H230.913L232.905 115.376H234.561L232.221 121.832H230.409L228.693 117.068H229.245L227.469 121.832H225.669Z" fill="#FAFAFA"/>
</g>
<defs>
<clipPath id="clip0_359_604">
<rect width="371" height="141.832" fill="white" transform="translate(0.5)"/>
</clipPath>
</defs>
</svg>
